<svg width="27" height="33" viewBox="0 0 27 33" fill="none" xmlns="http://www.w3.org/2000/svg">
<path d="M22.5741 17.3881C22.5598 14.72 23.7505 12.7063 26.1607 11.2232C24.8122 9.26758 22.775 8.19164 20.085 7.98081C17.5385 7.77725 14.7553 9.48568 13.7367 9.48568C12.6607 9.48568 10.1931 8.05351 8.25638 8.05351C4.25372 8.11894 0 11.2886 0 17.737C0 19.6418 0.344315 21.6095 1.03294 23.6402C1.95112 26.3083 5.26514 32.8512 8.72264 32.7422C10.5303 32.6986 11.8071 31.4409 14.1599 31.4409C16.441 31.4409 17.6246 32.7422 19.6403 32.7422C23.1265 32.6913 26.1249 26.7445 27 24.0692C22.3231 21.8373 22.5741 17.5262 22.5741 17.3881ZM18.5141 5.45087C20.4724 3.09542 20.293 0.950788 20.2357 0.180176C18.5069 0.281955 16.5056 1.37244 15.365 2.71738C14.1097 4.15683 13.3709 5.93796 13.5287 7.94446C15.4009 8.08986 17.1081 7.11569 18.5141 5.45087Z" fill="#1E1E1E"/>
</svg>
