<svg width="160" height="250" viewBox="0 0 160 318" fill="none" xmlns="http://www.w3.org/2000/svg">
<g clip-path="url(#clip0_6_1812)">
<path d="M23 1.18018H137C149.15 1.18018 159 11.0299 159 23.1802V294.18C159 306.33 149.15 316.18 137 316.18H23C10.8497 316.18 1 306.33 1 294.18V23.1802C1 11.0299 10.8497 1.18018 23 1.18018Z" fill="white" stroke="#1E1E1E" stroke-width="2"/>
<path opacity="0.35" fill-rule="evenodd" clip-rule="evenodd" d="M136.494 16.1802C135.908 16.1802 135.676 16.2187 135.437 16.3287C135.235 16.4215 135.078 16.5563 134.97 16.73C134.843 16.9357 134.798 17.135 134.798 17.639V19.8864C134.798 20.3904 134.843 20.5897 134.97 20.7954C135.078 20.969 135.235 21.1038 135.437 21.1967C135.676 21.3067 135.908 21.3452 136.494 21.3452H145.305C145.891 21.3452 146.122 21.3067 146.361 21.1967C146.563 21.1038 146.72 20.969 146.828 20.7954C146.956 20.5897 147.001 20.3904 147.001 19.8864V17.639C147.001 17.135 146.956 16.9357 146.828 16.73C146.72 16.5563 146.563 16.4215 146.361 16.3287C146.122 16.2187 145.891 16.1802 145.305 16.1802H136.494Z" stroke="black"/>
<path opacity="0.4" d="M95.873 22.2656V24.265C96.3407 24.0956 96.6447 23.7017 96.6447 23.2653C96.6447 22.8289 96.3407 22.435 95.873 22.2656Z" fill="black"/>
<path d="M136.662 17.1802H145.135C145.481 17.1802 145.606 17.2111 145.732 17.2692C145.858 17.3273 145.957 17.4125 146.025 17.5211C146.092 17.6297 146.128 17.7375 146.128 18.0345V19.9913C146.128 20.2884 146.092 20.3961 146.025 20.5047C145.957 20.6133 145.858 20.6986 145.732 20.7566C145.606 20.8147 145.481 20.8457 145.135 20.8457H136.662C136.317 20.8457 136.192 20.8147 136.065 20.7566C135.939 20.6986 135.84 20.6133 135.772 20.5047C135.705 20.3961 135.669 20.2884 135.669 19.9913V18.0345C135.669 17.7375 135.705 17.6297 135.772 17.5211C135.84 17.4125 135.939 17.3273 136.065 17.2692C136.192 17.2111 136.317 17.1802 136.662 17.1802Z" fill="black"/>
<path d="M125.341 17.3224C126.635 17.3225 127.878 17.7495 128.815 18.5153C128.886 18.5744 128.999 18.5737 129.068 18.5136L129.743 17.9285C129.778 17.898 129.798 17.8568 129.798 17.8138C129.797 17.7709 129.777 17.7299 129.741 17.6998C127.282 15.6736 123.401 15.6736 120.941 17.6998C120.905 17.7298 120.885 17.7709 120.885 17.8138C120.884 17.8567 120.904 17.898 120.939 17.9285L121.614 18.5136C121.683 18.5738 121.796 18.5745 121.867 18.5153C122.804 17.7495 124.048 17.3224 125.341 17.3224ZM125.341 19.2262C126.052 19.2262 126.737 19.4531 127.264 19.863C127.335 19.9212 127.447 19.9199 127.517 19.8602L128.19 19.275C128.226 19.2443 128.246 19.2027 128.245 19.1594C128.245 19.1162 128.224 19.0749 128.188 19.0448C126.584 17.7626 124.1 17.7626 122.496 19.0448C122.46 19.0749 122.44 19.1162 122.439 19.1595C122.439 19.2027 122.458 19.2444 122.494 19.275L123.168 19.8602C123.237 19.9199 123.349 19.9212 123.42 19.863C123.947 19.4534 124.631 19.2265 125.341 19.2262ZM126.636 20.6227C126.672 20.5923 126.692 20.5505 126.691 20.5071C126.69 20.4637 126.668 20.4226 126.631 20.3935C125.887 19.8524 124.796 19.8524 124.052 20.3935C124.014 20.4226 123.993 20.4637 123.991 20.5071C123.99 20.5505 124.01 20.5923 124.046 20.6227L125.212 21.6337C125.246 21.6635 125.293 21.6802 125.341 21.6802C125.39 21.6802 125.437 21.6635 125.471 21.6337L126.636 20.6227Z" fill="black"/>
<path d="M108.581 19.5146H109.163C109.484 19.5146 109.744 19.7385 109.744 20.0147V21.015C109.744 21.2912 109.484 21.5152 109.163 21.5152H108.581C108.26 21.5152 108 21.2912 108 21.015V20.0147C108 19.7385 108.26 19.5146 108.581 19.5146ZM111.295 18.5142H111.876C112.197 18.5142 112.458 18.7382 112.458 19.0144V21.015C112.458 21.2912 112.197 21.5152 111.876 21.5152H111.295C110.974 21.5152 110.713 21.2912 110.713 21.015V19.0144C110.713 18.7382 110.974 18.5142 111.295 18.5142ZM114.008 17.3472H114.59C114.911 17.3472 115.171 17.5711 115.171 17.8474V21.015C115.171 21.2912 114.911 21.5152 114.59 21.5152H114.008C113.687 21.5152 113.427 21.2912 113.427 21.015V17.8474C113.427 17.5711 113.687 17.3472 114.008 17.3472ZM116.722 16.1802H117.303C117.624 16.1802 117.885 16.4041 117.885 16.6803V21.015C117.885 21.2912 117.624 21.5152 117.303 21.5152H116.722C116.401 21.5152 116.14 21.2912 116.14 21.015V16.6803C116.14 16.4041 116.401 16.1802 116.722 16.1802Z" fill="black"/>
<path d="M15.3011 15.6511C15.5249 15.6528 15.7486 15.6954 15.9723 15.7789C16.196 15.8623 16.4002 16.0008 16.5849 16.1944C16.7695 16.3861 16.9178 16.648 17.0297 16.9801C17.1415 17.3121 17.1974 17.7285 17.1974 18.2292C17.1974 18.7139 17.1513 19.1445 17.0589 19.5209C16.9684 19.8956 16.837 20.2116 16.6648 20.4691C16.4943 20.7265 16.2866 20.9218 16.0415 21.055C15.7983 21.1882 15.5231 21.2547 15.2159 21.2547C14.9105 21.2547 14.638 21.1944 14.3983 21.0736C14.1603 20.9511 13.965 20.7816 13.8123 20.5649C13.6614 20.3465 13.5646 20.0935 13.522 19.8059H14.1719C14.2305 20.0562 14.3468 20.2631 14.5208 20.4264C14.6966 20.588 14.9283 20.6688 15.2159 20.6688C15.6367 20.6688 15.9688 20.485 16.212 20.1175C16.457 19.75 16.5795 19.2306 16.5795 18.5594H16.5369C16.4375 18.7086 16.3194 18.8373 16.1827 18.9456C16.046 19.0539 15.8942 19.1374 15.7273 19.196C15.5604 19.2546 15.3828 19.2839 15.1946 19.2839C14.8821 19.2839 14.5953 19.2066 14.3343 19.0522C14.0751 18.8959 13.8674 18.682 13.7111 18.4103C13.5566 18.1369 13.4794 17.8244 13.4794 17.4728C13.4794 17.139 13.554 16.8336 13.7031 16.5566C13.854 16.2778 14.0653 16.0559 14.337 15.8908C14.6104 15.7256 14.9318 15.6457 15.3011 15.6511ZM15.3011 16.237C15.0774 16.237 14.8759 16.2929 14.6966 16.4048C14.519 16.5149 14.3778 16.664 14.2731 16.8522C14.1701 17.0387 14.1186 17.2455 14.1186 17.4728C14.1186 17.7001 14.1683 17.9069 14.2678 18.0934C14.369 18.278 14.5066 18.4254 14.6806 18.5355C14.8564 18.6438 15.0561 18.6979 15.2798 18.6979C15.4485 18.6979 15.6056 18.6651 15.7512 18.5994C15.8968 18.5319 16.0238 18.4405 16.1321 18.3251C16.2422 18.2079 16.3283 18.0756 16.3904 17.9282C16.4526 17.7791 16.4837 17.6237 16.4837 17.4621C16.4837 17.2491 16.4322 17.0493 16.3292 16.8629C16.228 16.6764 16.0877 16.5255 15.9084 16.4101C15.7308 16.2947 15.5284 16.237 15.3011 16.237ZM18.7136 20.4824C18.5822 20.4824 18.4694 20.4353 18.3753 20.3412C18.2812 20.2471 18.2342 20.1344 18.2342 20.003C18.2342 19.8716 18.2812 19.7588 18.3753 19.6647C18.4694 19.5706 18.5822 19.5236 18.7136 19.5236C18.8449 19.5236 18.9577 19.5706 19.0518 19.6647C19.1459 19.7588 19.193 19.8716 19.193 20.003C19.193 20.09 19.1708 20.1699 19.1264 20.2427C19.0838 20.3155 19.0261 20.3741 18.9533 20.4185C18.8822 20.4611 18.8023 20.4824 18.7136 20.4824ZM18.7136 17.7231C18.5822 17.7231 18.4694 17.6761 18.3753 17.582C18.2812 17.4879 18.2342 17.3751 18.2342 17.2437C18.2342 17.1123 18.2812 16.9996 18.3753 16.9055C18.4694 16.8114 18.5822 16.7643 18.7136 16.7643C18.8449 16.7643 18.9577 16.8114 19.0518 16.9055C19.1459 16.9996 19.193 17.1123 19.193 17.2437C19.193 17.3307 19.1708 17.4106 19.1264 17.4834C19.0838 17.5562 19.0261 17.6148 18.9533 17.6592C18.8822 17.7018 18.8023 17.7231 18.7136 17.7231ZM20.1824 20.0616V19.5182L22.5794 15.7256H22.9736V16.5672H22.7073L20.8962 19.433V19.4756H24.1242V20.0616H20.1824ZM22.7499 21.1802V19.8964V19.6434V15.7256H23.3784V21.1802H22.7499ZM26.9666 15.7256V21.1802H26.3061V16.4181H26.2741L24.9425 17.3023V16.6312L26.3061 15.7256H26.9666Z" fill="black"/>
<path d="M59.725 41.1802C61.6 41.1802 62.475 40.2802 62.475 38.8552C62.475 37.7302 61.725 36.9552 60.175 36.8427V36.7302C61.575 36.6302 62.125 35.8802 62.125 34.8427C62.125 33.5302 61.2 32.8052 59.4875 32.8052H54.4625V41.1802H59.725ZM56.3375 34.4927H59.25C59.95 34.4927 60.25 34.7427 60.25 35.3177C60.25 35.8927 59.9625 36.1302 59.275 36.1302H56.3375V34.4927ZM56.3375 37.6802H59.5C60.2625 37.6802 60.575 37.9177 60.575 38.5802C60.575 39.2552 60.2625 39.4927 59.5 39.4927H56.3375V37.6802ZM65.7545 41.3052C67.4045 41.3052 68.167 40.3177 68.3295 39.2677H68.4295V41.1802H70.1795V34.9177H68.3045V38.0927C68.3045 39.1552 67.867 39.6302 66.642 39.6302C65.4545 39.6302 65.0295 39.2052 65.0295 38.1927V34.9177H63.1545V38.8177C63.1545 40.2177 63.992 41.3052 65.7545 41.3052ZM73.9382 41.3052C75.3757 41.3052 76.2007 40.6802 76.4382 39.4427H76.5382V41.1802H78.2882V32.8052H76.4132V36.5802H76.3007C76.0882 35.5302 75.3257 34.7927 73.8382 34.7927C71.9757 34.7927 70.9132 36.0552 70.9132 38.0552C70.9132 40.0302 71.9882 41.3052 73.9382 41.3052ZM72.8132 38.0552C72.8132 36.9052 73.3757 36.5052 74.5757 36.5052C75.7757 36.5052 76.4132 36.9052 76.4132 37.9927V38.0927C76.4132 39.1802 75.7632 39.5927 74.5757 39.5927C73.3757 39.5927 72.8132 39.1927 72.8132 38.0552ZM82.0303 40.5427C83.4303 40.5427 84.1678 39.9052 84.3678 38.9802H84.4678V40.3927C84.4678 41.6177 84.1053 41.8677 82.9053 41.8677C81.6303 41.8677 81.3553 41.6552 81.3553 40.9552H79.4803C79.4803 42.5302 80.7553 43.4302 82.7803 43.4302C85.0178 43.4302 86.3428 42.4552 86.3428 40.2677V34.9177H84.5928V36.4302H84.4928C84.2928 35.3427 83.3803 34.7927 82.1053 34.7927C80.2303 34.7927 79.0928 35.9177 79.0928 37.6677C79.0928 39.4302 80.1678 40.5427 82.0303 40.5427ZM80.9803 37.6677C80.9803 36.7427 81.5053 36.4177 82.7053 36.4177C83.8678 36.4177 84.4678 36.7427 84.4678 37.5927V37.7302C84.4678 38.5927 83.8803 38.9302 82.6803 38.9302C81.5053 38.9302 80.9803 38.5927 80.9803 37.6677ZM90.6619 41.3052C92.6494 41.3052 93.9744 40.3552 93.9744 38.9927V38.8552H92.0994V38.9802C92.0994 39.5177 91.7119 39.8052 90.5994 39.8052C89.3869 39.8052 88.9369 39.3927 88.8869 38.4302H93.9869C94.0119 38.2177 94.0369 38.0552 94.0369 37.8302C94.0369 35.8677 92.6744 34.7927 90.6244 34.7927C88.5619 34.7927 87.1494 36.0552 87.1494 38.0552C87.1494 40.2802 88.5744 41.3052 90.6619 41.3052ZM90.5869 36.2552C91.6869 36.2552 92.1869 36.6177 92.2369 37.4427H88.9119C88.9994 36.6302 89.4744 36.2552 90.5869 36.2552ZM99.2445 41.1802V39.4927H98.1195C97.457 39.4927 97.2195 39.3302 97.2195 38.7052V36.4677H99.2445V34.9177H97.2195V33.7052H95.3445V34.9177H94.357V36.4677H95.3445V38.9177C95.3445 40.4927 96.232 41.1802 97.6945 41.1802H99.2445ZM103.109 41.3052C105.047 41.3052 106.209 40.5302 106.209 39.3552C106.209 38.3177 105.584 37.7552 103.909 37.5677L102.572 37.4052C101.747 37.3052 101.572 37.1677 101.572 36.8427C101.572 36.4427 101.809 36.2802 102.747 36.2802C103.897 36.2802 104.147 36.5427 104.147 37.0552V37.1302H106.022V37.0927C106.022 35.5677 104.859 34.7927 102.809 34.7927C100.659 34.7927 99.7218 35.6677 99.7218 36.7677C99.7218 37.8177 100.422 38.3802 101.672 38.5177L103.434 38.7302C104.172 38.8302 104.359 38.9302 104.359 39.2802C104.359 39.6552 104.122 39.8177 103.122 39.8177C102.059 39.8177 101.709 39.6677 101.709 39.1052V38.9927H99.8343V39.0302C99.8343 40.4802 100.997 41.3052 103.109 41.3052Z" fill="#1E1E1E"/>
<path d="M18.799 76.8592H19.247V76.2502C20.171 76.1662 20.766 75.6062 20.766 74.7732C20.766 74.0732 20.36 73.6322 19.52 73.4432L19.247 73.3802V71.6442C19.702 71.7072 19.975 71.9942 20.003 72.4422H20.682C20.633 71.6302 20.094 71.1122 19.247 71.0352V70.4332H18.799V71.0422C17.889 71.1192 17.294 71.6862 17.294 72.4842C17.294 73.2052 17.721 73.6672 18.547 73.8562L18.799 73.9122V75.6552C18.267 75.5992 17.938 75.3052 17.924 74.8572H17.224C17.266 75.6762 17.875 76.2012 18.799 76.2572V76.8592ZM18.687 73.2472C18.197 73.1282 17.966 72.8692 17.966 72.4632C17.966 72.0152 18.281 71.7142 18.799 71.6442V73.2752L18.687 73.2472ZM19.38 74.0522C19.863 74.1642 20.094 74.4232 20.094 74.8292C20.094 75.2702 19.772 75.5712 19.247 75.6412V74.0242L19.38 74.0522ZM23.084 76.2642C24.176 76.2642 24.925 75.5292 24.925 74.4792C24.925 73.5062 24.26 72.7852 23.231 72.7852C22.853 72.7852 22.517 72.8902 22.251 73.0932L22.587 71.7492H24.624V71.1192H22.09L21.474 73.7162L22.055 73.8632C22.286 73.5762 22.678 73.3732 23.105 73.3732C23.812 73.3732 24.225 73.8562 24.225 74.5072C24.225 75.1932 23.784 75.6482 23.098 75.6482C22.454 75.6482 22.055 75.2492 22.055 74.5982H21.376C21.376 75.6062 22.048 76.2642 23.084 76.2642ZM25.5188 73.6532C25.5188 75.2282 26.2958 76.2712 27.6048 76.2712C28.9068 76.2712 29.6838 75.2282 29.6838 73.6532C29.6838 72.0852 28.8718 71.0212 27.6048 71.0212C26.3308 71.0212 25.5188 72.0852 25.5188 73.6532ZM26.1978 73.6532C26.1978 72.3932 26.7158 71.6372 27.6048 71.6372C28.4938 71.6372 29.0048 72.3932 29.0048 73.6532C29.0048 74.8992 28.4938 75.6552 27.6048 75.6552C26.7158 75.6552 26.1978 74.8992 26.1978 73.6532ZM30.3723 73.6532C30.3723 75.2282 31.1493 76.2712 32.4583 76.2712C33.7603 76.2712 34.5373 75.2282 34.5373 73.6532C34.5373 72.0852 33.7253 71.0212 32.4583 71.0212C31.1843 71.0212 30.3723 72.0852 30.3723 73.6532ZM31.0513 73.6532C31.0513 72.3932 31.5693 71.6372 32.4583 71.6372C33.3473 71.6372 33.8583 72.3932 33.8583 73.6532C33.8583 74.8992 33.3473 75.6552 32.4583 75.6552C31.5693 75.6552 31.0513 74.8992 31.0513 73.6532Z" fill="#1E1E1E"/>
<path d="M17.799 94.8592H18.247V94.2502C19.171 94.1662 19.766 93.6062 19.766 92.7732C19.766 92.0732 19.36 91.6322 18.52 91.4432L18.247 91.3802V89.6442C18.702 89.7072 18.975 89.9942 19.003 90.4422H19.682C19.633 89.6302 19.094 89.1122 18.247 89.0352V88.4332H17.799V89.0422C16.889 89.1192 16.294 89.6862 16.294 90.4842C16.294 91.2052 16.721 91.6672 17.547 91.8562L17.799 91.9122V93.6552C17.267 93.5992 16.938 93.3052 16.924 92.8572H16.224C16.266 93.6762 16.875 94.2012 17.799 94.2572V94.8592ZM17.687 91.2472C17.197 91.1282 16.966 90.8692 16.966 90.4632C16.966 90.0152 17.281 89.7142 17.799 89.6442V91.2752L17.687 91.2472ZM18.38 92.0522C18.863 92.1642 19.094 92.4232 19.094 92.8292C19.094 93.2702 18.772 93.5712 18.247 93.6412V92.0242L18.38 92.0522ZM24.156 93.1582V92.5492H23.554V89.1192H22.665L20.278 92.5492V93.1582H22.896V94.1802H23.554V93.1582H24.156ZM21.02 92.5492L22.896 89.8472V92.5492H21.02ZM24.8332 91.6532C24.8332 93.2282 25.6102 94.2712 26.9192 94.2712C28.2212 94.2712 28.9982 93.2282 28.9982 91.6532C28.9982 90.0852 28.1862 89.0212 26.9192 89.0212C25.6452 89.0212 24.8332 90.0852 24.8332 91.6532ZM25.5122 91.6532C25.5122 90.3932 26.0302 89.6372 26.9192 89.6372C27.8082 89.6372 28.3192 90.3932 28.3192 91.6532C28.3192 92.8992 27.8082 93.6552 26.9192 93.6552C26.0302 93.6552 25.5122 92.8992 25.5122 91.6532ZM29.6868 91.6532C29.6868 93.2282 30.4638 94.2712 31.7728 94.2712C33.0748 94.2712 33.8518 93.2282 33.8518 91.6532C33.8518 90.0852 33.0397 89.0212 31.7728 89.0212C30.4988 89.0212 29.6868 90.0852 29.6868 91.6532ZM30.3658 91.6532C30.3658 90.3932 30.8838 89.6372 31.7728 89.6372C32.6618 89.6372 33.1728 90.3932 33.1728 91.6532C33.1728 92.8992 32.6618 93.6552 31.7728 93.6552C30.8838 93.6552 30.3658 92.8992 30.3658 91.6532Z" fill="#1E1E1E"/>
<path d="M18.799 112.859H19.247V112.25C20.171 112.166 20.766 111.606 20.766 110.773C20.766 110.073 20.36 109.632 19.52 109.443L19.247 109.38V107.644C19.702 107.707 19.975 107.994 20.003 108.442H20.682C20.633 107.63 20.094 107.112 19.247 107.035V106.433H18.799V107.042C17.889 107.119 17.294 107.686 17.294 108.484C17.294 109.205 17.721 109.667 18.547 109.856L18.799 109.912V111.655C18.267 111.599 17.938 111.305 17.924 110.857H17.224C17.266 111.676 17.875 112.201 18.799 112.257V112.859ZM18.687 109.247C18.197 109.128 17.966 108.869 17.966 108.463C17.966 108.015 18.281 107.714 18.799 107.644V109.275L18.687 109.247ZM19.38 110.052C19.863 110.164 20.094 110.423 20.094 110.829C20.094 111.27 19.772 111.571 19.247 111.641V110.024L19.38 110.052ZM22.832 109.562C23.637 109.562 24.057 109.968 24.057 110.577C24.057 111.228 23.63 111.648 22.972 111.648C22.335 111.648 21.929 111.263 21.929 110.605H21.25C21.25 111.655 21.964 112.264 22.958 112.264C23.987 112.264 24.757 111.613 24.757 110.591C24.757 109.681 24.106 109.1 23.245 108.995L24.631 107.672V107.119H21.488V107.728H23.763L22.328 109.107V109.562H22.832ZM25.3616 109.653C25.3616 111.228 26.1386 112.271 27.4476 112.271C28.7496 112.271 29.5266 111.228 29.5266 109.653C29.5266 108.085 28.7146 107.021 27.4476 107.021C26.1736 107.021 25.3616 108.085 25.3616 109.653ZM26.0406 109.653C26.0406 108.393 26.5586 107.637 27.4476 107.637C28.3366 107.637 28.8476 108.393 28.8476 109.653C28.8476 110.899 28.3366 111.655 27.4476 111.655C26.5586 111.655 26.0406 110.899 26.0406 109.653ZM30.2151 109.653C30.2151 111.228 30.9921 112.271 32.3011 112.271C33.6031 112.271 34.3801 111.228 34.3801 109.653C34.3801 108.085 33.5681 107.021 32.3011 107.021C31.0271 107.021 30.2151 108.085 30.2151 109.653ZM30.8941 109.653C30.8941 108.393 31.4121 107.637 32.3011 107.637C33.1901 107.637 33.7011 108.393 33.7011 109.653C33.7011 110.899 33.1901 111.655 32.3011 111.655C31.4121 111.655 30.8941 110.899 30.8941 109.653Z" fill="#1E1E1E"/>
<path d="M18.799 130.859H19.247V130.25C20.171 130.166 20.766 129.606 20.766 128.773C20.766 128.073 20.36 127.632 19.52 127.443L19.247 127.38V125.644C19.702 125.707 19.975 125.994 20.003 126.442H20.682C20.633 125.63 20.094 125.112 19.247 125.035V124.433H18.799V125.042C17.889 125.119 17.294 125.686 17.294 126.484C17.294 127.205 17.721 127.667 18.547 127.856L18.799 127.912V129.655C18.267 129.599 17.938 129.305 17.924 128.857H17.224C17.266 129.676 17.875 130.201 18.799 130.257V130.859ZM18.687 127.247C18.197 127.128 17.966 126.869 17.966 126.463C17.966 126.015 18.281 125.714 18.799 125.644V127.275L18.687 127.247ZM19.38 128.052C19.863 128.164 20.094 128.423 20.094 128.829C20.094 129.27 19.772 129.571 19.247 129.641V128.024L19.38 128.052ZM24.778 130.173V129.536H22.44L23.49 128.626C24.386 127.849 24.743 127.338 24.743 126.617C24.743 125.644 24.092 125.028 23.077 125.028C22.048 125.028 21.362 125.735 21.341 126.82H22.027C22.041 126.099 22.447 125.644 23.07 125.644C23.679 125.644 24.043 126.022 24.043 126.659C24.043 127.198 23.812 127.541 22.993 128.248L21.362 129.655V130.18L24.778 130.173ZM25.4094 127.653C25.4094 129.228 26.1864 130.271 27.4954 130.271C28.7974 130.271 29.5744 129.228 29.5744 127.653C29.5744 126.085 28.7624 125.021 27.4954 125.021C26.2214 125.021 25.4094 126.085 25.4094 127.653ZM26.0884 127.653C26.0884 126.393 26.6064 125.637 27.4954 125.637C28.3844 125.637 28.8954 126.393 28.8954 127.653C28.8954 128.899 28.3844 129.655 27.4954 129.655C26.6064 129.655 26.0884 128.899 26.0884 127.653ZM30.2629 127.653C30.2629 129.228 31.0399 130.271 32.3489 130.271C33.6509 130.271 34.4279 129.228 34.4279 127.653C34.4279 126.085 33.6159 125.021 32.3489 125.021C31.0749 125.021 30.2629 126.085 30.2629 127.653ZM30.9419 127.653C30.9419 126.393 31.4599 125.637 32.3489 125.637C33.2379 125.637 33.7489 126.393 33.7489 127.653C33.7489 128.899 33.2379 129.655 32.3489 129.655C31.4599 129.655 30.9419 128.899 30.9419 127.653Z" fill="#1E1E1E"/>
<path d="M18.799 148.859H19.247V148.25C20.171 148.166 20.766 147.606 20.766 146.773C20.766 146.073 20.36 145.632 19.52 145.443L19.247 145.38V143.644C19.702 143.707 19.975 143.994 20.003 144.442H20.682C20.633 143.63 20.094 143.112 19.247 143.035V142.433H18.799V143.042C17.889 143.119 17.294 143.686 17.294 144.484C17.294 145.205 17.721 145.667 18.547 145.856L18.799 145.912V147.655C18.267 147.599 17.938 147.305 17.924 146.857H17.224C17.266 147.676 17.875 148.201 18.799 148.257V148.859ZM18.687 145.247C18.197 145.128 17.966 144.869 17.966 144.463C17.966 144.015 18.281 143.714 18.799 143.644V145.275L18.687 145.247ZM19.38 146.052C19.863 146.164 20.094 146.423 20.094 146.829C20.094 147.27 19.772 147.571 19.247 147.641V146.024L19.38 146.052ZM22.349 143.735V148.18H23.007V143.119H21.285V143.735H22.349ZM23.9328 145.653C23.9328 147.228 24.7098 148.271 26.0188 148.271C27.3208 148.271 28.0978 147.228 28.0978 145.653C28.0978 144.085 27.2858 143.021 26.0188 143.021C24.7448 143.021 23.9328 144.085 23.9328 145.653ZM24.6118 145.653C24.6118 144.393 25.1298 143.637 26.0188 143.637C26.9078 143.637 27.4188 144.393 27.4188 145.653C27.4188 146.899 26.9078 147.655 26.0188 147.655C25.1298 147.655 24.6118 146.899 24.6118 145.653ZM28.7864 145.653C28.7864 147.228 29.5634 148.271 30.8724 148.271C32.1744 148.271 32.9514 147.228 32.9514 145.653C32.9514 144.085 32.1394 143.021 30.8724 143.021C29.5984 143.021 28.7864 144.085 28.7864 145.653ZM29.4654 145.653C29.4654 144.393 29.9834 143.637 30.8724 143.637C31.7614 143.637 32.2724 144.393 32.2724 145.653C32.2724 146.899 31.7614 147.655 30.8724 147.655C29.9834 147.655 29.4654 146.899 29.4654 145.653Z" fill="#1E1E1E"/>
<path d="M20.799 166.859H21.247V166.25C22.171 166.166 22.766 165.606 22.766 164.773C22.766 164.073 22.36 163.632 21.52 163.443L21.247 163.38V161.644C21.702 161.707 21.975 161.994 22.003 162.442H22.682C22.633 161.63 22.094 161.112 21.247 161.035V160.433H20.799V161.042C19.889 161.119 19.294 161.686 19.294 162.484C19.294 163.205 19.721 163.667 20.547 163.856L20.799 163.912V165.655C20.267 165.599 19.938 165.305 19.924 164.857H19.224C19.266 165.676 19.875 166.201 20.799 166.257V166.859ZM20.687 163.247C20.197 163.128 19.966 162.869 19.966 162.463C19.966 162.015 20.281 161.714 20.799 161.644V163.275L20.687 163.247ZM21.38 164.052C21.863 164.164 22.094 164.423 22.094 164.829C22.094 165.27 21.772 165.571 21.247 165.641V164.024L21.38 164.052ZM25.084 166.264C26.176 166.264 26.925 165.529 26.925 164.479C26.925 163.506 26.26 162.785 25.231 162.785C24.853 162.785 24.517 162.89 24.251 163.093L24.587 161.749H26.624V161.119H24.09L23.474 163.716L24.055 163.863C24.286 163.576 24.678 163.373 25.105 163.373C25.812 163.373 26.225 163.856 26.225 164.507C26.225 165.193 25.784 165.648 25.098 165.648C24.454 165.648 24.055 165.249 24.055 164.598H23.376C23.376 165.606 24.048 166.264 25.084 166.264ZM27.5188 163.653C27.5188 165.228 28.2958 166.271 29.6048 166.271C30.9068 166.271 31.6838 165.228 31.6838 163.653C31.6838 162.085 30.8718 161.021 29.6048 161.021C28.3308 161.021 27.5188 162.085 27.5188 163.653ZM28.1978 163.653C28.1978 162.393 28.7158 161.637 29.6048 161.637C30.4938 161.637 31.0048 162.393 31.0048 163.653C31.0048 164.899 30.4938 165.655 29.6048 165.655C28.7158 165.655 28.1978 164.899 28.1978 163.653Z" fill="#1E1E1E"/>
<path d="M22.799 184.859H23.247V184.25C24.171 184.166 24.766 183.606 24.766 182.773C24.766 182.073 24.36 181.632 23.52 181.443L23.247 181.38V179.644C23.702 179.707 23.975 179.994 24.003 180.442H24.682C24.633 179.63 24.094 179.112 23.247 179.035V178.433H22.799V179.042C21.889 179.119 21.294 179.686 21.294 180.484C21.294 181.205 21.721 181.667 22.547 181.856L22.799 181.912V183.655C22.267 183.599 21.938 183.305 21.924 182.857H21.224C21.266 183.676 21.875 184.201 22.799 184.257V184.859ZM22.687 181.247C22.197 181.128 21.966 180.869 21.966 180.463C21.966 180.015 22.281 179.714 22.799 179.644V181.275L22.687 181.247ZM23.38 182.052C23.863 182.164 24.094 182.423 24.094 182.829C24.094 183.27 23.772 183.571 23.247 183.641V182.024L23.38 182.052ZM25.383 181.653C25.383 183.228 26.16 184.271 27.469 184.271C28.771 184.271 29.548 183.228 29.548 181.653C29.548 180.085 28.736 179.021 27.469 179.021C26.195 179.021 25.383 180.085 25.383 181.653ZM26.062 181.653C26.062 180.393 26.58 179.637 27.469 179.637C28.358 179.637 28.869 180.393 28.869 181.653C28.869 182.899 28.358 183.655 27.469 183.655C26.58 183.655 26.062 182.899 26.062 181.653Z" fill="#1E1E1E"/>
<path d="M84.274 54.1192H83.588V59.1802H84.274V54.1192ZM86.0002 59.1802V57.3672C86.0002 56.7022 86.3572 56.2612 86.9732 56.2612C87.4772 56.2612 87.7992 56.5412 87.7992 57.2342V59.1802H88.4572V57.0872C88.4572 56.2122 88.0442 55.6592 87.1412 55.6592C86.6582 55.6592 86.2242 55.8902 86.0072 56.2822L85.9372 55.7572H85.3422V59.1802H86.0002ZM89.1446 57.4722C89.1446 58.5502 89.8096 59.2642 90.8176 59.2642C91.6436 59.2642 92.2806 58.7672 92.4136 58.0252H91.7556C91.6366 58.4312 91.2866 58.6762 90.8176 58.6762C90.1946 58.6762 89.7956 58.2002 89.7956 57.4652C89.7956 56.7232 90.2226 56.2472 90.8456 56.2472C91.2866 56.2472 91.6366 56.4782 91.7486 56.9122H92.4066C92.2876 56.1492 91.6856 55.6592 90.8246 55.6592C89.8236 55.6592 89.1446 56.4012 89.1446 57.4722ZM92.8838 57.4652C92.8838 58.5222 93.6398 59.2642 94.6688 59.2642C95.6908 59.2642 96.4468 58.5222 96.4468 57.4652C96.4468 56.4082 95.6908 55.6662 94.6688 55.6662C93.6398 55.6662 92.8838 56.4082 92.8838 57.4652ZM93.5488 57.4652C93.5488 56.7512 94.0038 56.2542 94.6688 56.2542C95.3268 56.2542 95.7888 56.7512 95.7888 57.4652C95.7888 58.1792 95.3268 58.6762 94.6688 58.6762C94.0038 58.6762 93.5488 58.1792 93.5488 57.4652ZM97.8332 59.1802V57.1502C97.8332 56.6042 98.1622 56.2612 98.6592 56.2612C99.1212 56.2612 99.4152 56.5552 99.4152 57.0942V59.1802H100.066V57.1502C100.066 56.6042 100.395 56.2542 100.892 56.2542C101.354 56.2542 101.655 56.5622 101.655 57.1012V59.1802H102.299V56.9402C102.299 56.1492 101.823 55.6592 101.039 55.6592C100.507 55.6592 100.094 55.9252 99.9332 56.3522C99.7582 55.9252 99.3802 55.6592 98.8482 55.6592C98.3652 55.6592 98.0012 55.8832 97.8262 56.2052L97.7632 55.7572H97.1752V59.1802H97.8332ZM104.688 59.2642C105.535 59.2642 106.109 58.8512 106.277 58.1162H105.661C105.549 58.5082 105.213 58.7182 104.702 58.7182C104.051 58.7182 103.673 58.3192 103.624 57.5982L106.27 57.5912V57.3462C106.27 56.3312 105.633 55.6592 104.66 55.6592C103.666 55.6592 102.987 56.4012 102.987 57.4722C102.987 58.5362 103.68 59.2642 104.688 59.2642ZM104.66 56.2122C105.241 56.2122 105.612 56.5902 105.612 57.1572H103.638C103.722 56.5552 104.086 56.2122 104.66 56.2122Z" fill="#AEAEAE"/>
<path d="M12.274 213.119H11.588V218.18H12.274V213.119ZM14.0002 218.18V216.367C14.0002 215.702 14.3572 215.261 14.9732 215.261C15.4772 215.261 15.7992 215.541 15.7992 216.234V218.18H16.4572V216.087C16.4572 215.212 16.0442 214.659 15.1412 214.659C14.6582 214.659 14.2242 214.89 14.0072 215.282L13.9372 214.757H13.3422V218.18H14.0002ZM17.1446 216.472C17.1446 217.55 17.8096 218.264 18.8176 218.264C19.6436 218.264 20.2806 217.767 20.4136 217.025H19.7556C19.6366 217.431 19.2866 217.676 18.8176 217.676C18.1946 217.676 17.7956 217.2 17.7956 216.465C17.7956 215.723 18.2226 215.247 18.8456 215.247C19.2866 215.247 19.6366 215.478 19.7486 215.912H20.4066C20.2876 215.149 19.6856 214.659 18.8246 214.659C17.8236 214.659 17.1446 215.401 17.1446 216.472ZM20.8838 216.465C20.8838 217.522 21.6398 218.264 22.6688 218.264C23.6908 218.264 24.4468 217.522 24.4468 216.465C24.4468 215.408 23.6908 214.666 22.6688 214.666C21.6398 214.666 20.8838 215.408 20.8838 216.465ZM21.5488 216.465C21.5488 215.751 22.0038 215.254 22.6688 215.254C23.3268 215.254 23.7888 215.751 23.7888 216.465C23.7888 217.179 23.3268 217.676 22.6688 217.676C22.0038 217.676 21.5488 217.179 21.5488 216.465ZM25.8332 218.18V216.15C25.8332 215.604 26.1622 215.261 26.6592 215.261C27.1212 215.261 27.4152 215.555 27.4152 216.094V218.18H28.0662V216.15C28.0662 215.604 28.3952 215.254 28.8922 215.254C29.3542 215.254 29.6552 215.562 29.6552 216.101V218.18H30.2992V215.94C30.2992 215.149 29.8232 214.659 29.0392 214.659C28.5072 214.659 28.0942 214.925 27.9332 215.352C27.7582 214.925 27.3802 214.659 26.8482 214.659C26.3652 214.659 26.0012 214.883 25.8262 215.205L25.7632 214.757H25.1752V218.18H25.8332ZM32.6884 218.264C33.5354 218.264 34.1094 217.851 34.2774 217.116H33.6614C33.5494 217.508 33.2134 217.718 32.7024 217.718C32.0514 217.718 31.6734 217.319 31.6244 216.598L34.2704 216.591V216.346C34.2704 215.331 33.6334 214.659 32.6604 214.659C31.6664 214.659 30.9874 215.401 30.9874 216.472C30.9874 217.536 31.6804 218.264 32.6884 218.264ZM32.6604 215.212C33.2414 215.212 33.6124 215.59 33.6124 216.157H31.6384C31.7224 215.555 32.0864 215.212 32.6604 215.212Z" fill="#AEAEAE"/>
<path d="M115.675 59.1802V58.5432H113.274V56.9402H115.437V56.3312H113.274V54.7492H115.675V54.1192H112.588V59.1802H115.675ZM116.907 59.1802L117.747 57.9272L118.601 59.1802H119.364L118.195 57.4862L119.385 55.7572H118.636L117.789 57.0312L116.921 55.7572H116.158L117.348 57.4862L116.151 59.1802H116.907ZM119.934 60.7132H120.592V58.6202C120.816 59.0402 121.271 59.2712 121.817 59.2712C122.832 59.2712 123.406 58.4872 123.406 57.4442C123.406 56.3942 122.797 55.6592 121.817 55.6592C121.271 55.6592 120.809 55.9042 120.578 56.3732L120.529 55.7572H119.934V60.7132ZM120.599 57.4722C120.599 56.7582 121.005 56.2612 121.677 56.2612C122.349 56.2612 122.748 56.7652 122.748 57.4722C122.748 58.1722 122.349 58.6762 121.677 58.6762C121.005 58.6762 120.599 58.1722 120.599 57.4722ZM125.608 59.2642C126.455 59.2642 127.029 58.8512 127.197 58.1162H126.581C126.469 58.5082 126.133 58.7182 125.622 58.7182C124.971 58.7182 124.593 58.3192 124.544 57.5982L127.19 57.5912V57.3462C127.19 56.3312 126.553 55.6592 125.58 55.6592C124.586 55.6592 123.907 56.4012 123.907 57.4722C123.907 58.5362 124.6 59.2642 125.608 59.2642ZM125.58 56.2122C126.161 56.2122 126.532 56.5902 126.532 57.1572H124.558C124.642 56.5552 125.006 56.2122 125.58 56.2122ZM128.583 59.1802V57.3672C128.583 56.7022 128.94 56.2612 129.556 56.2612C130.06 56.2612 130.382 56.5412 130.382 57.2342V59.1802H131.04V57.0872C131.04 56.2122 130.627 55.6592 129.724 55.6592C129.241 55.6592 128.807 55.8902 128.59 56.2822L128.52 55.7572H127.925V59.1802H128.583ZM131.631 58.1862C131.631 58.8372 132.142 59.2642 132.947 59.2642C133.759 59.2642 134.319 58.8512 134.319 58.2002C134.319 57.6892 134.032 57.4232 133.451 57.2832L132.849 57.1362C132.513 57.0522 132.345 56.8982 132.345 56.6672C132.345 56.3522 132.576 56.1702 132.989 56.1702C133.388 56.1702 133.619 56.3872 133.633 56.7302H134.263C134.249 56.0792 133.759 55.6592 133.01 55.6592C132.254 55.6592 131.722 56.0582 131.722 56.6882C131.722 57.1922 132.009 57.4932 132.618 57.6402L133.22 57.7802C133.577 57.8712 133.689 58.0112 133.689 58.2422C133.689 58.5572 133.423 58.7462 132.961 58.7462C132.527 58.7462 132.261 58.5362 132.261 58.1862H131.631ZM136.525 59.2642C137.372 59.2642 137.946 58.8512 138.114 58.1162H137.498C137.386 58.5082 137.05 58.7182 136.539 58.7182C135.888 58.7182 135.51 58.3192 135.461 57.5982L138.107 57.5912V57.3462C138.107 56.3312 137.47 55.6592 136.497 55.6592C135.503 55.6592 134.824 56.4012 134.824 57.4722C134.824 58.5362 135.517 59.2642 136.525 59.2642ZM136.497 56.2122C137.078 56.2122 137.449 56.5902 137.449 57.1572H135.475C135.559 56.5552 135.923 56.2122 136.497 56.2122ZM138.562 58.1862C138.562 58.8372 139.073 59.2642 139.878 59.2642C140.69 59.2642 141.25 58.8512 141.25 58.2002C141.25 57.6892 140.963 57.4232 140.382 57.2832L139.78 57.1362C139.444 57.0522 139.276 56.8982 139.276 56.6672C139.276 56.3522 139.507 56.1702 139.92 56.1702C140.319 56.1702 140.55 56.3872 140.564 56.7302H141.194C141.18 56.0792 140.69 55.6592 139.941 55.6592C139.185 55.6592 138.653 56.0582 138.653 56.6882C138.653 57.1922 138.94 57.4932 139.549 57.6402L140.151 57.7802C140.508 57.8712 140.62 58.0112 140.62 58.2422C140.62 58.5572 140.354 58.7462 139.892 58.7462C139.458 58.7462 139.192 58.5362 139.192 58.1862H138.562Z" fill="#1E1E1E"/>
<path d="M123.675 218.18V217.543H121.274V215.94H123.437V215.331H121.274V213.749H123.675V213.119H120.588V218.18H123.675ZM124.907 218.18L125.747 216.927L126.601 218.18H127.364L126.195 216.486L127.385 214.757H126.636L125.789 216.031L124.921 214.757H124.158L125.348 216.486L124.151 218.18H124.907ZM127.934 219.713H128.592V217.62C128.816 218.04 129.271 218.271 129.817 218.271C130.832 218.271 131.406 217.487 131.406 216.444C131.406 215.394 130.797 214.659 129.817 214.659C129.271 214.659 128.809 214.904 128.578 215.373L128.529 214.757H127.934V219.713ZM128.599 216.472C128.599 215.758 129.005 215.261 129.677 215.261C130.349 215.261 130.748 215.765 130.748 216.472C130.748 217.172 130.349 217.676 129.677 217.676C129.005 217.676 128.599 217.172 128.599 216.472ZM133.608 218.264C134.455 218.264 135.029 217.851 135.197 217.116H134.581C134.469 217.508 134.133 217.718 133.622 217.718C132.971 217.718 132.593 217.319 132.544 216.598L135.19 216.591V216.346C135.19 215.331 134.553 214.659 133.58 214.659C132.586 214.659 131.907 215.401 131.907 216.472C131.907 217.536 132.6 218.264 133.608 218.264ZM133.58 215.212C134.161 215.212 134.532 215.59 134.532 216.157H132.558C132.642 215.555 133.006 215.212 133.58 215.212ZM136.583 218.18V216.367C136.583 215.702 136.94 215.261 137.556 215.261C138.06 215.261 138.382 215.541 138.382 216.234V218.18H139.04V216.087C139.04 215.212 138.627 214.659 137.724 214.659C137.241 214.659 136.807 214.89 136.59 215.282L136.52 214.757H135.925V218.18H136.583ZM139.631 217.186C139.631 217.837 140.142 218.264 140.947 218.264C141.759 218.264 142.319 217.851 142.319 217.2C142.319 216.689 142.032 216.423 141.451 216.283L140.849 216.136C140.513 216.052 140.345 215.898 140.345 215.667C140.345 215.352 140.576 215.17 140.989 215.17C141.388 215.17 141.619 215.387 141.633 215.73H142.263C142.249 215.079 141.759 214.659 141.01 214.659C140.254 214.659 139.722 215.058 139.722 215.688C139.722 216.192 140.009 216.493 140.618 216.64L141.22 216.78C141.577 216.871 141.689 217.011 141.689 217.242C141.689 217.557 141.423 217.746 140.961 217.746C140.527 217.746 140.261 217.536 140.261 217.186H139.631ZM144.525 218.264C145.372 218.264 145.946 217.851 146.114 217.116H145.498C145.386 217.508 145.05 217.718 144.539 217.718C143.888 217.718 143.51 217.319 143.461 216.598L146.107 216.591V216.346C146.107 215.331 145.47 214.659 144.497 214.659C143.503 214.659 142.824 215.401 142.824 216.472C142.824 217.536 143.517 218.264 144.525 218.264ZM144.497 215.212C145.078 215.212 145.449 215.59 145.449 216.157H143.475C143.559 215.555 143.923 215.212 144.497 215.212ZM146.562 217.186C146.562 217.837 147.073 218.264 147.878 218.264C148.69 218.264 149.25 217.851 149.25 217.2C149.25 216.689 148.963 216.423 148.382 216.283L147.78 216.136C147.444 216.052 147.276 215.898 147.276 215.667C147.276 215.352 147.507 215.17 147.92 215.17C148.319 215.17 148.55 215.387 148.564 215.73H149.194C149.18 215.079 148.69 214.659 147.941 214.659C147.185 214.659 146.653 215.058 146.653 215.688C146.653 216.192 146.94 216.493 147.549 216.64L148.151 216.78C148.508 216.871 148.62 217.011 148.62 217.242C148.62 217.557 148.354 217.746 147.892 217.746C147.458 217.746 147.192 217.536 147.192 217.186H146.562Z" fill="#1E1E1E"/>
<rect x="112" y="62.1802" width="9" height="1" rx="0.5" fill="#1E1E1E"/>
<path d="M19.008 59.1802L19.421 57.9972H21.332L21.745 59.1802H22.69L20.842 54.0632H19.925L18.077 59.1802H19.008ZM20.268 55.5892C20.317 55.4492 20.359 55.2952 20.38 55.1972C20.394 55.3022 20.443 55.4562 20.485 55.5892L21.073 57.2412H19.687L20.268 55.5892ZM23.2056 60.7832H24.0596V58.7182C24.2766 59.0682 24.7246 59.2712 25.2426 59.2712C26.2716 59.2712 26.8596 58.4872 26.8596 57.4092C26.8596 56.3242 26.2156 55.6172 25.2426 55.6172C24.7176 55.6172 24.2626 55.8482 24.0526 56.2472L23.9966 55.7222H23.2056V60.7832ZM24.0666 57.4512C24.0666 56.8282 24.4516 56.3942 25.0396 56.3942C25.6416 56.3942 25.9986 56.8352 25.9986 57.4512C25.9986 58.0672 25.6416 58.5012 25.0396 58.5012C24.4516 58.5012 24.0666 58.0742 24.0666 57.4512ZM29.7096 55.7082C29.5696 55.6732 29.4506 55.6592 29.3316 55.6592C28.8696 55.6592 28.5406 55.8902 28.3936 56.2332L28.3446 55.7292H27.5396V59.1802H28.3936V57.5002C28.3936 56.8282 28.7786 56.4992 29.3946 56.4992H29.7096V55.7082ZM30.7147 55.0292C30.9947 55.0292 31.2257 54.7982 31.2257 54.5112C31.2257 54.2242 30.9947 54.0002 30.7147 54.0002C30.4207 54.0002 30.1897 54.2242 30.1897 54.5112C30.1897 54.7982 30.4207 55.0292 30.7147 55.0292ZM30.2877 59.1802H31.1417V55.7222H30.2877V59.1802ZM32.885 59.1802V53.9722H32.038V59.1802H32.885Z" fill="#1E1E1E"/>
<path d="M36.738 202.173V201.536H34.4L35.45 200.626C36.346 199.849 36.703 199.338 36.703 198.617C36.703 197.644 36.052 197.028 35.037 197.028C34.008 197.028 33.322 197.735 33.301 198.82H33.987C34.001 198.099 34.407 197.644 35.03 197.644C35.639 197.644 36.003 198.022 36.003 198.659C36.003 199.198 35.772 199.541 34.953 200.248L33.322 201.655V202.18L36.738 202.173ZM41.0056 201.158V200.549H40.4036V197.119H39.5146L37.1276 200.549V201.158H39.7456V202.18H40.4036V201.158H41.0056ZM37.8696 200.549L39.7456 197.847V200.549H37.8696Z" fill="#1E1E1E"/>
<path d="M52.738 202.173V201.536H50.4L51.45 200.626C52.346 199.849 52.703 199.338 52.703 198.617C52.703 197.644 52.052 197.028 51.037 197.028C50.008 197.028 49.322 197.735 49.301 198.82H49.987C50.001 198.099 50.407 197.644 51.03 197.644C51.639 197.644 52.003 198.022 52.003 198.659C52.003 199.198 51.772 199.541 50.953 200.248L49.322 201.655V202.18L52.738 202.173ZM55.0225 202.264C56.1145 202.264 56.8635 201.529 56.8635 200.479C56.8635 199.506 56.1985 198.785 55.1695 198.785C54.7915 198.785 54.4555 198.89 54.1895 199.093L54.5255 197.749H56.5625V197.119H54.0285L53.4125 199.716L53.9935 199.863C54.2245 199.576 54.6165 199.373 55.0435 199.373C55.7505 199.373 56.1635 199.856 56.1635 200.507C56.1635 201.193 55.7225 201.648 55.0365 201.648C54.3925 201.648 53.9935 201.249 53.9935 200.598H53.3145C53.3145 201.606 53.9865 202.264 55.0225 202.264Z" fill="#1E1E1E"/>
<path d="M68.738 202.173V201.536H66.4L67.45 200.626C68.346 199.849 68.703 199.338 68.703 198.617C68.703 197.644 68.052 197.028 67.037 197.028C66.008 197.028 65.322 197.735 65.301 198.82H65.987C66.001 198.099 66.407 197.644 67.03 197.644C67.639 197.644 68.003 198.022 68.003 198.659C68.003 199.198 67.772 199.541 66.953 200.248L65.322 201.655V202.18L68.738 202.173ZM70.0134 198.722C69.4954 199.429 69.3134 199.849 69.3134 200.451C69.3134 201.473 70.1254 202.264 71.1754 202.264C72.2184 202.264 73.0164 201.508 73.0164 200.451C73.0164 199.45 72.3094 198.694 71.2594 198.694C71.0844 198.694 70.9024 198.729 70.7274 198.799L71.9944 197.119H71.1964L70.0134 198.722ZM70.0134 200.458C70.0134 199.765 70.4894 199.275 71.1754 199.275C71.8474 199.275 72.3234 199.765 72.3234 200.458C72.3234 201.151 71.8474 201.648 71.1754 201.648C70.4894 201.648 70.0134 201.151 70.0134 200.458Z" fill="#1E1E1E"/>
<path d="M84.738 202.173V201.536H82.4L83.45 200.626C84.346 199.849 84.703 199.338 84.703 198.617C84.703 197.644 84.052 197.028 83.037 197.028C82.008 197.028 81.322 197.735 81.301 198.82H81.987C82.001 198.099 82.407 197.644 83.03 197.644C83.639 197.644 84.003 198.022 84.003 198.659C84.003 199.198 83.772 199.541 82.953 200.248L81.322 201.655V202.18L84.738 202.173ZM85.0414 197.119V197.749H87.8834L85.9444 202.18H86.6584L88.5764 197.749V197.119H85.0414Z" fill="#1E1E1E"/>
<path d="M99.738 202.173V201.536H97.4L98.45 200.626C99.346 199.849 99.703 199.338 99.703 198.617C99.703 197.644 99.052 197.028 98.037 197.028C97.008 197.028 96.322 197.735 96.301 198.82H96.987C97.001 198.099 97.407 197.644 98.03 197.644C98.639 197.644 99.003 198.022 99.003 198.659C99.003 199.198 98.772 199.541 97.953 200.248L96.322 201.655V202.18L99.738 202.173ZM100.355 200.773C100.355 201.669 101.09 202.264 102.217 202.264C103.337 202.264 104.079 201.669 104.079 200.78C104.079 200.157 103.715 199.653 103.148 199.471C103.624 199.282 103.89 198.883 103.89 198.365C103.89 197.567 103.218 197.028 102.224 197.028C101.216 197.028 100.537 197.567 100.537 198.358C100.537 198.869 100.796 199.268 101.272 199.471C100.712 199.674 100.355 200.164 100.355 200.773ZM101.167 198.4C101.167 197.931 101.58 197.623 102.21 197.623C102.847 197.623 103.246 197.931 103.246 198.414C103.246 198.904 102.847 199.219 102.21 199.219C101.58 199.219 101.167 198.897 101.167 198.4ZM101.027 200.724C101.027 200.164 101.489 199.807 102.21 199.807C102.938 199.807 103.4 200.164 103.4 200.724C103.4 201.291 102.931 201.655 102.217 201.655C101.496 201.655 101.027 201.291 101.027 200.724Z" fill="#1E1E1E"/>
<path d="M115.738 202.173V201.536H113.4L114.45 200.626C115.346 199.849 115.703 199.338 115.703 198.617C115.703 197.644 115.052 197.028 114.037 197.028C113.008 197.028 112.322 197.735 112.301 198.82H112.987C113.001 198.099 113.407 197.644 114.03 197.644C114.639 197.644 115.003 198.022 115.003 198.659C115.003 199.198 114.772 199.541 113.953 200.248L112.322 201.655V202.18L115.738 202.173ZM119.316 200.577C119.834 199.87 120.016 199.443 120.016 198.848C120.016 197.819 119.204 197.028 118.154 197.028C117.111 197.028 116.313 197.791 116.313 198.841C116.313 199.849 117.02 200.605 118.07 200.605C118.245 200.605 118.427 200.57 118.602 200.5L117.335 202.18H118.133L119.316 200.577ZM119.316 198.841C119.316 199.534 118.84 200.024 118.154 200.024C117.482 200.024 117.006 199.534 117.006 198.841C117.006 198.148 117.482 197.644 118.154 197.644C118.84 197.644 119.316 198.148 119.316 198.841Z" fill="#1E1E1E"/>
<path d="M129.792 199.562C130.597 199.562 131.017 199.968 131.017 200.577C131.017 201.228 130.59 201.648 129.932 201.648C129.295 201.648 128.889 201.263 128.889 200.605H128.21C128.21 201.655 128.924 202.264 129.918 202.264C130.947 202.264 131.717 201.613 131.717 200.591C131.717 199.681 131.066 199.1 130.205 198.995L131.591 197.672V197.119H128.448V197.728H130.723L129.288 199.107V199.562H129.792ZM132.322 199.653C132.322 201.228 133.099 202.271 134.408 202.271C135.71 202.271 136.487 201.228 136.487 199.653C136.487 198.085 135.675 197.021 134.408 197.021C133.134 197.021 132.322 198.085 132.322 199.653ZM133.001 199.653C133.001 198.393 133.519 197.637 134.408 197.637C135.297 197.637 135.808 198.393 135.808 199.653C135.808 200.899 135.297 201.655 134.408 201.655C133.519 201.655 133.001 200.899 133.001 199.653Z" fill="#1E1E1E"/>
<path d="M13.105 231.93V231.225C14.32 231.083 14.815 230.423 14.815 229.703C14.815 229.013 14.41 228.465 13.285 228.285L11.875 228.06C11.455 227.985 11.29 227.88 11.29 227.588C11.29 227.265 11.5375 227.108 12.3475 227.108C13.345 227.108 13.5925 227.31 13.5925 227.79V227.895H14.725V227.85C14.725 226.95 14.2075 226.305 13.105 226.125V225.405H12.055V226.095C10.675 226.215 10.1575 226.943 10.1575 227.633C10.1575 228.45 10.69 228.9 11.59 229.043L13 229.245C13.5175 229.335 13.69 229.448 13.69 229.755C13.69 230.093 13.48 230.228 12.58 230.228C11.56 230.228 11.3275 230.04 11.3275 229.575V229.44H10.2025V229.485C10.2025 230.513 10.8625 231.098 12.055 231.225V231.93H13.105ZM17.5456 231.255C19.0081 231.255 19.8781 230.745 19.8781 229.77C19.8781 229.035 19.3981 228.66 18.6631 228.555V228.473C19.3156 228.39 19.6606 228 19.6606 227.423C19.6606 226.538 18.9181 226.08 17.5756 226.08C15.9406 226.08 15.1606 226.8 15.1606 227.858V227.895H16.3531V227.858C16.3531 227.348 16.5781 227.16 17.4781 227.16C18.3331 227.16 18.5431 227.31 18.5431 227.663C18.5431 227.978 18.3481 228.135 17.9131 228.135H16.5706V229.058H18.0181C18.4906 229.058 18.7306 229.215 18.7306 229.59C18.7306 230.025 18.4381 230.175 17.4931 230.175C16.4956 230.175 16.3531 229.988 16.3531 229.478V229.358H15.1606V229.478C15.1606 230.588 15.9031 231.255 17.5456 231.255ZM22.7049 231.255C24.3174 231.255 25.2174 230.235 25.2174 228.668C25.2174 227.108 24.3174 226.08 22.7049 226.08C21.0849 226.08 20.1924 227.108 20.1924 228.668C20.1924 230.235 21.0849 231.255 22.7049 231.255ZM22.7049 230.16C21.7449 230.16 21.3999 229.748 21.3999 228.668C21.3999 227.588 21.7449 227.175 22.7049 227.175C23.6574 227.175 24.0099 227.588 24.0099 228.668C24.0099 229.748 23.6574 230.16 22.7049 230.16ZM26.063 232.238C26.7005 232.238 27.068 231.93 27.068 231.3V229.868H25.6205V231.18H26.258V231.308C26.258 231.503 26.183 231.54 26.033 231.54H25.6655V232.238H26.063ZM29.9925 231.255C31.605 231.255 32.505 230.235 32.505 228.668C32.505 227.108 31.605 226.08 29.9925 226.08C28.3725 226.08 27.48 227.108 27.48 228.668C27.48 230.235 28.3725 231.255 29.9925 231.255ZM29.9925 230.16C29.0325 230.16 28.6875 229.748 28.6875 228.668C28.6875 227.588 29.0325 227.175 29.9925 227.175C30.945 227.175 31.2975 227.588 31.2975 228.668C31.2975 229.748 30.945 230.16 29.9925 230.16ZM35.3831 231.255C36.9956 231.255 37.8956 230.235 37.8956 228.668C37.8956 227.108 36.9956 226.08 35.3831 226.08C33.7631 226.08 32.8706 227.108 32.8706 228.668C32.8706 230.235 33.7631 231.255 35.3831 231.255ZM35.3831 230.16C34.4231 230.16 34.0781 229.748 34.0781 228.668C34.0781 227.588 34.4231 227.175 35.3831 227.175C36.3356 227.175 36.6881 227.588 36.6881 228.668C36.6881 229.748 36.3356 230.16 35.3831 230.16ZM40.7737 231.255C42.3862 231.255 43.2862 230.235 43.2862 228.668C43.2862 227.108 42.3862 226.08 40.7737 226.08C39.1537 226.08 38.2612 227.108 38.2612 228.668C38.2612 230.235 39.1537 231.255 40.7737 231.255ZM40.7737 230.16C39.8137 230.16 39.4687 229.748 39.4687 228.668C39.4687 227.588 39.8137 227.175 40.7737 227.175C41.7262 227.175 42.0787 227.588 42.0787 228.668C42.0787 229.748 41.7262 230.16 40.7737 230.16Z" fill="#1E1E1E"/>
<path d="M121.105 231.93V231.225C122.32 231.083 122.815 230.423 122.815 229.703C122.815 229.013 122.41 228.465 121.285 228.285L119.875 228.06C119.455 227.985 119.29 227.88 119.29 227.588C119.29 227.265 119.538 227.108 120.348 227.108C121.345 227.108 121.593 227.31 121.593 227.79V227.895H122.725V227.85C122.725 226.95 122.208 226.305 121.105 226.125V225.405H120.055V226.095C118.675 226.215 118.158 226.943 118.158 227.633C118.158 228.45 118.69 228.9 119.59 229.043L121 229.245C121.518 229.335 121.69 229.448 121.69 229.755C121.69 230.093 121.48 230.228 120.58 230.228C119.56 230.228 119.328 230.04 119.328 229.575V229.44H118.203V229.485C118.203 230.513 118.863 231.098 120.055 231.225V231.93H121.105ZM125.463 231.18V226.155H124.436C124.188 226.65 123.813 226.778 123.258 226.778H123.048V227.55H124.338V231.18H125.463ZM128.464 231.255C130.076 231.255 130.976 230.235 130.976 228.668C130.976 227.108 130.076 226.08 128.464 226.08C126.844 226.08 125.951 227.108 125.951 228.668C125.951 230.235 126.844 231.255 128.464 231.255ZM128.464 230.16C127.504 230.16 127.159 229.748 127.159 228.668C127.159 227.588 127.504 227.175 128.464 227.175C129.416 227.175 129.769 227.588 129.769 228.668C129.769 229.748 129.416 230.16 128.464 230.16ZM131.822 232.238C132.459 232.238 132.827 231.93 132.827 231.3V229.868H131.379V231.18H132.017V231.308C132.017 231.503 131.942 231.54 131.792 231.54H131.424V232.238H131.822ZM135.751 231.255C137.364 231.255 138.264 230.235 138.264 228.668C138.264 227.108 137.364 226.08 135.751 226.08C134.131 226.08 133.239 227.108 133.239 228.668C133.239 230.235 134.131 231.255 135.751 231.255ZM135.751 230.16C134.791 230.16 134.446 229.748 134.446 228.668C134.446 227.588 134.791 227.175 135.751 227.175C136.704 227.175 137.056 227.588 137.056 228.668C137.056 229.748 136.704 230.16 135.751 230.16ZM141.142 231.255C142.754 231.255 143.654 230.235 143.654 228.668C143.654 227.108 142.754 226.08 141.142 226.08C139.522 226.08 138.629 227.108 138.629 228.668C138.629 230.235 139.522 231.255 141.142 231.255ZM141.142 230.16C140.182 230.16 139.837 229.748 139.837 228.668C139.837 227.588 140.182 227.175 141.142 227.175C142.094 227.175 142.447 227.588 142.447 228.668C142.447 229.748 142.094 230.16 141.142 230.16ZM146.533 231.255C148.145 231.255 149.045 230.235 149.045 228.668C149.045 227.108 148.145 226.08 146.533 226.08C144.913 226.08 144.02 227.108 144.02 228.668C144.02 230.235 144.913 231.255 146.533 231.255ZM146.533 230.16C145.573 230.16 145.228 229.748 145.228 228.668C145.228 227.588 145.573 227.175 146.533 227.175C147.485 227.175 147.838 227.588 147.838 228.668C147.838 229.748 147.485 230.16 146.533 230.16Z" fill="#1E1E1E"/>
<path d="M12.59 247.416C13.612 247.416 14.284 246.723 14.284 245.736C14.284 244.735 13.619 244.063 12.59 244.063H10.567V249.18H11.463V247.416H12.59ZM12.415 244.861C13.01 244.861 13.346 245.169 13.346 245.729C13.346 246.289 13.017 246.618 12.401 246.618H11.463V244.861H12.415ZM15.804 249.271C16.343 249.271 16.812 249.026 16.959 248.669L17.022 249.18H17.771V247.08C17.771 246.121 17.197 245.617 16.266 245.617C15.328 245.617 14.712 246.107 14.712 246.856H15.44C15.44 246.492 15.72 246.282 16.224 246.282C16.658 246.282 16.938 246.471 16.938 246.94V247.017L15.902 247.094C15.083 247.157 14.621 247.556 14.621 248.193C14.621 248.844 15.069 249.271 15.804 249.271ZM16.084 248.627C15.699 248.627 15.489 248.473 15.489 248.158C15.489 247.878 15.692 247.703 16.224 247.654L16.945 247.598V247.78C16.945 248.312 16.609 248.627 16.084 248.627ZM18.2132 250.783C18.4022 250.832 18.6122 250.86 18.8502 250.86C19.4172 250.86 19.7812 250.594 20.0402 249.95L21.7342 245.722H20.8522L19.9142 248.242L19.0252 245.722H18.1222L19.5152 249.327L19.4172 249.586C19.2702 249.992 19.0602 250.069 18.7242 250.069H18.2132V250.783ZM23.0733 249.18V247.22C23.0733 246.66 23.4023 246.394 23.8083 246.394C24.2143 246.394 24.4733 246.653 24.4733 247.136V249.18H25.3273V247.22C25.3273 246.653 25.6423 246.387 26.0553 246.387C26.4613 246.387 26.7273 246.646 26.7273 247.143V249.18H27.5743V246.919C27.5743 246.121 27.1123 245.617 26.2723 245.617C25.7473 245.617 25.3413 245.876 25.1663 246.275C24.9843 245.876 24.6203 245.617 24.0953 245.617C23.5983 245.617 23.2483 245.841 23.0733 246.128L23.0033 245.722H22.2193V249.18H23.0733ZM29.9597 249.271C30.8627 249.271 31.4927 248.816 31.6397 248.06H30.8487C30.7507 248.389 30.4427 248.571 29.9737 248.571C29.4067 248.571 29.0847 248.263 29.0217 247.654L31.6257 247.647V247.388C31.6257 246.31 30.9677 245.617 29.9317 245.617C28.9167 245.617 28.2097 246.366 28.2097 247.451C28.2097 248.522 28.9307 249.271 29.9597 249.271ZM29.9387 246.317C30.4497 246.317 30.7787 246.632 30.7787 247.108H29.0427C29.1267 246.59 29.4347 246.317 29.9387 246.317ZM33.1632 249.18V247.318C33.1632 246.758 33.4852 246.394 34.0102 246.394C34.4512 246.394 34.7382 246.674 34.7382 247.255V249.18H35.5922V247.052C35.5922 246.156 35.1442 245.617 34.2762 245.617C33.8072 245.617 33.3872 245.82 33.1702 246.17L33.1002 245.722H32.3092V249.18H33.1632ZM37.6072 249.18V246.436H38.2792V245.722H37.6072V244.644H36.7532V245.722H36.0882V246.436H36.7532V249.18H37.6072ZM38.5441 248.13C38.5441 248.809 39.0901 249.271 39.9511 249.271C40.8051 249.271 41.4001 248.837 41.4001 248.137C41.4001 247.605 41.1061 247.339 40.5251 247.206L39.9021 247.059C39.6081 246.989 39.4541 246.863 39.4541 246.667C39.4541 246.408 39.6501 246.254 39.9861 246.254C40.3151 246.254 40.5111 246.443 40.5181 246.737H41.3301C41.3231 246.065 40.7981 245.617 40.0211 245.617C39.2231 245.617 38.6491 246.023 38.6491 246.702C38.6491 247.255 38.9501 247.549 39.5731 247.689L40.1961 247.836C40.5041 247.906 40.5951 248.032 40.5951 248.207C40.5951 248.459 40.3781 248.62 39.9791 248.62C39.5871 248.62 39.3631 248.431 39.3561 248.13H38.5441Z" fill="#1E1E1E"/>
<rect x="10.25" y="255.43" width="23" height="23" rx="0.75" stroke="#1E1E1E" stroke-width="0.5"/>
<rect x="45.25" y="255.43" width="23" height="23" rx="0.75" stroke="#1E1E1E" stroke-width="0.5"/>
<rect x="80.25" y="255.43" width="23" height="23" rx="0.75" stroke="#1E1E1E" stroke-width="0.5"/>
<rect x="115.25" y="255.43" width="23" height="23" rx="0.75" stroke="#1E1E1E" stroke-width="0.5"/>
<rect x="150.25" y="255.43" width="23" height="23" rx="0.75" stroke="#1E1E1E" stroke-width="0.5"/>
<path d="M17.5812 271.345L17.8272 271.126L17.5932 270.865C17.7642 270.667 17.8602 270.397 17.8602 270.082C17.8602 269.413 17.4222 268.948 16.7952 268.948C16.1682 268.948 15.7332 269.416 15.7332 270.082C15.7332 270.751 16.1652 271.216 16.7922 271.216C16.9992 271.216 17.1852 271.165 17.3412 271.075L17.5812 271.345ZM17.4552 270.082C17.4552 270.274 17.4102 270.439 17.3292 270.565L17.0382 270.238L16.7952 270.457L17.0862 270.784C16.9992 270.826 16.9032 270.847 16.7952 270.847C16.3932 270.847 16.1352 270.55 16.1352 270.082C16.1352 269.614 16.3932 269.317 16.7952 269.317C17.1972 269.317 17.4552 269.614 17.4552 270.082ZM18.6016 271.18V270.361H19.0726L19.4446 271.18H19.8646L19.4476 270.28C19.7056 270.175 19.8436 269.965 19.8436 269.671C19.8436 269.239 19.5526 268.987 19.0546 268.987H18.2176V271.18H18.6016ZM18.6016 269.329H19.0546C19.2976 269.329 19.4416 269.452 19.4416 269.671C19.4416 269.893 19.2976 270.022 19.0546 270.022H18.6016V269.329ZM21.963 271.216C22.482 271.216 22.884 270.91 22.968 270.448H22.569C22.497 270.691 22.269 270.847 21.972 270.847C21.57 270.847 21.312 270.547 21.312 270.082C21.312 269.614 21.567 269.32 21.972 269.32C22.263 269.32 22.482 269.47 22.557 269.725H22.962C22.887 269.254 22.5 268.951 21.981 268.951C21.339 268.951 20.91 269.404 20.91 270.085C20.91 270.772 21.324 271.216 21.963 271.216ZM23.1713 270.436C23.1713 270.898 23.5043 271.216 23.9633 271.216C24.4223 271.216 24.7553 270.898 24.7553 270.436C24.7553 269.974 24.4223 269.656 23.9633 269.656C23.5043 269.656 23.1713 269.974 23.1713 270.436ZM23.5373 270.436C23.5373 270.166 23.7113 269.983 23.9633 269.983C24.2153 269.983 24.3893 270.166 24.3893 270.436C24.3893 270.706 24.2153 270.889 23.9633 270.889C23.7113 270.889 23.5373 270.706 23.5373 270.436ZM25.6544 271.219C25.8794 271.219 26.0714 271.12 26.1614 270.949L26.1854 271.18H26.5214V268.948H26.1584V269.887C26.0654 269.74 25.8824 269.653 25.6754 269.653C25.2284 269.653 24.9584 269.983 24.9584 270.445C24.9584 270.904 25.2254 271.219 25.6544 271.219ZM25.7354 270.883C25.4804 270.883 25.3244 270.697 25.3244 270.433C25.3244 270.169 25.4804 269.98 25.7354 269.98C25.9904 269.98 26.1554 270.166 26.1554 270.433C26.1554 270.7 25.9904 270.883 25.7354 270.883ZM27.5659 271.219C27.9529 271.219 28.2229 271.024 28.2859 270.7H27.9469C27.9049 270.841 27.7729 270.919 27.5719 270.919C27.3289 270.919 27.1909 270.787 27.1639 270.526L28.2799 270.523V270.412C28.2799 269.95 27.9979 269.653 27.5539 269.653C27.1189 269.653 26.8159 269.974 26.8159 270.439C26.8159 270.898 27.1249 271.219 27.5659 271.219ZM27.5569 269.953C27.7759 269.953 27.9169 270.088 27.9169 270.292H27.1729C27.2089 270.07 27.3409 269.953 27.5569 269.953ZM18.6995 273.599C18.6995 273.935 18.8945 274.148 19.2665 274.229L19.6145 274.307C19.7945 274.346 19.8695 274.433 19.8695 274.58C19.8695 274.763 19.7075 274.874 19.4525 274.874C19.2065 274.874 19.0565 274.763 19.0535 274.577H18.6695C18.6785 274.97 18.9845 275.219 19.4525 275.219C19.9355 275.219 20.2535 274.955 20.2535 274.547C20.2535 274.22 20.0705 274.028 19.6955 273.947L19.3505 273.872C19.1675 273.83 19.0835 273.743 19.0835 273.587C19.0835 273.404 19.2365 273.29 19.4735 273.29C19.6895 273.29 19.8245 273.401 19.8335 273.59H20.2175C20.2055 273.194 19.9235 272.948 19.4795 272.948C19.0175 272.948 18.6995 273.215 18.6995 273.599ZM20.4599 274.436C20.4599 274.907 20.7539 275.219 21.2039 275.219C21.5909 275.219 21.8789 274.982 21.9239 274.637H21.5549C21.5159 274.799 21.3869 274.889 21.2039 274.889C20.9699 274.889 20.8259 274.715 20.8259 274.436C20.8259 274.157 20.9819 273.98 21.2159 273.98C21.3899 273.98 21.5129 274.067 21.5549 274.235H21.9209C21.8819 273.878 21.6059 273.653 21.2009 273.653C20.7629 273.653 20.4599 273.977 20.4599 274.436ZM22.6373 275.219C22.8683 275.219 23.0693 275.114 23.1323 274.961L23.1593 275.18H23.4803V274.28C23.4803 273.869 23.2343 273.653 22.8353 273.653C22.4333 273.653 22.1693 273.863 22.1693 274.184H22.4813C22.4813 274.028 22.6013 273.938 22.8173 273.938C23.0033 273.938 23.1233 274.019 23.1233 274.22V274.253L22.6793 274.286C22.3283 274.313 22.1303 274.484 22.1303 274.757C22.1303 275.036 22.3223 275.219 22.6373 275.219ZM22.7573 274.943C22.5923 274.943 22.5023 274.877 22.5023 274.742C22.5023 274.622 22.5893 274.547 22.8173 274.526L23.1263 274.502V274.58C23.1263 274.808 22.9823 274.943 22.7573 274.943ZM24.2059 275.18V274.382C24.2059 274.142 24.3439 273.986 24.5689 273.986C24.7579 273.986 24.8809 274.106 24.8809 274.355V275.18H25.2469V274.268C25.2469 273.884 25.0549 273.653 24.6829 273.653C24.4819 273.653 24.3019 273.74 24.2089 273.89L24.1789 273.698H23.8399V275.18H24.2059Z" fill="#1E1E1E"/>
<path d="M53.1253 269.599C53.1253 269.935 53.3203 270.148 53.6923 270.229L54.0403 270.307C54.2203 270.346 54.2953 270.433 54.2953 270.58C54.2953 270.763 54.1333 270.874 53.8783 270.874C53.6323 270.874 53.4823 270.763 53.4793 270.577H53.0953C53.1043 270.97 53.4103 271.219 53.8783 271.219C54.3613 271.219 54.6793 270.955 54.6793 270.547C54.6793 270.22 54.4963 270.028 54.1213 269.947L53.7763 269.872C53.5933 269.83 53.5093 269.743 53.5093 269.587C53.5093 269.404 53.6623 269.29 53.8993 269.29C54.1153 269.29 54.2503 269.401 54.2593 269.59H54.6433C54.6313 269.194 54.3493 268.948 53.9053 268.948C53.4433 268.948 53.1253 269.215 53.1253 269.599ZM55.3387 271.18V270.37C55.3387 270.148 55.4737 269.986 55.7047 269.986C55.8907 269.986 56.0137 270.106 56.0137 270.355V271.18H56.3797V270.268C56.3797 269.884 56.1877 269.653 55.8217 269.653C55.6087 269.653 55.4347 269.746 55.3417 269.89V268.948H54.9727V271.18H55.3387ZM57.1803 271.219C57.4113 271.219 57.6123 271.114 57.6753 270.961L57.7023 271.18H58.0233V270.28C58.0233 269.869 57.7773 269.653 57.3783 269.653C56.9763 269.653 56.7123 269.863 56.7123 270.184H57.0243C57.0243 270.028 57.1443 269.938 57.3603 269.938C57.5463 269.938 57.6663 270.019 57.6663 270.22V270.253L57.2223 270.286C56.8713 270.313 56.6733 270.484 56.6733 270.757C56.6733 271.036 56.8653 271.219 57.1803 271.219ZM57.3003 270.943C57.1353 270.943 57.0453 270.877 57.0453 270.742C57.0453 270.622 57.1323 270.547 57.3603 270.526L57.6693 270.502V270.58C57.6693 270.808 57.5253 270.943 57.3003 270.943ZM59.3128 269.692C59.2528 269.677 59.2018 269.671 59.1508 269.671C58.9528 269.671 58.8118 269.77 58.7488 269.917L58.7278 269.701H58.3828V271.18H58.7488V270.46C58.7488 270.172 58.9138 270.031 59.1778 270.031H59.3128V269.692ZM60.1738 271.219C60.5608 271.219 60.8308 271.024 60.8938 270.7H60.5548C60.5128 270.841 60.3808 270.919 60.1798 270.919C59.9368 270.919 59.7988 270.787 59.7718 270.526L60.8878 270.523V270.412C60.8878 269.95 60.6058 269.653 60.1618 269.653C59.7268 269.653 59.4238 269.974 59.4238 270.439C59.4238 270.898 59.7328 271.219 60.1738 271.219ZM60.1648 269.953C60.3838 269.953 60.5248 270.088 60.5248 270.292H59.7808C59.8168 270.07 59.9488 269.953 60.1648 269.953ZM52.1334 274.424C52.5714 274.424 52.8594 274.127 52.8594 273.704C52.8594 273.275 52.5744 272.987 52.1334 272.987H51.2664V275.18H51.6504V274.424H52.1334ZM52.0584 273.329C52.3134 273.329 52.4574 273.461 52.4574 273.701C52.4574 273.941 52.3164 274.082 52.0524 274.082H51.6504V273.329H52.0584ZM52.9939 274.73C52.9939 275.021 53.2279 275.219 53.5969 275.219C53.9629 275.219 54.2179 275.033 54.2179 274.733C54.2179 274.505 54.0919 274.391 53.8429 274.334L53.5759 274.271C53.4499 274.241 53.3839 274.187 53.3839 274.103C53.3839 273.992 53.4679 273.926 53.6119 273.926C53.7529 273.926 53.8369 274.007 53.8399 274.133H54.1879C54.1849 273.845 53.9599 273.653 53.6269 273.653C53.2849 273.653 53.0389 273.827 53.0389 274.118C53.0389 274.355 53.1679 274.481 53.4349 274.541L53.7019 274.604C53.8339 274.634 53.8729 274.688 53.8729 274.763C53.8729 274.871 53.7799 274.94 53.6089 274.94C53.4409 274.94 53.3449 274.859 53.3419 274.73H52.9939ZM54.3383 275.867C54.4193 275.888 54.5093 275.9 54.6113 275.9C54.8543 275.9 55.0103 275.786 55.1213 275.51L55.8473 273.698H55.4693L55.0673 274.778L54.6863 273.698H54.2993L54.8963 275.243L54.8543 275.354C54.7913 275.528 54.7013 275.561 54.5573 275.561H54.3383V275.867ZM56.4212 275.18V274.34C56.4212 274.1 56.5622 273.986 56.7362 273.986C56.9102 273.986 57.0212 274.097 57.0212 274.304V275.18H57.3872V274.34C57.3872 274.097 57.5222 273.983 57.6992 273.983C57.8732 273.983 57.9872 274.094 57.9872 274.307V275.18H58.3502V274.211C58.3502 273.869 58.1522 273.653 57.7922 273.653C57.5672 273.653 57.3932 273.764 57.3182 273.935C57.2402 273.764 57.0842 273.653 56.8592 273.653C56.6462 273.653 56.4962 273.749 56.4212 273.872L56.3912 273.698H56.0552V275.18H56.4212ZM59.3725 275.219C59.7595 275.219 60.0295 275.024 60.0925 274.7H59.7535C59.7115 274.841 59.5795 274.919 59.3785 274.919C59.1355 274.919 58.9975 274.787 58.9705 274.526L60.0865 274.523V274.412C60.0865 273.95 59.8045 273.653 59.3605 273.653C58.9255 273.653 58.6225 273.974 58.6225 274.439C58.6225 274.898 58.9315 275.219 59.3725 275.219ZM59.3635 273.953C59.5825 273.953 59.7235 274.088 59.7235 274.292H58.9795C59.0155 274.07 59.1475 273.953 59.3635 273.953ZM60.7454 275.18V274.382C60.7454 274.142 60.8834 273.986 61.1084 273.986C61.2974 273.986 61.4204 274.106 61.4204 274.355V275.18H61.7864V274.268C61.7864 273.884 61.5944 273.653 61.2224 273.653C61.0214 273.653 60.8414 273.74 60.7484 273.89L60.7184 273.698H60.3794V275.18H60.7454ZM62.65 275.18V274.004H62.938V273.698H62.65V273.236H62.284V273.698H61.999V274.004H62.284V275.18H62.65Z" fill="#1E1E1E"/>
<path d="M87.4617 269.599C87.4617 269.935 87.6567 270.148 88.0287 270.229L88.3767 270.307C88.5567 270.346 88.6317 270.433 88.6317 270.58C88.6317 270.763 88.4697 270.874 88.2147 270.874C87.9687 270.874 87.8187 270.763 87.8157 270.577H87.4317C87.4407 270.97 87.7467 271.219 88.2147 271.219C88.6977 271.219 89.0157 270.955 89.0157 270.547C89.0157 270.22 88.8327 270.028 88.4577 269.947L88.1127 269.872C87.9297 269.83 87.8457 269.743 87.8457 269.587C87.8457 269.404 87.9987 269.29 88.2357 269.29C88.4517 269.29 88.5867 269.401 88.5957 269.59H88.9797C88.9677 269.194 88.6857 268.948 88.2417 268.948C87.7797 268.948 87.4617 269.215 87.4617 269.599ZM89.9721 271.219C90.3591 271.219 90.6291 271.024 90.6921 270.7H90.3531C90.3111 270.841 90.1791 270.919 89.9781 270.919C89.7351 270.919 89.5971 270.787 89.5701 270.526L90.6861 270.523V270.412C90.6861 269.95 90.4041 269.653 89.9601 269.653C89.5251 269.653 89.2221 269.974 89.2221 270.439C89.2221 270.898 89.5311 271.219 89.9721 271.219ZM89.9631 269.953C90.1821 269.953 90.3231 270.088 90.3231 270.292H89.5791C89.6151 270.07 89.7471 269.953 89.9631 269.953ZM91.4684 271.18V270.004H91.7564V269.698H91.4684V269.236H91.1024V269.698H90.8174V270.004H91.1024V271.18H91.4684ZM92.8315 270.379C92.8315 270.895 93.1675 271.216 93.6985 271.216C94.2325 271.216 94.5685 270.892 94.5685 270.379V268.987H94.1845V270.355C94.1845 270.667 94.0105 270.844 93.6985 270.844C93.3865 270.844 93.2155 270.67 93.2155 270.355V268.987H92.8315V270.379ZM94.9869 271.867H95.3529V270.982C95.4459 271.132 95.6379 271.219 95.8599 271.219C96.3009 271.219 96.5529 270.883 96.5529 270.421C96.5529 269.956 96.2769 269.653 95.8599 269.653C95.6349 269.653 95.4399 269.752 95.3499 269.923L95.3259 269.698H94.9869V271.867ZM95.3559 270.439C95.3559 270.172 95.5209 269.986 95.7729 269.986C96.0309 269.986 96.1839 270.175 96.1839 270.439C96.1839 270.703 96.0309 270.889 95.7729 270.889C95.5209 270.889 95.3559 270.706 95.3559 270.439ZM88.5445 272.987H88.1605V275.18H89.4625V274.826H88.5445V272.987ZM89.9037 273.401C90.0237 273.401 90.1227 273.302 90.1227 273.179C90.1227 273.056 90.0237 272.96 89.9037 272.96C89.7777 272.96 89.6787 273.056 89.6787 273.179C89.6787 273.302 89.7777 273.401 89.9037 273.401ZM89.7207 275.18H90.0867V273.698H89.7207V275.18ZM90.8309 275.18V274.34C90.8309 274.1 90.9719 273.986 91.1459 273.986C91.3199 273.986 91.4309 274.097 91.4309 274.304V275.18H91.7969V274.34C91.7969 274.097 91.9319 273.983 92.1089 273.983C92.2829 273.983 92.3969 274.094 92.3969 274.307V275.18H92.7599V274.211C92.7599 273.869 92.5619 273.653 92.2019 273.653C91.9769 273.653 91.8029 273.764 91.7279 273.935C91.6499 273.764 91.4939 273.653 91.2689 273.653C91.0559 273.653 90.9059 273.749 90.8309 273.872L90.8009 273.698H90.4649V275.18H90.8309ZM93.3022 273.401C93.4222 273.401 93.5212 273.302 93.5212 273.179C93.5212 273.056 93.4222 272.96 93.3022 272.96C93.1762 272.96 93.0772 273.056 93.0772 273.179C93.0772 273.302 93.1762 273.401 93.3022 273.401ZM93.1192 275.18H93.4852V273.698H93.1192V275.18ZM94.3673 275.18V274.004H94.6553V273.698H94.3673V273.236H94.0013V273.698H93.7163V274.004H94.0013V275.18H94.3673ZM94.7688 274.73C94.7688 275.021 95.0028 275.219 95.3718 275.219C95.7378 275.219 95.9928 275.033 95.9928 274.733C95.9928 274.505 95.8668 274.391 95.6178 274.334L95.3508 274.271C95.2248 274.241 95.1588 274.187 95.1588 274.103C95.1588 273.992 95.2428 273.926 95.3868 273.926C95.5278 273.926 95.6118 274.007 95.6148 274.133H95.9628C95.9598 273.845 95.7348 273.653 95.4018 273.653C95.0598 273.653 94.8138 273.827 94.8138 274.118C94.8138 274.355 94.9428 274.481 95.2098 274.541L95.4768 274.604C95.6088 274.634 95.6478 274.688 95.6478 274.763C95.6478 274.871 95.5548 274.94 95.3838 274.94C95.2158 274.94 95.1198 274.859 95.1168 274.73H94.7688Z" fill="#1E1E1E"/>
<path d="M119.52 271.18C120.156 271.18 120.594 270.733 120.594 270.088C120.594 269.434 120.147 268.987 119.499 268.987H118.731V271.18H119.52ZM119.463 269.341C119.916 269.341 120.189 269.623 120.189 270.088C120.189 270.544 119.922 270.826 119.484 270.826H119.115V269.341H119.463ZM121.56 271.219C121.947 271.219 122.217 271.024 122.28 270.7H121.941C121.899 270.841 121.767 270.919 121.566 270.919C121.323 270.919 121.185 270.787 121.158 270.526L122.274 270.523V270.412C122.274 269.95 121.992 269.653 121.548 269.653C121.113 269.653 120.81 269.974 120.81 270.439C120.81 270.898 121.119 271.219 121.56 271.219ZM121.551 269.953C121.77 269.953 121.911 270.088 121.911 270.292H121.167C121.203 270.07 121.335 269.953 121.551 269.953ZM122.936 271.18V268.948H122.573V271.18H122.936ZM123.503 269.401C123.623 269.401 123.722 269.302 123.722 269.179C123.722 269.056 123.623 268.96 123.503 268.96C123.377 268.96 123.278 269.056 123.278 269.179C123.278 269.302 123.377 269.401 123.503 269.401ZM123.32 271.18H123.686V269.698H123.32V271.18ZM124.484 271.18H124.844L125.462 269.698H125.084L124.814 270.379C124.751 270.541 124.697 270.697 124.676 270.79C124.658 270.709 124.607 270.556 124.544 270.379L124.286 269.698H123.896L124.484 271.18ZM126.263 271.219C126.65 271.219 126.92 271.024 126.983 270.7H126.644C126.602 270.841 126.47 270.919 126.269 270.919C126.026 270.919 125.888 270.787 125.861 270.526L126.977 270.523V270.412C126.977 269.95 126.695 269.653 126.251 269.653C125.816 269.653 125.513 269.974 125.513 270.439C125.513 270.898 125.822 271.219 126.263 271.219ZM126.254 269.953C126.473 269.953 126.614 270.088 126.614 270.292H125.87C125.906 270.07 126.038 269.953 126.254 269.953ZM128.2 269.692C128.14 269.677 128.089 269.671 128.038 269.671C127.84 269.671 127.699 269.77 127.636 269.917L127.615 269.701H127.27V271.18H127.636V270.46C127.636 270.172 127.801 270.031 128.065 270.031H128.2V269.692ZM128.83 271.219C129.061 271.219 129.262 271.114 129.325 270.961L129.352 271.18H129.673V270.28C129.673 269.869 129.427 269.653 129.028 269.653C128.626 269.653 128.362 269.863 128.362 270.184H128.674C128.674 270.028 128.794 269.938 129.01 269.938C129.196 269.938 129.316 270.019 129.316 270.22V270.253L128.872 270.286C128.521 270.313 128.323 270.484 128.323 270.757C128.323 271.036 128.515 271.219 128.83 271.219ZM128.95 270.943C128.785 270.943 128.695 270.877 128.695 270.742C128.695 270.622 128.782 270.547 129.01 270.526L129.319 270.502V270.58C129.319 270.808 129.175 270.943 128.95 270.943ZM130.371 271.18L130.395 270.949C130.482 271.12 130.671 271.219 130.893 271.219C131.319 271.219 131.598 270.904 131.598 270.448C131.598 269.98 131.34 269.65 130.917 269.65C130.692 269.65 130.494 269.749 130.398 269.914V268.948H130.032V271.18H130.371ZM130.401 270.433C130.401 270.166 130.566 269.98 130.818 269.98C131.076 269.98 131.229 270.169 131.229 270.433C131.229 270.697 131.076 270.883 130.818 270.883C130.566 270.883 130.401 270.7 130.401 270.433ZM132.259 271.18V268.948H131.896V271.18H132.259ZM133.306 271.219C133.693 271.219 133.963 271.024 134.026 270.7H133.687C133.645 270.841 133.513 270.919 133.312 270.919C133.069 270.919 132.931 270.787 132.904 270.526L134.02 270.523V270.412C134.02 269.95 133.738 269.653 133.294 269.653C132.859 269.653 132.556 269.974 132.556 270.439C132.556 270.898 132.865 271.219 133.306 271.219ZM133.297 269.953C133.516 269.953 133.657 270.088 133.657 270.292H132.913C132.949 270.07 133.081 269.953 133.297 269.953ZM134.199 270.73C134.199 271.021 134.433 271.219 134.802 271.219C135.168 271.219 135.423 271.033 135.423 270.733C135.423 270.505 135.297 270.391 135.048 270.334L134.781 270.271C134.655 270.241 134.589 270.187 134.589 270.103C134.589 269.992 134.673 269.926 134.817 269.926C134.958 269.926 135.042 270.007 135.045 270.133H135.393C135.39 269.845 135.165 269.653 134.832 269.653C134.49 269.653 134.244 269.827 134.244 270.118C134.244 270.355 134.373 270.481 134.64 270.541L134.907 270.604C135.039 270.634 135.078 270.688 135.078 270.763C135.078 270.871 134.985 270.94 134.814 270.94C134.646 270.94 134.55 270.859 134.547 270.73H134.199ZM120.517 275.219C120.748 275.219 120.949 275.114 121.012 274.961L121.039 275.18H121.36V274.28C121.36 273.869 121.114 273.653 120.715 273.653C120.313 273.653 120.049 273.863 120.049 274.184H120.361C120.361 274.028 120.481 273.938 120.697 273.938C120.883 273.938 121.003 274.019 121.003 274.22V274.253L120.559 274.286C120.208 274.313 120.01 274.484 120.01 274.757C120.01 275.036 120.202 275.219 120.517 275.219ZM120.637 274.943C120.472 274.943 120.382 274.877 120.382 274.742C120.382 274.622 120.469 274.547 120.697 274.526L121.006 274.502V274.58C121.006 274.808 120.862 274.943 120.637 274.943ZM122.085 275.18V274.382C122.085 274.142 122.223 273.986 122.448 273.986C122.637 273.986 122.76 274.106 122.76 274.355V275.18H123.126V274.268C123.126 273.884 122.934 273.653 122.562 273.653C122.361 273.653 122.181 273.74 122.088 273.89L122.058 273.698H121.719V275.18H122.085ZM124.095 275.219C124.32 275.219 124.512 275.12 124.602 274.949L124.626 275.18H124.962V272.948H124.599V273.887C124.506 273.74 124.323 273.653 124.116 273.653C123.669 273.653 123.399 273.983 123.399 274.445C123.399 274.904 123.666 275.219 124.095 275.219ZM124.176 274.883C123.921 274.883 123.765 274.697 123.765 274.433C123.765 274.169 123.921 273.98 124.176 273.98C124.431 273.98 124.596 274.166 124.596 274.433C124.596 274.7 124.431 274.883 124.176 274.883ZM127.073 274.424C127.511 274.424 127.799 274.127 127.799 273.704C127.799 273.275 127.514 272.987 127.073 272.987H126.206V275.18H126.59V274.424H127.073ZM126.998 273.329C127.253 273.329 127.397 273.461 127.397 273.701C127.397 273.941 127.256 274.082 126.992 274.082H126.59V273.329H126.998ZM128.45 275.219C128.681 275.219 128.882 275.114 128.945 274.961L128.972 275.18H129.293V274.28C129.293 273.869 129.047 273.653 128.648 273.653C128.246 273.653 127.982 273.863 127.982 274.184H128.294C128.294 274.028 128.414 273.938 128.63 273.938C128.816 273.938 128.936 274.019 128.936 274.22V274.253L128.492 274.286C128.141 274.313 127.943 274.484 127.943 274.757C127.943 275.036 128.135 275.219 128.45 275.219ZM128.57 274.943C128.405 274.943 128.315 274.877 128.315 274.742C128.315 274.622 128.402 274.547 128.63 274.526L128.939 274.502V274.58C128.939 274.808 128.795 274.943 128.57 274.943ZM129.566 274.436C129.566 274.907 129.86 275.219 130.31 275.219C130.697 275.219 130.985 274.982 131.03 274.637H130.661C130.622 274.799 130.493 274.889 130.31 274.889C130.076 274.889 129.932 274.715 129.932 274.436C129.932 274.157 130.088 273.98 130.322 273.98C130.496 273.98 130.619 274.067 130.661 274.235H131.027C130.988 273.878 130.712 273.653 130.307 273.653C129.869 273.653 129.566 273.977 129.566 274.436ZM131.671 275.18V274.781L131.887 274.556L132.274 275.18H132.694L132.142 274.286L132.706 273.698H132.247L131.671 274.319V272.948H131.308V275.18H131.671ZM132.8 274.73C132.8 275.021 133.034 275.219 133.403 275.219C133.769 275.219 134.024 275.033 134.024 274.733C134.024 274.505 133.898 274.391 133.649 274.334L133.382 274.271C133.256 274.241 133.19 274.187 133.19 274.103C133.19 273.992 133.274 273.926 133.418 273.926C133.559 273.926 133.643 274.007 133.646 274.133H133.994C133.991 273.845 133.766 273.653 133.433 273.653C133.091 273.653 132.845 273.827 132.845 274.118C132.845 274.355 132.974 274.481 133.241 274.541L133.508 274.604C133.64 274.634 133.679 274.688 133.679 274.763C133.679 274.871 133.586 274.94 133.415 274.94C133.247 274.94 133.151 274.859 133.148 274.73H132.8Z" fill="#1E1E1E"/>
<path d="M157.581 271.345L157.827 271.126L157.593 270.865C157.764 270.667 157.86 270.397 157.86 270.082C157.86 269.413 157.422 268.948 156.795 268.948C156.168 268.948 155.733 269.416 155.733 270.082C155.733 270.751 156.165 271.216 156.792 271.216C156.999 271.216 157.185 271.165 157.341 271.075L157.581 271.345ZM157.455 270.082C157.455 270.274 157.41 270.439 157.329 270.565L157.038 270.238L156.795 270.457L157.086 270.784C156.999 270.826 156.903 270.847 156.795 270.847C156.393 270.847 156.135 270.55 156.135 270.082C156.135 269.614 156.393 269.317 156.795 269.317C157.197 269.317 157.455 269.614 157.455 270.082ZM158.602 271.18V270.361H159.073L159.445 271.18H159.865L159.448 270.28C159.706 270.175 159.844 269.965 159.844 269.671C159.844 269.239 159.553 268.987 159.055 268.987H158.218V271.18H158.602ZM158.602 269.329H159.055C159.298 269.329 159.442 269.452 159.442 269.671C159.442 269.893 159.298 270.022 159.055 270.022H158.602V269.329ZM161.963 271.216C162.482 271.216 162.884 270.91 162.968 270.448H162.569C162.497 270.691 162.269 270.847 161.972 270.847C161.57 270.847 161.312 270.547 161.312 270.082C161.312 269.614 161.567 269.32 161.972 269.32C162.263 269.32 162.482 269.47 162.557 269.725H162.962C162.887 269.254 162.5 268.951 161.981 268.951C161.339 268.951 160.91 269.404 160.91 270.085C160.91 270.772 161.324 271.216 161.963 271.216ZM163.171 270.436C163.171 270.898 163.504 271.216 163.963 271.216C164.422 271.216 164.755 270.898 164.755 270.436C164.755 269.974 164.422 269.656 163.963 269.656C163.504 269.656 163.171 269.974 163.171 270.436ZM163.537 270.436C163.537 270.166 163.711 269.983 163.963 269.983C164.215 269.983 164.389 270.166 164.389 270.436C164.389 270.706 164.215 270.889 163.963 270.889C163.711 270.889 163.537 270.706 163.537 270.436ZM165.654 271.219C165.879 271.219 166.071 271.12 166.161 270.949L166.185 271.18H166.521V268.948H166.158V269.887C166.065 269.74 165.882 269.653 165.675 269.653C165.228 269.653 164.958 269.983 164.958 270.445C164.958 270.904 165.225 271.219 165.654 271.219ZM165.735 270.883C165.48 270.883 165.324 270.697 165.324 270.433C165.324 270.169 165.48 269.98 165.735 269.98C165.99 269.98 166.155 270.166 166.155 270.433C166.155 270.7 165.99 270.883 165.735 270.883ZM167.566 271.219C167.953 271.219 168.223 271.024 168.286 270.7H167.947C167.905 270.841 167.773 270.919 167.572 270.919C167.329 270.919 167.191 270.787 167.164 270.526L168.28 270.523V270.412C168.28 269.95 167.998 269.653 167.554 269.653C167.119 269.653 166.816 269.974 166.816 270.439C166.816 270.898 167.125 271.219 167.566 271.219ZM167.557 269.953C167.776 269.953 167.917 270.088 167.917 270.292H167.173C167.209 270.07 167.341 269.953 167.557 269.953ZM158.7 273.599C158.7 273.935 158.895 274.148 159.267 274.229L159.615 274.307C159.795 274.346 159.87 274.433 159.87 274.58C159.87 274.763 159.708 274.874 159.453 274.874C159.207 274.874 159.057 274.763 159.054 274.577H158.67C158.679 274.97 158.985 275.219 159.453 275.219C159.936 275.219 160.254 274.955 160.254 274.547C160.254 274.22 160.071 274.028 159.696 273.947L159.351 273.872C159.168 273.83 159.084 273.743 159.084 273.587C159.084 273.404 159.237 273.29 159.474 273.29C159.69 273.29 159.825 273.401 159.834 273.59H160.218C160.206 273.194 159.924 272.948 159.48 272.948C159.018 272.948 158.7 273.215 158.7 273.599ZM160.46 274.436C160.46 274.907 160.754 275.219 161.204 275.219C161.591 275.219 161.879 274.982 161.924 274.637H161.555C161.516 274.799 161.387 274.889 161.204 274.889C160.97 274.889 160.826 274.715 160.826 274.436C160.826 274.157 160.982 273.98 161.216 273.98C161.39 273.98 161.513 274.067 161.555 274.235H161.921C161.882 273.878 161.606 273.653 161.201 273.653C160.763 273.653 160.46 273.977 160.46 274.436ZM162.637 275.219C162.868 275.219 163.069 275.114 163.132 274.961L163.159 275.18H163.48V274.28C163.48 273.869 163.234 273.653 162.835 273.653C162.433 273.653 162.169 273.863 162.169 274.184H162.481C162.481 274.028 162.601 273.938 162.817 273.938C163.003 273.938 163.123 274.019 163.123 274.22V274.253L162.679 274.286C162.328 274.313 162.13 274.484 162.13 274.757C162.13 275.036 162.322 275.219 162.637 275.219ZM162.757 274.943C162.592 274.943 162.502 274.877 162.502 274.742C162.502 274.622 162.589 274.547 162.817 274.526L163.126 274.502V274.58C163.126 274.808 162.982 274.943 162.757 274.943ZM164.206 275.18V274.382C164.206 274.142 164.344 273.986 164.569 273.986C164.758 273.986 164.881 274.106 164.881 274.355V275.18H165.247V274.268C165.247 273.884 165.055 273.653 164.683 273.653C164.482 273.653 164.302 273.74 164.209 273.89L164.179 273.698H163.84V275.18H164.206Z" fill="#1E1E1E"/>
<circle cx="21.5" cy="261.68" r="4.25" fill="#C0A3BA" stroke="black" stroke-width="0.5"/>
<path d="M22.6396 260.052H23.4538V260.866" stroke="#1E1E1E" stroke-width="0.5" stroke-linecap="round" stroke-linejoin="round"/>
<path d="M20.36 263.309H19.5459V262.495" stroke="#1E1E1E" stroke-width="0.5" stroke-linecap="round" stroke-linejoin="round"/>
<path d="M23.4538 262.495V263.309H22.6396" stroke="#1E1E1E" stroke-width="0.5" stroke-linecap="round" stroke-linejoin="round"/>
<path d="M19.5459 260.866V260.052H20.36" stroke="#1E1E1E" stroke-width="0.5" stroke-linecap="round" stroke-linejoin="round"/>
<path d="M20.5225 260.866V262.495" stroke="#1E1E1E" stroke-width="0.5" stroke-linecap="round" stroke-linejoin="round"/>
<path d="M22.4766 260.866V262.495" stroke="#1E1E1E" stroke-width="0.5" stroke-linecap="round" stroke-linejoin="round"/>
<path d="M21.8262 260.866V262.495" stroke="#1E1E1E" stroke-width="0.5" stroke-linecap="round" stroke-linejoin="round"/>
<path d="M21.1738 260.866V262.495" stroke="#1E1E1E" stroke-width="0.5" stroke-linecap="round" stroke-linejoin="round"/>
<circle cx="56.5" cy="261.68" r="4.25" fill="#FF9393" stroke="black" stroke-width="0.5"/>
<path opacity="0.2" d="M54.625 261.524H55.7344C55.7704 261.524 55.8053 261.536 55.8331 261.559C55.8609 261.582 55.8799 261.614 55.8867 261.649C55.9166 261.789 55.9938 261.915 56.1054 262.006C56.217 262.096 56.3563 262.146 56.5 262.146C56.6437 262.146 56.783 262.096 56.8946 262.006C57.0062 261.915 57.0834 261.789 57.1133 261.649C57.1201 261.614 57.1391 261.582 57.1669 261.559C57.1947 261.536 57.2296 261.524 57.2656 261.524H58.375V260.586C58.375 260.504 58.3421 260.424 58.2835 260.365C58.2249 260.307 58.1454 260.274 58.0625 260.274H54.9375C54.8546 260.274 54.7751 260.307 54.7165 260.365C54.6579 260.424 54.625 260.504 54.625 260.586V261.524Z" fill="black"/>
<path d="M58.0625 260.274H54.9375C54.7649 260.274 54.625 260.414 54.625 260.586V262.774C54.625 262.947 54.7649 263.086 54.9375 263.086H58.0625C58.2351 263.086 58.375 262.947 58.375 262.774V260.586C58.375 260.414 58.2351 260.274 58.0625 260.274Z" stroke="black" stroke-width="0.5" stroke-linecap="round" stroke-linejoin="round"/>
<path d="M54.625 261.524H55.7344C55.7704 261.524 55.8053 261.536 55.8331 261.559C55.8609 261.582 55.8799 261.614 55.8867 261.649C55.9166 261.789 55.9938 261.915 56.1054 262.006C56.217 262.096 56.3563 262.146 56.5 262.146C56.6437 262.146 56.783 262.096 56.8946 262.006C57.0062 261.915 57.0834 261.789 57.1133 261.649C57.1201 261.614 57.1391 261.582 57.1669 261.559C57.1947 261.536 57.2296 261.524 57.2656 261.524H58.375" stroke="black" stroke-width="0.5" stroke-linecap="round" stroke-linejoin="round"/>
<path d="M54.625 260.899H58.375" stroke="black" stroke-width="0.5" stroke-linecap="round" stroke-linejoin="round"/>
<circle cx="91.5" cy="261.68" r="4.25" fill="#EEFFAC" stroke="black" stroke-width="0.5"/>
<path opacity="0.2" d="M90.5625 262.305C90.9077 262.305 91.1875 262.025 91.1875 261.68C91.1875 261.335 90.9077 261.055 90.5625 261.055C90.2173 261.055 89.9375 261.335 89.9375 261.68C89.9375 262.025 90.2173 262.305 90.5625 262.305Z" fill="#1E1E1E"/>
<path d="M92.4375 260.43H90.5625C89.8721 260.43 89.3125 260.99 89.3125 261.68C89.3125 262.371 89.8721 262.93 90.5625 262.93H92.4375C93.1279 262.93 93.6875 262.371 93.6875 261.68C93.6875 260.99 93.1279 260.43 92.4375 260.43Z" stroke="#1E1E1E" stroke-width="0.5" stroke-linecap="round" stroke-linejoin="round"/>
<path d="M90.5625 262.305C90.9077 262.305 91.1875 262.025 91.1875 261.68C91.1875 261.335 90.9077 261.055 90.5625 261.055C90.2173 261.055 89.9375 261.335 89.9375 261.68C89.9375 262.025 90.2173 262.305 90.5625 262.305Z" stroke="#1E1E1E" stroke-width="0.5" stroke-linecap="round" stroke-linejoin="round"/>
<circle cx="126.5" cy="261.68" r="4.25" fill="#FFAA6C" stroke="black" stroke-width="0.5"/>
<path opacity="0.2" d="M126.5 259.649C126.044 259.649 125.607 259.83 125.285 260.152C124.962 260.475 124.781 260.912 124.781 261.368C124.781 262.317 125.875 263.711 126.5 263.711C127.125 263.711 128.219 262.317 128.219 261.368C128.219 260.912 128.038 260.475 127.715 260.152C127.393 259.83 126.956 259.649 126.5 259.649ZM126.188 261.915C126.188 261.956 126.171 261.996 126.142 262.025C126.112 262.054 126.073 262.071 126.031 262.071C125.865 262.071 125.707 262.005 125.589 261.888C125.472 261.771 125.406 261.612 125.406 261.446V261.368C125.406 261.326 125.423 261.286 125.452 261.257C125.481 261.228 125.521 261.211 125.562 261.211C125.728 261.211 125.887 261.277 126.004 261.394C126.122 261.512 126.188 261.671 126.188 261.836V261.915ZM127.594 261.446C127.594 261.612 127.528 261.771 127.411 261.888C127.293 262.005 127.135 262.071 126.969 262.071C126.927 262.071 126.888 262.054 126.858 262.025C126.829 261.996 126.812 261.956 126.812 261.915V261.836C126.812 261.671 126.878 261.512 126.996 261.394C127.113 261.277 127.272 261.211 127.438 261.211C127.479 261.211 127.519 261.228 127.548 261.257C127.577 261.286 127.594 261.326 127.594 261.368V261.446Z" fill="black"/>
<path d="M128.219 261.368C128.219 262.317 127.125 263.711 126.5 263.711C125.875 263.711 124.781 262.317 124.781 261.368C124.781 260.912 124.962 260.475 125.285 260.152C125.607 259.83 126.044 259.649 126.5 259.649C126.956 259.649 127.393 259.83 127.715 260.152C128.038 260.475 128.219 260.912 128.219 261.368V261.368Z" stroke="black" stroke-width="0.5" stroke-linecap="round" stroke-linejoin="round"/>
<path d="M126.031 262.071C125.865 262.071 125.707 262.005 125.589 261.888C125.472 261.771 125.406 261.612 125.406 261.446V261.368C125.406 261.326 125.423 261.286 125.452 261.257C125.481 261.228 125.521 261.211 125.562 261.211C125.728 261.211 125.887 261.277 126.004 261.394C126.122 261.512 126.188 261.671 126.188 261.836V261.915C126.188 261.956 126.171 261.996 126.142 262.025C126.112 262.054 126.073 262.071 126.031 262.071V262.071Z" stroke="black" stroke-width="0.5" stroke-linecap="round" stroke-linejoin="round"/>
<path d="M127.438 261.211C127.479 261.211 127.519 261.228 127.548 261.257C127.577 261.286 127.594 261.326 127.594 261.368V261.446C127.594 261.612 127.528 261.771 127.411 261.888C127.293 262.005 127.135 262.071 126.969 262.071C126.927 262.071 126.888 262.054 126.858 262.025C126.829 261.996 126.812 261.956 126.812 261.915V261.836C126.812 261.671 126.878 261.512 126.996 261.394C127.113 261.277 127.272 261.211 127.438 261.211Z" stroke="black" stroke-width="0.5" stroke-linecap="round" stroke-linejoin="round"/>
<path d="M126.188 262.774H126.812" stroke="black" stroke-width="0.5" stroke-linecap="round" stroke-linejoin="round"/>
<rect x="51.25" y="146.43" width="5.5" height="44.5" rx="2.75" stroke="#1E1E1E" stroke-width="0.5"/>
<rect x="51.25" y="166.918" width="5.5" height="24.0122" rx="2.75" fill="#FFD92C" stroke="#1E1E1E" stroke-width="0.5"/>
<rect x="67.25" y="76.4302" width="5.5" height="114.5" rx="2.75" stroke="#1E1E1E" stroke-width="0.5"/>
<rect x="67.25" y="128.945" width="5.5" height="61.9855" rx="2.75" fill="#E98F8D" stroke="#1E1E1E" stroke-width="0.5"/>
<rect x="82.25" y="105.43" width="5.5" height="85.5" rx="2.75" fill="#9AE4D4" stroke="#1E1E1E" stroke-width="0.5"/>
<rect x="98.25" y="92.4302" width="5.5" height="98.5" rx="2.75" stroke="#1E1E1E" stroke-width="0.5"/>
<rect x="98.25" y="162.988" width="5.5" height="27.942" rx="2.75" fill="#BFBEF7" stroke="#1E1E1E" stroke-width="0.5"/>
<rect x="114.25" y="88.4302" width="5.5" height="102.5" rx="2.75" stroke="#1E1E1E" stroke-width="0.5"/>
<rect x="114.25" y="165.43" width="5.5" height="25.5" rx="2.75" fill="#FFD92C" stroke="#1E1E1E" stroke-width="0.5"/>
<rect x="130.25" y="123.43" width="5.5" height="66.5" rx="2.75" stroke="#1E1E1E" stroke-width="0.5"/>
<rect x="130.25" y="158.43" width="5.5" height="32.5" rx="2.75" fill="#E98F8D" stroke="#1E1E1E" stroke-width="0.5"/>
</g>
<defs>
<clipPath id="clip0_6_1812">
<rect width="160" height="317" fill="white" transform="translate(0 0.180176)"/>
</clipPath>
</defs>
</svg>
