<svg width="160" height="298" viewBox="0 0 160 298" fill="none" xmlns="http://www.w3.org/2000/svg">
<rect x="1" y="1.18018" width="158" height="315" rx="22" fill="white" stroke="#1E1E1E" stroke-width="2"/>
<path opacity="0.35" fill-rule="evenodd" clip-rule="evenodd" d="M136.494 15.1802C135.908 15.1802 135.676 15.2187 135.437 15.3287C135.235 15.4215 135.078 15.5563 134.97 15.73C134.843 15.9357 134.798 16.135 134.798 16.639V18.8864C134.798 19.3904 134.843 19.5897 134.97 19.7954C135.078 19.969 135.235 20.1038 135.437 20.1967C135.676 20.3067 135.908 20.3452 136.494 20.3452H145.305C145.891 20.3452 146.122 20.3067 146.361 20.1967C146.563 20.1038 146.72 19.969 146.828 19.7954C146.956 19.5897 147.001 19.3904 147.001 18.8864V16.639C147.001 16.135 146.956 15.9357 146.828 15.73C146.72 15.5563 146.563 15.4215 146.361 15.3287C146.122 15.2187 145.891 15.1802 145.305 15.1802H136.494Z" stroke="black"/>
<path opacity="0.4" d="M95.873 21.2656V23.265C96.3407 23.0956 96.6447 22.7017 96.6447 22.2653C96.6447 21.8289 96.3407 21.435 95.873 21.2656Z" fill="black"/>
<path d="M136.662 16.1802H145.135C145.481 16.1802 145.606 16.2111 145.732 16.2692C145.858 16.3273 145.957 16.4125 146.025 16.5211C146.092 16.6297 146.128 16.7375 146.128 17.0345V18.9913C146.128 19.2884 146.092 19.3961 146.025 19.5047C145.957 19.6133 145.858 19.6986 145.732 19.7566C145.606 19.8147 145.481 19.8457 145.135 19.8457H136.662C136.317 19.8457 136.192 19.8147 136.065 19.7566C135.939 19.6986 135.84 19.6133 135.772 19.5047C135.705 19.3961 135.669 19.2884 135.669 18.9913V17.0345C135.669 16.7375 135.705 16.6297 135.772 16.5211C135.84 16.4125 135.939 16.3273 136.065 16.2692C136.192 16.2111 136.317 16.1802 136.662 16.1802Z" fill="black"/>
<path d="M125.341 16.3224C126.635 16.3225 127.878 16.7495 128.815 17.5153C128.886 17.5744 128.999 17.5737 129.068 17.5136L129.743 16.9285C129.778 16.898 129.798 16.8568 129.798 16.8138C129.797 16.7709 129.777 16.7299 129.741 16.6998C127.282 14.6736 123.401 14.6736 120.941 16.6998C120.905 16.7298 120.885 16.7709 120.885 16.8138C120.884 16.8567 120.904 16.898 120.939 16.9285L121.614 17.5136C121.683 17.5738 121.796 17.5745 121.867 17.5153C122.804 16.7495 124.048 16.3224 125.341 16.3224ZM125.341 18.2262C126.052 18.2262 126.737 18.4531 127.264 18.863C127.335 18.9212 127.447 18.9199 127.517 18.8602L128.19 18.275C128.226 18.2443 128.246 18.2027 128.245 18.1594C128.245 18.1162 128.224 18.0749 128.188 18.0448C126.584 16.7626 124.1 16.7626 122.496 18.0448C122.46 18.0749 122.44 18.1162 122.439 18.1595C122.439 18.2027 122.458 18.2444 122.494 18.275L123.168 18.8602C123.237 18.9199 123.349 18.9212 123.42 18.863C123.947 18.4534 124.631 18.2265 125.341 18.2262ZM126.636 19.6227C126.672 19.5923 126.692 19.5505 126.691 19.5071C126.69 19.4637 126.668 19.4226 126.631 19.3935C125.887 18.8524 124.796 18.8524 124.052 19.3935C124.014 19.4226 123.993 19.4637 123.991 19.5071C123.99 19.5505 124.01 19.5923 124.046 19.6227L125.212 20.6337C125.246 20.6635 125.293 20.6802 125.341 20.6802C125.39 20.6802 125.437 20.6635 125.471 20.6337L126.636 19.6227Z" fill="black"/>
<path d="M108.581 18.5146H109.163C109.484 18.5146 109.744 18.7385 109.744 19.0147V20.015C109.744 20.2912 109.484 20.5152 109.163 20.5152H108.581C108.26 20.5152 108 20.2912 108 20.015V19.0147C108 18.7385 108.26 18.5146 108.581 18.5146ZM111.295 17.5142H111.876C112.197 17.5142 112.458 17.7382 112.458 18.0144V20.015C112.458 20.2912 112.197 20.5152 111.876 20.5152H111.295C110.974 20.5152 110.713 20.2912 110.713 20.015V18.0144C110.713 17.7382 110.974 17.5142 111.295 17.5142ZM114.008 16.3472H114.59C114.911 16.3472 115.171 16.5711 115.171 16.8474V20.015C115.171 20.2912 114.911 20.5152 114.59 20.5152H114.008C113.687 20.5152 113.427 20.2912 113.427 20.015V16.8474C113.427 16.5711 113.687 16.3472 114.008 16.3472ZM116.722 15.1802H117.303C117.624 15.1802 117.885 15.4041 117.885 15.6803V20.015C117.885 20.2912 117.624 20.5152 117.303 20.5152H116.722C116.401 20.5152 116.14 20.2912 116.14 20.015V15.6803C116.14 15.4041 116.401 15.1802 116.722 15.1802Z" fill="black"/>
<path d="M15.3011 14.6511C15.5249 14.6528 15.7486 14.6954 15.9723 14.7789C16.196 14.8623 16.4002 15.0008 16.5849 15.1944C16.7695 15.3861 16.9178 15.648 17.0297 15.9801C17.1415 16.3121 17.1974 16.7285 17.1974 17.2292C17.1974 17.7139 17.1513 18.1445 17.0589 18.5209C16.9684 18.8956 16.837 19.2116 16.6648 19.4691C16.4943 19.7265 16.2866 19.9218 16.0415 20.055C15.7983 20.1882 15.5231 20.2547 15.2159 20.2547C14.9105 20.2547 14.638 20.1944 14.3983 20.0736C14.1603 19.9511 13.965 19.7816 13.8123 19.5649C13.6614 19.3465 13.5646 19.0935 13.522 18.8059H14.1719C14.2305 19.0562 14.3468 19.2631 14.5208 19.4264C14.6966 19.588 14.9283 19.6688 15.2159 19.6688C15.6367 19.6688 15.9688 19.485 16.212 19.1175C16.457 18.75 16.5795 18.2306 16.5795 17.5594H16.5369C16.4375 17.7086 16.3194 17.8373 16.1827 17.9456C16.046 18.0539 15.8942 18.1374 15.7273 18.196C15.5604 18.2546 15.3828 18.2839 15.1946 18.2839C14.8821 18.2839 14.5953 18.2066 14.3343 18.0522C14.0751 17.8959 13.8674 17.682 13.7111 17.4103C13.5566 17.1369 13.4794 16.8244 13.4794 16.4728C13.4794 16.139 13.554 15.8336 13.7031 15.5566C13.854 15.2778 14.0653 15.0559 14.337 14.8908C14.6104 14.7256 14.9318 14.6457 15.3011 14.6511ZM15.3011 15.237C15.0774 15.237 14.8759 15.2929 14.6966 15.4048C14.519 15.5149 14.3778 15.664 14.2731 15.8522C14.1701 16.0387 14.1186 16.2455 14.1186 16.4728C14.1186 16.7001 14.1683 16.9069 14.2678 17.0934C14.369 17.278 14.5066 17.4254 14.6806 17.5355C14.8564 17.6438 15.0561 17.6979 15.2798 17.6979C15.4485 17.6979 15.6056 17.6651 15.7512 17.5994C15.8968 17.5319 16.0238 17.4405 16.1321 17.3251C16.2422 17.2079 16.3283 17.0756 16.3904 16.9282C16.4526 16.7791 16.4837 16.6237 16.4837 16.4621C16.4837 16.2491 16.4322 16.0493 16.3292 15.8629C16.228 15.6764 16.0877 15.5255 15.9084 15.4101C15.7308 15.2947 15.5284 15.237 15.3011 15.237ZM18.7136 19.4824C18.5822 19.4824 18.4694 19.4353 18.3753 19.3412C18.2812 19.2471 18.2342 19.1344 18.2342 19.003C18.2342 18.8716 18.2812 18.7588 18.3753 18.6647C18.4694 18.5706 18.5822 18.5236 18.7136 18.5236C18.8449 18.5236 18.9577 18.5706 19.0518 18.6647C19.1459 18.7588 19.193 18.8716 19.193 19.003C19.193 19.09 19.1708 19.1699 19.1264 19.2427C19.0838 19.3155 19.0261 19.3741 18.9533 19.4185C18.8822 19.4611 18.8023 19.4824 18.7136 19.4824ZM18.7136 16.7231C18.5822 16.7231 18.4694 16.6761 18.3753 16.582C18.2812 16.4879 18.2342 16.3751 18.2342 16.2437C18.2342 16.1123 18.2812 15.9996 18.3753 15.9055C18.4694 15.8114 18.5822 15.7643 18.7136 15.7643C18.8449 15.7643 18.9577 15.8114 19.0518 15.9055C19.1459 15.9996 19.193 16.1123 19.193 16.2437C19.193 16.3307 19.1708 16.4106 19.1264 16.4834C19.0838 16.5562 19.0261 16.6148 18.9533 16.6592C18.8822 16.7018 18.8023 16.7231 18.7136 16.7231ZM20.1824 19.0616V18.5182L22.5794 14.7256H22.9736V15.5672H22.7073L20.8962 18.433V18.4756H24.1242V19.0616H20.1824ZM22.7499 20.1802V18.8964V18.6434V14.7256H23.3784V20.1802H22.7499ZM26.9666 14.7256V20.1802H26.3061V15.4181H26.2741L24.9425 16.3023V15.6312L26.3061 14.7256H26.9666Z" fill="black"/>
<path d="M16.997 38.1802V37.5012H14.106V33.4902H13.35V38.1802H16.997ZM19.2357 38.2502C20.2717 38.2502 20.9997 37.7392 20.9997 36.9972V36.9342H20.2437V36.9902C20.2437 37.4032 19.9427 37.6412 19.2147 37.6412C18.4097 37.6412 18.0807 37.2842 18.0527 36.6122H21.0067C21.0277 36.5072 21.0347 36.4092 21.0347 36.2832C21.0347 35.2262 20.2997 34.6312 19.2217 34.6312C18.0877 34.6312 17.3457 35.3592 17.3457 36.4442C17.3457 37.6062 18.0947 38.2502 19.2357 38.2502ZM19.2077 35.2262C19.9497 35.2262 20.3207 35.5342 20.3207 36.1782V36.1922H18.0597C18.1017 35.5692 18.4377 35.2262 19.2077 35.2262ZM23.883 38.1802V37.5012H23.253C22.819 37.5012 22.623 37.3892 22.623 36.9622V35.3312H23.883V34.7012H22.623V33.9382H21.874V34.7012H21.286V35.3312H21.874V37.0042C21.874 37.8512 22.336 38.1802 23.085 38.1802H23.883ZM24.4819 35.3662C24.9159 35.3662 25.1679 35.1562 25.1679 34.7152V33.4902H24.2159V34.5752H24.6359V34.7222C24.6359 34.8692 24.5799 34.9042 24.4609 34.9042H24.2299V35.3662H24.4819ZM27.3749 38.2502C28.3549 38.2502 28.9989 37.8652 28.9989 37.2142C28.9989 36.6402 28.6209 36.3602 27.7949 36.2552L26.9899 36.1432C26.4649 36.0732 26.3249 35.9752 26.3249 35.7022C26.3249 35.3732 26.5489 35.2332 27.1859 35.2332C27.9559 35.2332 28.1659 35.4502 28.1659 35.8632V35.9052H28.9149V35.8842C28.9149 35.0582 28.2709 34.6312 27.2069 34.6312C26.1359 34.6312 25.5829 35.0652 25.5829 35.6742C25.5829 36.2552 25.9819 36.5352 26.6399 36.6192L27.5919 36.7452C28.0889 36.8152 28.2569 36.9062 28.2569 37.1932C28.2569 37.5012 28.0539 37.6412 27.3749 37.6412C26.6469 37.6412 26.3739 37.4942 26.3739 37.0392V36.9832H25.6179V37.0042C25.6179 37.8092 26.2549 38.2502 27.3749 38.2502ZM31.4966 38.1802V33.4902H30.7406V38.1802H31.4966ZM33.9747 38.2502C35.1367 38.2502 35.9137 37.5152 35.9137 36.4442C35.9137 35.3592 35.1367 34.6312 33.9747 34.6312C32.8197 34.6312 32.0427 35.3592 32.0427 36.4442C32.0427 37.5152 32.8197 38.2502 33.9747 38.2502ZM33.9747 37.5782C33.1347 37.5782 32.7847 37.1792 32.7847 36.4442C32.7847 35.7022 33.1347 35.2962 33.9747 35.2962C34.8217 35.2962 35.1717 35.7022 35.1717 36.4442C35.1717 37.1792 34.8217 37.5782 33.9747 37.5782ZM37.9743 37.8652C38.7653 37.8652 39.2343 37.4872 39.3603 36.9622H39.4093V37.8162C39.4093 38.5932 39.1223 38.8102 38.3313 38.8102C37.5893 38.8102 37.2953 38.6212 37.2953 38.1172H36.5463C36.5463 38.9572 37.2603 39.4402 38.2893 39.4402C39.4303 39.4402 40.1583 38.9432 40.1583 37.7742V34.7012H39.4653V35.5692H39.4233C39.2973 34.9602 38.7513 34.6312 38.0233 34.6312C36.9663 34.6312 36.3223 35.2822 36.3223 36.2482C36.3223 37.2142 36.9383 37.8652 37.9743 37.8652ZM37.0853 36.2482C37.0853 35.5342 37.5123 35.2892 38.2403 35.2892C38.9753 35.2892 39.4093 35.5902 39.4093 36.1782V36.2762C39.4093 36.8922 38.9893 37.2142 38.2193 37.2142C37.5053 37.2142 37.0853 36.9622 37.0853 36.2482ZM41.6138 34.2952V33.4902H40.8578V34.2952H41.6138ZM41.6138 38.1802V34.7012H40.8578V38.1802H41.6138ZM43.0699 38.1802V36.4582C43.0699 35.7022 43.4129 35.3102 44.1759 35.3102C44.8969 35.3102 45.1909 35.6392 45.1909 36.2902V38.1802H45.9469V36.0872C45.9469 35.2822 45.4709 34.6312 44.5049 34.6312C43.6229 34.6312 43.1609 35.1912 43.0559 35.7792H43.0069V34.7012H42.3139V38.1802H43.0699ZM48.5728 34.2952V33.4902H47.8168V34.2952H48.5728ZM48.5728 38.1802V34.7012H47.8168V38.1802H48.5728ZM50.0289 38.1802V36.4582C50.0289 35.7022 50.3719 35.3102 51.1349 35.3102C51.8559 35.3102 52.1499 35.6392 52.1499 36.2902V38.1802H52.9059V36.0872C52.9059 35.2822 52.4299 34.6312 51.4639 34.6312C50.5819 34.6312 50.1199 35.1912 50.0149 35.7792H49.9659V34.7012H49.2729V38.1802H50.0289ZM55.8615 38.1802V37.5012H55.2315C54.7975 37.5012 54.6015 37.3892 54.6015 36.9622V35.3312H55.8615V34.7012H54.6015V33.9382H53.8525V34.7012H53.2645V35.3312H53.8525V37.0042C53.8525 37.8512 54.3145 38.1802 55.0635 38.1802H55.8615ZM58.1124 38.2502C59.2744 38.2502 60.0514 37.5152 60.0514 36.4442C60.0514 35.3592 59.2744 34.6312 58.1124 34.6312C56.9574 34.6312 56.1804 35.3592 56.1804 36.4442C56.1804 37.5152 56.9574 38.2502 58.1124 38.2502ZM58.1124 37.5782C57.2724 37.5782 56.9224 37.1792 56.9224 36.4442C56.9224 35.7022 57.2724 35.2962 58.1124 35.2962C58.9594 35.2962 59.3094 35.7022 59.3094 36.4442C59.3094 37.1792 58.9594 37.5782 58.1124 37.5782ZM62.9723 38.1802V36.9972H64.2533C65.3663 36.9972 66.0663 36.3532 66.0663 35.2402C66.0663 34.1272 65.3663 33.4902 64.2533 33.4902H61.6563V38.1802H62.9723ZM64.1063 34.6732C64.5683 34.6732 64.7573 34.7642 64.7573 35.2402C64.7573 35.7232 64.5683 35.8142 64.1063 35.8142H62.9723V34.6732H64.1063ZM68.2987 38.2502C69.5237 38.2502 70.3567 37.5572 70.3567 36.4162C70.3567 35.2682 69.5237 34.5822 68.2987 34.5822C67.0737 34.5822 66.2407 35.2682 66.2407 36.4162C66.2407 37.5572 67.0737 38.2502 68.2987 38.2502ZM68.2987 37.0882C67.7037 37.0882 67.5427 36.9272 67.5427 36.4162C67.5427 35.9052 67.7037 35.7372 68.2987 35.7372C68.8937 35.7372 69.0547 35.9052 69.0547 36.4162C69.0547 36.9272 68.8937 37.0882 68.2987 37.0882ZM72.6539 38.2502C73.8579 38.2502 74.6279 37.6272 74.6279 36.6892V36.5702H73.3189V36.6332C73.3189 36.9972 73.0529 37.0672 72.6259 37.0672C72.1429 37.0672 71.9119 36.9622 71.9119 36.4162C71.9119 35.8632 72.1429 35.7582 72.6259 35.7582C73.0529 35.7582 73.3189 35.8352 73.3189 36.1992V36.2552H74.6279V36.1432C74.6279 35.1982 73.8579 34.5822 72.6539 34.5822C71.4009 34.5822 70.6029 35.2682 70.6029 36.4162C70.6029 37.5572 71.4009 38.2502 72.6539 38.2502ZM76.2955 38.1802V37.0532H76.9325L77.6745 38.1802H79.2285L77.9965 36.3672L79.2495 34.6522H77.6955L76.9185 35.8772H76.2955V33.4902H74.9795V38.1802H76.2955ZM81.3557 38.2502C82.5457 38.2502 83.2947 37.6972 83.2947 36.9132V36.8292H81.9787V36.9062C81.9787 37.1162 81.8387 37.2072 81.3067 37.2072C80.7467 37.2072 80.5577 37.0882 80.5367 36.6612H83.3017C83.3157 36.5352 83.3227 36.4442 83.3227 36.3252C83.3227 35.1912 82.5457 34.5822 81.3277 34.5822C80.1517 34.5822 79.3187 35.2682 79.3187 36.4162C79.3187 37.7392 80.1587 38.2502 81.3557 38.2502ZM81.2997 35.5902C81.7897 35.5902 81.9997 35.6952 82.0487 35.9962H80.5577C80.6137 35.6952 80.8167 35.5902 81.2997 35.5902ZM86.3138 38.1802V36.9972H85.6838C85.3828 36.9972 85.2988 36.9272 85.2988 36.6472V35.7302H86.3138V34.6522H85.2988V34.0432H83.9828V34.6522H83.4648V35.7302H83.9828V36.8362C83.9828 37.7532 84.5078 38.1802 85.3898 38.1802H86.3138ZM88.9215 38.1802V36.9972H90.2025C91.3155 36.9972 92.0155 36.3532 92.0155 35.2402C92.0155 34.1272 91.3155 33.4902 90.2025 33.4902H87.6055V38.1802H88.9215ZM90.0555 34.6732C90.5175 34.6732 90.7065 34.7642 90.7065 35.2402C90.7065 35.7232 90.5175 35.8142 90.0555 35.8142H88.9215V34.6732H90.0555ZM93.436 38.2502C94.199 38.2502 94.633 37.9352 94.766 37.4382H94.836V38.1802H96.068V36.1712C96.068 35.1842 95.473 34.5822 94.241 34.5822C93.044 34.5822 92.26 35.1842 92.26 36.1222V36.1362H93.576V36.1082C93.576 35.8142 93.709 35.7302 94.143 35.7302C94.612 35.7302 94.766 35.7862 94.766 36.1432V36.2132L93.331 36.3532C92.533 36.4302 92.19 36.7872 92.19 37.2842C92.19 37.8862 92.638 38.2502 93.436 38.2502ZM93.513 37.2002C93.513 37.1232 93.562 37.0812 93.681 37.0672L94.759 36.9412C94.724 37.2562 94.465 37.3332 93.828 37.3332C93.625 37.3332 93.513 37.3122 93.513 37.2002ZM97.774 38.1802V33.4902H96.458V38.1802H97.774ZM99.9024 38.1802V36.8362H98.1944V38.1802H99.9024Z" fill="#1E1E1E"/>
<path d="M14.15 48.1802H14.63L15.515 45.3202L16.39 48.1802H16.86L17.95 44.5652H17.45L16.785 46.7802C16.735 46.9402 16.685 47.1252 16.625 47.4302C16.57 47.1602 16.52 46.9702 16.46 46.7752L15.78 44.5652H15.25L14.565 46.7752C14.51 46.9652 14.455 47.1402 14.395 47.4302C14.345 47.1552 14.295 46.9652 14.245 46.7752L13.585 44.5652H13.075L14.15 48.1802ZM19.102 48.2402C19.707 48.2402 20.117 47.9452 20.237 47.4202H19.797C19.717 47.7002 19.477 47.8502 19.112 47.8502C18.647 47.8502 18.377 47.5652 18.342 47.0502L20.232 47.0452V46.8702C20.232 46.1452 19.777 45.6652 19.082 45.6652C18.372 45.6652 17.887 46.1952 17.887 46.9602C17.887 47.7202 18.382 48.2402 19.102 48.2402ZM19.082 46.0602C19.497 46.0602 19.762 46.3302 19.762 46.7352H18.352C18.412 46.3052 18.672 46.0602 19.082 46.0602ZM21.9642 46.9602C21.9642 47.7302 22.4392 48.2402 23.1592 48.2402C23.7492 48.2402 24.2042 47.8852 24.2992 47.3552H23.8292C23.7442 47.6452 23.4942 47.8202 23.1592 47.8202C22.7142 47.8202 22.4292 47.4802 22.4292 46.9552C22.4292 46.4252 22.7342 46.0852 23.1792 46.0852C23.4942 46.0852 23.7442 46.2502 23.8242 46.5602H24.2942C24.2092 46.0152 23.7792 45.6652 23.1642 45.6652C22.4492 45.6652 21.9642 46.1952 21.9642 46.9602ZM24.6351 46.9552C24.6351 47.7102 25.1751 48.2402 25.9101 48.2402C26.6401 48.2402 27.1801 47.7102 27.1801 46.9552C27.1801 46.2002 26.6401 45.6702 25.9101 45.6702C25.1751 45.6702 24.6351 46.2002 24.6351 46.9552ZM25.1101 46.9552C25.1101 46.4452 25.4351 46.0902 25.9101 46.0902C26.3801 46.0902 26.7101 46.4452 26.7101 46.9552C26.7101 47.4652 26.3801 47.8202 25.9101 47.8202C25.4351 47.8202 25.1101 47.4652 25.1101 46.9552ZM28.273 48.1802H28.738L29.758 45.7352H29.268L28.723 47.1002C28.638 47.3152 28.558 47.5252 28.518 47.6852C28.478 47.5352 28.408 47.3302 28.323 47.1002L27.788 45.7352H27.288L28.273 48.1802ZM31.0747 48.2402C31.6797 48.2402 32.0897 47.9452 32.2097 47.4202H31.7697C31.6897 47.7002 31.4497 47.8502 31.0847 47.8502C30.6197 47.8502 30.3497 47.5652 30.3147 47.0502L32.2047 47.0452V46.8702C32.2047 46.1452 31.7497 45.6652 31.0547 45.6652C30.3447 45.6652 29.8597 46.1952 29.8597 46.9602C29.8597 47.7202 30.3547 48.2402 31.0747 48.2402ZM31.0547 46.0602C31.4697 46.0602 31.7347 46.3302 31.7347 46.7352H30.3247C30.3847 46.3052 30.6447 46.0602 31.0547 46.0602ZM34.1296 45.7152C34.0346 45.6952 33.9646 45.6852 33.8796 45.6852C33.5446 45.6852 33.2996 45.8552 33.1996 46.1102L33.1696 45.7402H32.7296V48.1802H33.1996V46.8852C33.1996 46.4152 33.4746 46.1452 33.9196 46.1452H34.1296V45.7152ZM36.6527 48.2402C37.0477 48.2402 37.3827 48.0652 37.5077 47.7852L37.5577 48.1802H37.9577V46.6452C37.9577 45.9852 37.5477 45.6652 36.9427 45.6652C36.3127 45.6652 35.8927 46.0002 35.8927 46.5102H36.3027C36.3027 46.2152 36.5277 46.0402 36.9227 46.0402C37.2527 46.0402 37.4977 46.1852 37.4977 46.5952V46.6652L36.7277 46.7252C36.1527 46.7702 35.8177 47.0502 35.8177 47.5002C35.8177 47.9452 36.1277 48.2402 36.6527 48.2402ZM36.7877 47.8752C36.4827 47.8752 36.2927 47.7452 36.2927 47.4852C36.2927 47.2452 36.4627 47.0852 36.8777 47.0452L37.5027 46.9952V47.1252C37.5027 47.5852 37.2327 47.8752 36.7877 47.8752ZM39.0886 48.1802V44.5002H38.6186V48.1802H39.0886ZM40.2604 48.1802V44.5002H39.7904V48.1802H40.2604ZM42.0845 49.2752C42.2095 49.3052 42.3395 49.3252 42.4945 49.3252C42.8695 49.3252 43.1145 49.1502 43.2795 48.7302L44.4345 45.7352H43.9495L43.2245 47.7052L42.5145 45.7352H42.0195L43.0045 48.3102L42.9195 48.5452C42.8045 48.8552 42.6245 48.8902 42.3995 48.8902H42.0845V49.2752ZM44.557 46.9552C44.557 47.7102 45.097 48.2402 45.832 48.2402C46.562 48.2402 47.102 47.7102 47.102 46.9552C47.102 46.2002 46.562 45.6702 45.832 45.6702C45.097 45.6702 44.557 46.2002 44.557 46.9552ZM45.032 46.9552C45.032 46.4452 45.357 46.0902 45.832 46.0902C46.302 46.0902 46.632 46.4452 46.632 46.9552C46.632 47.4652 46.302 47.8202 45.832 47.8202C45.357 47.8202 45.032 47.4652 45.032 46.9552ZM49.2536 45.7352V47.0252C49.2536 47.5502 49.0186 47.8252 48.5886 47.8252C48.2286 47.8252 48.0036 47.6252 48.0036 47.1002V45.7352H47.5336V47.2552C47.5336 47.8552 47.8536 48.2402 48.4236 48.2402C48.7836 48.2402 49.1086 48.0652 49.2486 47.8102L49.2986 48.1802H49.7186V45.7352H49.2536ZM51.8005 45.7152C51.7055 45.6952 51.6355 45.6852 51.5505 45.6852C51.2155 45.6852 50.9705 45.8552 50.8705 46.1102L50.8405 45.7402H50.4005V48.1802H50.8705V46.8852C50.8705 46.4152 51.1455 46.1452 51.5905 46.1452H51.8005V45.7152ZM54.0336 48.1802L54.0686 47.7352C54.2286 48.0702 54.5536 48.2402 54.9386 48.2402C55.6486 48.2402 56.0886 47.7102 56.0886 46.9702C56.0886 46.2152 55.6686 45.6652 54.9686 45.6652C54.5686 45.6652 54.2386 45.8352 54.0786 46.1552V44.5002H53.6086V48.1802H54.0336ZM54.0836 46.9502C54.0836 46.4502 54.3736 46.0902 54.8536 46.0902C55.3336 46.0902 55.6186 46.4502 55.6186 46.9502C55.6186 47.4552 55.3336 47.8152 54.8536 47.8152C54.3736 47.8152 54.0836 47.4602 54.0836 46.9502ZM58.238 45.7352V47.0252C58.238 47.5502 58.003 47.8252 57.573 47.8252C57.213 47.8252 56.988 47.6252 56.988 47.1002V45.7352H56.518V47.2552C56.518 47.8552 56.838 48.2402 57.408 48.2402C57.768 48.2402 58.093 48.0652 58.233 47.8102L58.283 48.1802H58.703V45.7352H58.238ZM60.3161 48.2402C60.7061 48.2402 61.0361 48.0702 61.1961 47.7352L61.2361 48.1802H61.6561V44.5002H61.1911V46.1302C61.0261 45.8302 60.7111 45.6652 60.3361 45.6652C59.6111 45.6652 59.1761 46.2152 59.1761 46.9652C59.1761 47.7102 59.6061 48.2402 60.3161 48.2402ZM60.4111 47.8152C59.9311 47.8152 59.6511 47.4552 59.6511 46.9502C59.6511 46.4502 59.9311 46.0902 60.4111 46.0902C60.8911 46.0902 61.1861 46.4502 61.1861 46.9502C61.1861 47.4602 60.8911 47.8152 60.4111 47.8152ZM62.1791 46.8952C62.1791 47.5802 62.6191 48.1152 63.3141 48.1152C63.6991 48.1152 64.0191 47.9452 64.1791 47.6602V48.1502C64.1791 48.6152 63.8791 48.9152 63.4191 48.9152C63.0091 48.9152 62.7391 48.7052 62.6791 48.3452H62.2091C62.2991 48.9652 62.7541 49.3402 63.4191 49.3402C64.1691 49.3402 64.6441 48.8502 64.6441 48.0802V45.7352H64.2241L64.1891 46.1502C64.0341 45.8452 63.7291 45.6652 63.3341 45.6652C62.6241 45.6652 62.1791 46.2052 62.1791 46.8952ZM62.6491 46.8852C62.6491 46.4352 62.9291 46.0752 63.3991 46.0752C63.8791 46.0752 64.1591 46.4152 64.1591 46.8852C64.1591 47.3652 63.8691 47.7052 63.3941 47.7052C62.9341 47.7052 62.6491 47.3452 62.6491 46.8852ZM66.3774 48.2402C66.9824 48.2402 67.3924 47.9452 67.5124 47.4202H67.0724C66.9924 47.7002 66.7524 47.8502 66.3874 47.8502C65.9224 47.8502 65.6524 47.5652 65.6174 47.0502L67.5074 47.0452V46.8702C67.5074 46.1452 67.0524 45.6652 66.3574 45.6652C65.6474 45.6652 65.1624 46.1952 65.1624 46.9602C65.1624 47.7202 65.6574 48.2402 66.3774 48.2402ZM66.3574 46.0602C66.7724 46.0602 67.0374 46.3302 67.0374 46.7352H65.6274C65.6874 46.3052 65.9474 46.0602 66.3574 46.0602ZM68.698 48.1802V46.1302H69.178V45.7352H68.698V44.9702H68.228V45.7352H67.748V46.1302H68.228V48.1802H68.698ZM71.492 48.1802H71.957L72.382 46.8752C72.472 46.5802 72.517 46.4202 72.542 46.3002C72.567 46.4352 72.617 46.6252 72.697 46.8702L73.122 48.1802H73.567L74.402 45.7352H73.912L73.502 47.0052C73.432 47.2202 73.387 47.3902 73.347 47.5852C73.307 47.4102 73.227 47.1252 73.187 47.0052L72.782 45.7352H72.302L71.892 47.0052C71.837 47.1652 71.772 47.3702 71.732 47.5852C71.687 47.3702 71.637 47.1852 71.582 47.0052L71.177 45.7352H70.692L71.492 48.1802ZM74.5325 46.9552C74.5325 47.7102 75.0725 48.2402 75.8075 48.2402C76.5375 48.2402 77.0775 47.7102 77.0775 46.9552C77.0775 46.2002 76.5375 45.6702 75.8075 45.6702C75.0725 45.6702 74.5325 46.2002 74.5325 46.9552ZM75.0075 46.9552C75.0075 46.4452 75.3325 46.0902 75.8075 46.0902C76.2775 46.0902 76.6075 46.4452 76.6075 46.9552C76.6075 47.4652 76.2775 47.8202 75.8075 47.8202C75.3325 47.8202 75.0075 47.4652 75.0075 46.9552ZM78.9978 45.7152C78.9028 45.6952 78.8328 45.6852 78.7478 45.6852C78.4128 45.6852 78.1678 45.8552 78.0678 46.1102L78.0378 45.7402H77.5978V48.1802H78.0678V46.8852C78.0678 46.4152 78.3428 46.1452 78.7878 46.1452H78.9978V45.7152ZM80.8386 45.7152C80.7436 45.6952 80.6736 45.6852 80.5886 45.6852C80.2536 45.6852 80.0086 45.8552 79.9086 46.1102L79.8786 45.7402H79.4386V48.1802H79.9086V46.8852C79.9086 46.4152 80.1836 46.1452 80.6286 46.1452H80.8386V45.7152ZM81.5095 45.1552C81.6795 45.1552 81.8195 45.0152 81.8195 44.8452C81.8195 44.6702 81.6795 44.5352 81.5095 44.5352C81.3395 44.5352 81.1995 44.6702 81.1995 44.8452C81.1995 45.0152 81.3395 45.1552 81.5095 45.1552ZM81.2795 48.1802H81.7495V45.7352H81.2795V48.1802ZM83.4868 48.2402C84.0918 48.2402 84.5018 47.9452 84.6218 47.4202H84.1818C84.1018 47.7002 83.8618 47.8502 83.4968 47.8502C83.0318 47.8502 82.7618 47.5652 82.7268 47.0502L84.6168 47.0452V46.8702C84.6168 46.1452 84.1618 45.6652 83.4668 45.6652C82.7568 45.6652 82.2718 46.1952 82.2718 46.9602C82.2718 47.7202 82.7668 48.2402 83.4868 48.2402ZM83.4668 46.0602C83.8818 46.0602 84.1468 46.3302 84.1468 46.7352H82.7368C82.7968 46.3052 83.0568 46.0602 83.4668 46.0602ZM84.9418 47.4702C84.9418 47.9352 85.3068 48.2402 85.8818 48.2402C86.4618 48.2402 86.8618 47.9452 86.8618 47.4802C86.8618 47.1152 86.6568 46.9252 86.2418 46.8252L85.8118 46.7202C85.5718 46.6602 85.4518 46.5502 85.4518 46.3852C85.4518 46.1602 85.6168 46.0302 85.9118 46.0302C86.1968 46.0302 86.3618 46.1852 86.3718 46.4302H86.8218C86.8118 45.9652 86.4618 45.6652 85.9268 45.6652C85.3868 45.6652 85.0068 45.9502 85.0068 46.4002C85.0068 46.7602 85.2118 46.9752 85.6468 47.0802L86.0768 47.1802C86.3318 47.2452 86.4118 47.3452 86.4118 47.5102C86.4118 47.7352 86.2218 47.8702 85.8918 47.8702C85.5818 47.8702 85.3918 47.7202 85.3918 47.4702H84.9418Z" fill="#1E1E1E"/>
<rect x="14.2295" y="60.7111" width="129.52" height="19.3539" rx="2.75" fill="white" stroke="#1E1E1E" stroke-width="0.5"/>
<rect x="13.25" y="59.4302" width="129.52" height="19.3539" rx="2.75" fill="#FFFEE8" stroke="#1E1E1E" stroke-width="0.5"/>
<rect x="13.25" y="59.4302" width="129.52" height="19.3539" rx="2.75" fill="white" stroke="#1E1E1E" stroke-width="0.5"/>
<rect x="14.2295" y="96.7111" width="129.52" height="19.3539" rx="2.75" fill="#FFFEE8" stroke="#1E1E1E" stroke-width="0.5"/>
<rect x="13.25" y="95.4302" width="129.52" height="19.3539" rx="2.75" fill="#FFFEE8" stroke="#1E1E1E" stroke-width="0.5"/>
<rect x="13.25" y="95.4302" width="129.52" height="19.3539" rx="2.75" fill="white" stroke="#1E1E1E" stroke-width="0.5"/>
<rect x="14.2275" y="128.703" width="53.5852" height="19.2273" rx="1.75" fill="#FFFEE8" stroke="#1E1E1E" stroke-width="0.5"/>
<rect x="13.25" y="127.43" width="53.5852" height="19.2273" rx="1.75" fill="#FFFEE8" stroke="#1E1E1E" stroke-width="0.5"/>
<rect x="13.25" y="127.43" width="53.5852" height="19.2273" rx="1.75" fill="#1D1D1D" stroke="#1E1E1E" stroke-width="0.5"/>
<rect x="89.2275" y="128.703" width="53.5852" height="19.2273" rx="1.75" fill="#FFFEE8" stroke="#1E1E1E" stroke-width="0.5"/>
<rect x="88.25" y="127.43" width="53.5852" height="19.2273" rx="1.75" fill="#FFFEE8" stroke="#1E1E1E" stroke-width="0.5"/>
<rect x="88.25" y="127.43" width="53.5852" height="19.2273" rx="1.75" fill="#C6BCFA" stroke="#1E1E1E" stroke-width="0.5"/>
<path d="M24.254 72.1802V70.5422H25.196L25.94 72.1802H26.78L25.946 70.3802C26.462 70.1702 26.738 69.7502 26.738 69.1622C26.738 68.2982 26.156 67.7942 25.16 67.7942H23.486V72.1802H24.254ZM24.254 68.4782H25.16C25.646 68.4782 25.934 68.7242 25.934 69.1622C25.934 69.6062 25.646 69.8642 25.16 69.8642H24.254V68.4782ZM28.1623 72.2582C28.6243 72.2582 29.0263 72.0482 29.1523 71.7422L29.2063 72.1802H29.8483V70.3802C29.8483 69.5582 29.3563 69.1262 28.5583 69.1262C27.7543 69.1262 27.2263 69.5462 27.2263 70.1882H27.8503C27.8503 69.8762 28.0903 69.6962 28.5223 69.6962C28.8943 69.6962 29.1343 69.8582 29.1343 70.2602V70.3262L28.2463 70.3922C27.5443 70.4462 27.1483 70.7882 27.1483 71.3342C27.1483 71.8922 27.5323 72.2582 28.1623 72.2582ZM28.4023 71.7062C28.0723 71.7062 27.8923 71.5742 27.8923 71.3042C27.8923 71.0642 28.0663 70.9142 28.5223 70.8722L29.1403 70.8242V70.9802C29.1403 71.4362 28.8523 71.7062 28.4023 71.7062ZM30.5675 73.5542H31.2995V71.7842C31.4855 72.0842 31.8695 72.2582 32.3135 72.2582C33.1955 72.2582 33.6995 71.5862 33.6995 70.6622C33.6995 69.7322 33.1475 69.1262 32.3135 69.1262C31.8635 69.1262 31.4735 69.3242 31.2935 69.6662L31.2455 69.2162H30.5675V73.5542ZM31.3055 70.6982C31.3055 70.1642 31.6355 69.7922 32.1395 69.7922C32.6555 69.7922 32.9615 70.1702 32.9615 70.6982C32.9615 71.2262 32.6555 71.5982 32.1395 71.5982C31.6355 71.5982 31.3055 71.2322 31.3055 70.6982ZM35.0143 72.1802V70.5602C35.0143 70.1162 35.2843 69.7922 35.7463 69.7922C36.1183 69.7922 36.3643 70.0322 36.3643 70.5302V72.1802H37.0963V70.3562C37.0963 69.5882 36.7123 69.1262 35.9803 69.1262C35.5543 69.1262 35.2063 69.3122 35.0203 69.6002V67.7162H34.2823V72.1802H35.0143ZM38.6975 72.2582C39.1595 72.2582 39.5615 72.0482 39.6875 71.7422L39.7415 72.1802H40.3835V70.3802C40.3835 69.5582 39.8915 69.1262 39.0935 69.1262C38.2895 69.1262 37.7615 69.5462 37.7615 70.1882H38.3855C38.3855 69.8762 38.6255 69.6962 39.0575 69.6962C39.4295 69.6962 39.6695 69.8582 39.6695 70.2602V70.3262L38.7815 70.3922C38.0795 70.4462 37.6835 70.7882 37.6835 71.3342C37.6835 71.8922 38.0675 72.2582 38.6975 72.2582ZM38.9375 71.7062C38.6075 71.7062 38.4275 71.5742 38.4275 71.3042C38.4275 71.0642 38.6015 70.9142 39.0575 70.8722L39.6755 70.8242V70.9802C39.6755 71.4362 39.3875 71.7062 38.9375 71.7062ZM42.4286 72.2582C43.2026 72.2582 43.7426 71.8682 43.8686 71.2202H43.1906C43.1066 71.5022 42.8426 71.6582 42.4406 71.6582C41.9546 71.6582 41.6786 71.3942 41.6246 70.8722L43.8566 70.8662V70.6442C43.8566 69.7202 43.2926 69.1262 42.4046 69.1262C41.5346 69.1262 40.9286 69.7682 40.9286 70.6982C40.9286 71.6162 41.5466 72.2582 42.4286 72.2582ZM42.4106 69.7262C42.8486 69.7262 43.1306 69.9962 43.1306 70.4042H41.6426C41.7146 69.9602 41.9786 69.7262 42.4106 69.7262ZM45.1805 72.1802V67.7162H44.4545V72.1802H45.1805ZM47.1423 70.8302C47.1423 71.3522 47.5083 71.6702 48.1143 71.6702C48.5463 71.6702 48.9363 71.4602 49.0563 71.1602C49.1403 71.4902 49.4043 71.6702 49.8183 71.6702C50.5083 71.6702 50.9523 71.0642 50.9523 70.1402C50.9523 68.7362 49.8903 67.7162 48.4263 67.7162C46.9563 67.7162 45.8523 68.8142 45.8523 70.2842C45.8523 71.7602 46.9503 72.8582 48.4263 72.8582C48.9603 72.8582 49.4643 72.7022 49.8843 72.4022L49.6743 71.9942C49.2963 72.2582 48.8583 72.4082 48.4263 72.4082C47.2263 72.4082 46.3383 71.5022 46.3383 70.2842C46.3383 69.0722 47.2263 68.1662 48.4263 68.1662C49.6203 68.1662 50.4663 68.9882 50.4663 70.1402C50.4663 70.7882 50.2443 71.2262 49.9143 71.2262C49.7103 71.2262 49.6083 71.1182 49.6083 70.8902V69.9602C49.6083 69.2342 49.1823 68.8202 48.4323 68.8202C47.6943 68.8202 47.2203 69.2042 47.2203 69.7862H47.7843C47.7843 69.4982 48.0063 69.3362 48.4023 69.3362C48.7683 69.3362 48.9603 69.5102 48.9603 69.8522V69.9122L48.1503 69.9782C47.4903 70.0262 47.1423 70.3502 47.1423 70.8302ZM47.8203 70.8062C47.8203 70.5722 47.9883 70.4522 48.3963 70.4162L48.9663 70.3682V70.5122C48.9663 70.9202 48.7083 71.1662 48.2883 71.1662C47.9763 71.1662 47.8203 71.0462 47.8203 70.8062ZM51.4463 70.6322C51.4463 71.4902 51.9983 72.1202 52.8383 72.1202C53.2643 72.1202 53.6303 71.9462 53.8163 71.6702V72.1622C53.8163 72.6542 53.4923 72.9722 52.9883 72.9722C52.5383 72.9722 52.2443 72.7442 52.1963 72.3602H51.4643C51.5543 73.1522 52.1363 73.6382 52.9883 73.6382C53.9483 73.6382 54.5423 73.0202 54.5423 72.0302V69.2162H53.8643L53.8223 69.6242C53.6483 69.3062 53.3003 69.1202 52.8563 69.1202C52.0103 69.1202 51.4463 69.7682 51.4463 70.6322ZM52.1843 70.6142C52.1843 70.1282 52.4963 69.7622 52.9823 69.7622C53.4923 69.7622 53.7983 70.1102 53.7983 70.6142C53.7983 71.1302 53.4863 71.4842 52.9823 71.4842C52.5023 71.4842 52.1843 71.1122 52.1843 70.6142ZM56.0319 72.1802V70.5002C56.0319 70.0202 56.3139 69.7922 56.6619 69.7922C57.0099 69.7922 57.2319 70.0142 57.2319 70.4282V72.1802H57.9639V70.5002C57.9639 70.0142 58.2339 69.7862 58.5879 69.7862C58.9359 69.7862 59.1639 70.0082 59.1639 70.4342V72.1802H59.8899V70.2422C59.8899 69.5582 59.4939 69.1262 58.7739 69.1262C58.3239 69.1262 57.9759 69.3482 57.8259 69.6902C57.6699 69.3482 57.3579 69.1262 56.9079 69.1262C56.4819 69.1262 56.1819 69.3182 56.0319 69.5642L55.9719 69.2162H55.2999V72.1802H56.0319ZM61.4905 72.2582C61.9525 72.2582 62.3545 72.0482 62.4805 71.7422L62.5345 72.1802H63.1765V70.3802C63.1765 69.5582 62.6845 69.1262 61.8865 69.1262C61.0825 69.1262 60.5545 69.5462 60.5545 70.1882H61.1785C61.1785 69.8762 61.4185 69.6962 61.8505 69.6962C62.2225 69.6962 62.4625 69.8582 62.4625 70.2602V70.3262L61.5745 70.3922C60.8725 70.4462 60.4765 70.7882 60.4765 71.3342C60.4765 71.8922 60.8605 72.2582 61.4905 72.2582ZM61.7305 71.7062C61.4005 71.7062 61.2205 71.5742 61.2205 71.3042C61.2205 71.0642 61.3945 70.9142 61.8505 70.8722L62.4685 70.8242V70.9802C62.4685 71.4362 62.1805 71.7062 61.7305 71.7062ZM64.2616 68.6222C64.5016 68.6222 64.6996 68.4242 64.6996 68.1782C64.6996 67.9322 64.5016 67.7402 64.2616 67.7402C64.0096 67.7402 63.8116 67.9322 63.8116 68.1782C63.8116 68.4242 64.0096 68.6222 64.2616 68.6222ZM63.8956 72.1802H64.6276V69.2162H63.8956V72.1802ZM66.1219 72.1802V67.7162H65.3959V72.1802H66.1219ZM67.3817 72.2522C67.6457 72.2522 67.8677 72.0362 67.8677 71.7782C67.8677 71.5142 67.6457 71.2982 67.3817 71.2982C67.1177 71.2982 66.8957 71.5142 66.8957 71.7782C66.8957 72.0362 67.1177 72.2522 67.3817 72.2522ZM68.2802 70.6922C68.2802 71.6342 68.8682 72.2582 69.7682 72.2582C70.5422 72.2582 71.1182 71.7842 71.2082 71.0942H70.4702C70.3922 71.4182 70.1342 71.5982 69.7682 71.5982C69.3002 71.5982 69.0122 71.2502 69.0122 70.6922C69.0122 70.1342 69.3242 69.7802 69.7922 69.7802C70.1402 69.7802 70.3862 69.9542 70.4702 70.2902H71.2022C71.1242 69.5762 70.5722 69.1262 69.7622 69.1262C68.8862 69.1262 68.2802 69.7742 68.2802 70.6922ZM71.579 70.6922C71.579 71.6162 72.245 72.2522 73.163 72.2522C74.081 72.2522 74.747 71.6162 74.747 70.6922C74.747 69.7682 74.081 69.1322 73.163 69.1322C72.245 69.1322 71.579 69.7682 71.579 70.6922ZM72.311 70.6922C72.311 70.1522 72.659 69.7862 73.163 69.7862C73.667 69.7862 74.015 70.1522 74.015 70.6922C74.015 71.2322 73.667 71.5982 73.163 71.5982C72.659 71.5982 72.311 71.2322 72.311 70.6922ZM76.0592 72.1802V70.5002C76.0592 70.0202 76.3412 69.7922 76.6892 69.7922C77.0372 69.7922 77.2592 70.0142 77.2592 70.4282V72.1802H77.9912V70.5002C77.9912 70.0142 78.2612 69.7862 78.6152 69.7862C78.9632 69.7862 79.1912 70.0082 79.1912 70.4342V72.1802H79.9172V70.2422C79.9172 69.5582 79.5212 69.1262 78.8012 69.1262C78.3512 69.1262 78.0032 69.3482 77.8532 69.6902C77.6972 69.3482 77.3852 69.1262 76.9352 69.1262C76.5092 69.1262 76.2092 69.3182 76.0592 69.5642L75.9992 69.2162H75.3272V72.1802H76.0592Z" fill="#1E1E1E"/>
<a href="mailto:Raphael@gmail.com">
<rect fill="black" fill-opacity="0" y="-0.0500002" width="57.2592" height="8.1"/>
</a>
<path d="M25.19 106.632C26.036 106.632 26.588 106.044 26.588 105.234C26.588 104.4 26.042 103.842 25.19 103.842H23.504V108.18H24.092V106.632H25.19ZM25.088 104.37C25.64 104.37 25.97 104.682 25.97 105.228C25.97 105.762 25.646 106.104 25.064 106.104H24.092V104.37H25.088ZM27.8988 108.252C28.3728 108.252 28.7748 108.042 28.9248 107.706L28.9848 108.18H29.4648V106.338C29.4648 105.546 28.9728 105.162 28.2468 105.162C27.4908 105.162 26.9868 105.564 26.9868 106.176H27.4788C27.4788 105.822 27.7488 105.612 28.2228 105.612C28.6188 105.612 28.9128 105.786 28.9128 106.278V106.362L27.9888 106.434C27.2988 106.488 26.8968 106.824 26.8968 107.364C26.8968 107.898 27.2688 108.252 27.8988 108.252ZM28.0608 107.814C27.6948 107.814 27.4668 107.658 27.4668 107.346C27.4668 107.058 27.6708 106.866 28.1688 106.818L28.9188 106.758V106.914C28.9188 107.466 28.5948 107.814 28.0608 107.814ZM30.0059 107.328C30.0059 107.886 30.4439 108.252 31.1339 108.252C31.8299 108.252 32.3099 107.898 32.3099 107.34C32.3099 106.902 32.0639 106.674 31.5659 106.554L31.0499 106.428C30.7619 106.356 30.6179 106.224 30.6179 106.026C30.6179 105.756 30.8159 105.6 31.1699 105.6C31.5119 105.6 31.7099 105.786 31.7219 106.08H32.2619C32.2499 105.522 31.8299 105.162 31.1879 105.162C30.5399 105.162 30.0839 105.504 30.0839 106.044C30.0839 106.476 30.3299 106.734 30.8519 106.86L31.3679 106.98C31.6739 107.058 31.7699 107.178 31.7699 107.376C31.7699 107.646 31.5419 107.808 31.1459 107.808C30.7739 107.808 30.5459 107.628 30.5459 107.328H30.0059ZM32.6953 107.328C32.6953 107.886 33.1333 108.252 33.8233 108.252C34.5193 108.252 34.9993 107.898 34.9993 107.34C34.9993 106.902 34.7533 106.674 34.2553 106.554L33.7393 106.428C33.4513 106.356 33.3073 106.224 33.3073 106.026C33.3073 105.756 33.5053 105.6 33.8593 105.6C34.2013 105.6 34.3993 105.786 34.4113 106.08H34.9513C34.9393 105.522 34.5193 105.162 33.8773 105.162C33.2293 105.162 32.7733 105.504 32.7733 106.044C32.7733 106.476 33.0193 106.734 33.5413 106.86L34.0573 106.98C34.3633 107.058 34.4593 107.178 34.4593 107.376C34.4593 107.646 34.2313 107.808 33.8353 107.808C33.4633 107.808 33.2353 107.628 33.2353 107.328H32.6953ZM36.1845 108.18H36.7425L37.2525 106.614C37.3605 106.26 37.4145 106.068 37.4445 105.924C37.4745 106.086 37.5345 106.314 37.6305 106.608L38.1405 108.18H38.6745L39.6765 105.246H39.0885L38.5965 106.77C38.5125 107.028 38.4585 107.232 38.4105 107.466C38.3625 107.256 38.2665 106.914 38.2185 106.77L37.7325 105.246H37.1565L36.6645 106.77C36.5985 106.962 36.5205 107.208 36.4725 107.466C36.4185 107.208 36.3585 106.986 36.2925 106.77L35.8065 105.246H35.2245L36.1845 108.18ZM39.8332 106.71C39.8332 107.616 40.4812 108.252 41.3632 108.252C42.2392 108.252 42.8872 107.616 42.8872 106.71C42.8872 105.804 42.2392 105.168 41.3632 105.168C40.4812 105.168 39.8332 105.804 39.8332 106.71ZM40.4032 106.71C40.4032 106.098 40.7932 105.672 41.3632 105.672C41.9272 105.672 42.3232 106.098 42.3232 106.71C42.3232 107.322 41.9272 107.748 41.3632 107.748C40.7932 107.748 40.4032 107.322 40.4032 106.71ZM45.1915 105.222C45.0775 105.198 44.9935 105.186 44.8915 105.186C44.4895 105.186 44.1955 105.39 44.0755 105.696L44.0395 105.252H43.5115V108.18H44.0755V106.626C44.0755 106.062 44.4055 105.738 44.9395 105.738H45.1915V105.222ZM46.791 108.252C47.259 108.252 47.655 108.048 47.847 107.646L47.895 108.18H48.399V103.764H47.841V105.72C47.643 105.36 47.265 105.162 46.815 105.162C45.945 105.162 45.423 105.822 45.423 106.722C45.423 107.616 45.939 108.252 46.791 108.252ZM46.905 107.742C46.329 107.742 45.993 107.31 45.993 106.704C45.993 106.104 46.329 105.672 46.905 105.672C47.481 105.672 47.835 106.104 47.835 106.704C47.835 107.316 47.481 107.742 46.905 107.742Z" fill="#AEAEAE"/>
<a href="mailto:Raphael@gmail.com">
<rect fill="black" fill-opacity="0" y="-0.0500002" width="25.807" height="8.1"/>
</a>
<path d="M109.092 134.842H108.504V139.18H111V138.634H109.092V134.842ZM111.292 137.71C111.292 138.616 111.94 139.252 112.822 139.252C113.698 139.252 114.346 138.616 114.346 137.71C114.346 136.804 113.698 136.168 112.822 136.168C111.94 136.168 111.292 136.804 111.292 137.71ZM111.862 137.71C111.862 137.098 112.252 136.672 112.822 136.672C113.386 136.672 113.782 137.098 113.782 137.71C113.782 138.322 113.386 138.748 112.822 138.748C112.252 138.748 111.862 138.322 111.862 137.71ZM114.785 137.638C114.785 138.46 115.312 139.102 116.146 139.102C116.609 139.102 116.993 138.898 117.185 138.556V139.144C117.185 139.702 116.825 140.062 116.273 140.062C115.781 140.062 115.457 139.81 115.385 139.378H114.821C114.929 140.122 115.475 140.572 116.273 140.572C117.173 140.572 117.743 139.984 117.743 139.06V136.246H117.239L117.197 136.744C117.011 136.378 116.645 136.162 116.171 136.162C115.319 136.162 114.785 136.81 114.785 137.638ZM115.349 137.626C115.349 137.086 115.685 136.654 116.249 136.654C116.825 136.654 117.161 137.062 117.161 137.626C117.161 138.202 116.813 138.61 116.243 138.61C115.691 138.61 115.349 138.178 115.349 137.626ZM118.832 135.55C119.036 135.55 119.204 135.382 119.204 135.178C119.204 134.968 119.036 134.806 118.832 134.806C118.628 134.806 118.46 134.968 118.46 135.178C118.46 135.382 118.628 135.55 118.832 135.55ZM118.556 139.18H119.12V136.246H118.556V139.18ZM120.503 139.18V137.626C120.503 137.056 120.809 136.678 121.337 136.678C121.769 136.678 122.045 136.918 122.045 137.512V139.18H122.609V137.386C122.609 136.636 122.255 136.162 121.481 136.162C121.067 136.162 120.695 136.36 120.509 136.696L120.449 136.246H119.939V139.18H120.503Z" fill="#1E1E1E"/>
<circle cx="134" cy="70.1802" r="3.75" fill="#88CE79" stroke="#1E1E1E" stroke-width="0.5"/>
<path d="M135.261 69.5424L135.786 69.0603" stroke="#1E1E1E" stroke-width="0.5" stroke-linecap="round" stroke-linejoin="round"/>
<path d="M131.92 70.2336L133.206 71.4069L134.403 70.3232" stroke="#1E1E1E" stroke-width="0.5" stroke-linecap="round" stroke-linejoin="round"/>
<path d="M131.31 106.661C131.178 106.468 131.104 106.234 131.104 105.983C131.104 105.312 131.646 104.77 132.317 104.77C132.988 104.77 133.531 105.312 133.531 105.983C133.531 106.655 132.988 107.197 132.317 107.197" stroke="#AEAEAE" stroke-width="0.5" stroke-linecap="round" stroke-linejoin="round"/>
<path d="M134.202 103.807C133.629 103.401 132.985 103.18 132.317 103.18C131.12 103.18 130.005 103.885 129.229 105.106C128.924 105.583 128.924 106.387 129.229 106.865C130.005 108.085 131.12 108.79 132.317 108.79C133.513 108.79 134.629 108.085 135.405 106.865C135.71 106.387 135.71 105.583 135.405 105.106" stroke="#AEAEAE" stroke-width="0.5" stroke-linecap="round" stroke-linejoin="round"/>
<path d="M21 136.097V135.055C21 134.018 21.8375 133.18 22.875 133.18H23.9167" stroke="white" stroke-width="0.5" stroke-linecap="round" stroke-linejoin="round"/>
<path d="M26.417 133.18H27.4587C28.4962 133.18 29.3337 134.018 29.3337 135.055V136.097" stroke="white" stroke-width="0.5" stroke-linecap="round" stroke-linejoin="round"/>
<path d="M29.333 139.013V139.638C29.333 140.676 28.4955 141.513 27.458 141.513H26.833" stroke="white" stroke-width="0.5" stroke-linecap="round" stroke-linejoin="round"/>
<path d="M23.9167 141.513H22.875C21.8375 141.513 21 140.676 21 139.638V138.597" stroke="white" stroke-width="0.5" stroke-linecap="round" stroke-linejoin="round"/>
<path d="M27.2497 136.305V138.389C27.2497 139.222 26.833 139.639 25.9997 139.639H24.333C23.4997 139.639 23.083 139.222 23.083 138.389V136.305C23.083 135.472 23.4997 135.055 24.333 135.055H25.9997" stroke="white" stroke-width="0.5" stroke-linecap="round" stroke-linejoin="round"/>
<path d="M28.0833 137.347H22.25" stroke="white" stroke-width="0.5" stroke-linecap="round" stroke-linejoin="round"/>
<path d="M38.796 137.338V136.804H37.092V135.382H39.12V134.842H36.504V139.18H37.092V137.338H38.796ZM40.3539 139.252C40.8279 139.252 41.2299 139.042 41.3799 138.706L41.4399 139.18H41.9199V137.338C41.9199 136.546 41.4279 136.162 40.7019 136.162C39.9459 136.162 39.4419 136.564 39.4419 137.176H39.9339C39.9339 136.822 40.2039 136.612 40.6779 136.612C41.0739 136.612 41.3679 136.786 41.3679 137.278V137.362L40.4439 137.434C39.7539 137.488 39.3519 137.824 39.3519 138.364C39.3519 138.898 39.7239 139.252 40.3539 139.252ZM40.5159 138.814C40.1499 138.814 39.9219 138.658 39.9219 138.346C39.9219 138.058 40.1259 137.866 40.6239 137.818L41.3739 137.758V137.914C41.3739 138.466 41.0499 138.814 40.5159 138.814ZM42.509 137.716C42.509 138.64 43.079 139.252 43.943 139.252C44.651 139.252 45.197 138.826 45.311 138.19H44.747C44.645 138.538 44.345 138.748 43.943 138.748C43.409 138.748 43.067 138.34 43.067 137.71C43.067 137.074 43.433 136.666 43.967 136.666C44.345 136.666 44.645 136.864 44.741 137.236H45.305C45.203 136.582 44.687 136.162 43.949 136.162C43.091 136.162 42.509 136.798 42.509 137.716ZM47.172 139.252C47.898 139.252 48.39 138.898 48.534 138.268H48.006C47.91 138.604 47.622 138.784 47.184 138.784C46.626 138.784 46.302 138.442 46.26 137.824L48.528 137.818V137.608C48.528 136.738 47.982 136.162 47.148 136.162C46.296 136.162 45.714 136.798 45.714 137.716C45.714 138.628 46.308 139.252 47.172 139.252ZM47.148 136.636C47.646 136.636 47.964 136.96 47.964 137.446H46.272C46.344 136.93 46.656 136.636 47.148 136.636ZM51.4826 134.842H50.8946V139.18H51.4826V134.842ZM53.9282 139.18C55.2122 139.18 56.0762 138.304 56.0762 137.014C56.0762 135.718 55.2002 134.842 53.9042 134.842H52.4942V139.18H53.9282ZM53.8622 135.382C54.8522 135.382 55.4642 136.006 55.4642 137.014C55.4642 138.01 54.8522 138.634 53.8862 138.634H53.0822V135.382H53.8622Z" fill="white"/>
<path d="M64.744 167.622C64.984 167.622 65.182 167.424 65.182 167.178C65.182 166.932 64.984 166.74 64.744 166.74C64.492 166.74 64.294 166.932 64.294 167.178C64.294 167.424 64.492 167.622 64.744 167.622ZM64.378 171.18H65.11V168.216H64.378V171.18ZM66.8743 171.18V168.828H67.4503V168.216H66.8743V167.292H66.1423V168.216H65.5723V168.828H66.1423V171.18H66.8743ZM68.8353 167.298C68.8353 166.938 68.6313 166.71 68.3493 166.71C68.0853 166.71 67.9053 166.896 67.9053 167.16C67.9053 167.424 68.0793 167.574 68.2953 167.574C68.3613 167.574 68.4153 167.562 68.4633 167.544C68.4633 167.754 68.2773 167.916 68.0193 167.964V168.252C68.4993 168.192 68.8353 167.802 68.8353 167.298ZM69.0426 170.28C69.0426 170.862 69.5106 171.258 70.2486 171.258C70.9806 171.258 71.4906 170.886 71.4906 170.286C71.4906 169.83 71.2386 169.602 70.7406 169.488L70.2066 169.362C69.9546 169.302 69.8226 169.194 69.8226 169.026C69.8226 168.804 69.9906 168.672 70.2786 168.672C70.5606 168.672 70.7286 168.834 70.7346 169.086H71.4306C71.4246 168.51 70.9746 168.126 70.3086 168.126C69.6246 168.126 69.1326 168.474 69.1326 169.056C69.1326 169.53 69.3906 169.782 69.9246 169.902L70.4586 170.028C70.7226 170.088 70.8006 170.196 70.8006 170.346C70.8006 170.562 70.6146 170.7 70.2726 170.7C69.9366 170.7 69.7446 170.538 69.7386 170.28H69.0426ZM73.3711 168.216V168.828H73.7971V171.18H74.5231V168.828H75.2311V168.216H74.5231V167.856C74.5231 167.562 74.6131 167.37 74.9851 167.37H75.2431V166.746C75.1171 166.722 74.9791 166.716 74.8651 166.716C74.2231 166.716 73.7971 167.052 73.7971 167.856V168.216H73.3711ZM75.4364 169.692C75.4364 170.616 76.1024 171.252 77.0204 171.252C77.9384 171.252 78.6044 170.616 78.6044 169.692C78.6044 168.768 77.9384 168.132 77.0204 168.132C76.1024 168.132 75.4364 168.768 75.4364 169.692ZM76.1684 169.692C76.1684 169.152 76.5164 168.786 77.0204 168.786C77.5244 168.786 77.8724 169.152 77.8724 169.692C77.8724 170.232 77.5244 170.598 77.0204 170.598C76.5164 170.598 76.1684 170.232 76.1684 169.692ZM81.0446 168.204C80.9246 168.174 80.8226 168.162 80.7206 168.162C80.3246 168.162 80.0426 168.36 79.9166 168.654L79.8746 168.222H79.1846V171.18H79.9166V169.74C79.9166 169.164 80.2466 168.882 80.7746 168.882H81.0446V168.204ZM82.8633 168.216V168.828H83.2893V171.18H84.0153V168.828H84.7233V168.216H84.0153V167.856C84.0153 167.562 84.1053 167.37 84.4773 167.37H84.7353V166.746C84.6093 166.722 84.4713 166.716 84.3573 166.716C83.7153 166.716 83.2893 167.052 83.2893 167.856V168.216H82.8633ZM87.0505 168.204C86.9305 168.174 86.8285 168.162 86.7265 168.162C86.3305 168.162 86.0485 168.36 85.9225 168.654L85.8805 168.222H85.1905V171.18H85.9225V169.74C85.9225 169.164 86.2525 168.882 86.7805 168.882H87.0505V168.204ZM88.7724 171.258C89.5464 171.258 90.0864 170.868 90.2124 170.22H89.5344C89.4504 170.502 89.1864 170.658 88.7844 170.658C88.2984 170.658 88.0224 170.394 87.9684 169.872L90.2004 169.866V169.644C90.2004 168.72 89.6364 168.126 88.7484 168.126C87.8784 168.126 87.2724 168.768 87.2724 169.698C87.2724 170.616 87.8904 171.258 88.7724 171.258ZM88.7544 168.726C89.1924 168.726 89.4744 168.996 89.4744 169.404H87.9864C88.0584 168.96 88.3224 168.726 88.7544 168.726ZM92.1122 171.258C92.8862 171.258 93.4262 170.868 93.5522 170.22H92.8742C92.7902 170.502 92.5262 170.658 92.1242 170.658C91.6382 170.658 91.3622 170.394 91.3082 169.872L93.5402 169.866V169.644C93.5402 168.72 92.9762 168.126 92.0882 168.126C91.2182 168.126 90.6122 168.768 90.6122 169.698C90.6122 170.616 91.2302 171.258 92.1122 171.258ZM92.0942 168.726C92.5322 168.726 92.8142 168.996 92.8142 169.404H91.3262C91.3982 168.96 91.6622 168.726 92.0942 168.726ZM94.996 169.866C95.08 169.404 95.14 168.6 95.14 167.802V166.794H94.276V167.802C94.276 168.582 94.33 169.386 94.408 169.866H94.996ZM94.708 171.258C94.966 171.258 95.188 171.042 95.188 170.784C95.188 170.52 94.966 170.304 94.708 170.304C94.438 170.304 94.216 170.52 94.216 170.784C94.216 171.042 94.438 171.258 94.708 171.258Z" fill="#1E1E1E"/>
<rect x="15.2305" y="180.577" width="129.52" height="17.2683" rx="1.75" fill="#FFFEE8" stroke="#1E1E1E" stroke-width="0.5"/>
<rect x="14.25" y="179.43" width="129.52" height="17.2683" rx="1.75" fill="#FFFEE8" stroke="#1E1E1E" stroke-width="0.5"/>
<rect x="14.25" y="179.43" width="129.52" height="17.2683" rx="1.75" fill="#FFE4C9" stroke="#1E1E1E" stroke-width="0.5"/>
<circle cx="30.7412" cy="188.18" r="3.75" fill="white" stroke="#1E1E1E" stroke-width="0.5"/>
<path d="M30.6116 188.309H31.3862C32.3305 188.309 33.1308 189.157 32.5324 189.888V189.888C32.1678 190.333 31.6601 190.638 31.0958 190.75C30.5315 190.863 29.9456 190.777 29.4379 190.506C28.9303 190.235 28.5323 189.796 28.3118 189.265C28.0914 188.733 28.062 188.141 28.2289 187.591C28.3957 187.04 28.7484 186.564 29.2268 186.244C29.7052 185.925 30.2797 185.781 30.8523 185.837C31.425 185.893 31.9604 186.147 32.3672 186.554" stroke="#1E1E1E" stroke-width="0.5" stroke-linecap="round" stroke-linejoin="round"/>
<path d="M51.34 190.252C52.378 190.252 53.182 189.64 53.35 188.716H52.552C52.408 189.202 51.952 189.514 51.358 189.514C50.554 189.514 50.038 188.914 50.038 187.984C50.038 187.048 50.548 186.46 51.358 186.46C51.94 186.46 52.378 186.76 52.528 187.27H53.338C53.188 186.328 52.414 185.722 51.376 185.722C50.092 185.722 49.234 186.628 49.234 187.99C49.234 189.364 50.062 190.252 51.34 190.252ZM53.7567 188.692C53.7567 189.616 54.4227 190.252 55.3407 190.252C56.2587 190.252 56.9247 189.616 56.9247 188.692C56.9247 187.768 56.2587 187.132 55.3407 187.132C54.4227 187.132 53.7567 187.768 53.7567 188.692ZM54.4887 188.692C54.4887 188.152 54.8367 187.786 55.3407 187.786C55.8447 187.786 56.1927 188.152 56.1927 188.692C56.1927 189.232 55.8447 189.598 55.3407 189.598C54.8367 189.598 54.4887 189.232 54.4887 188.692ZM58.237 190.18V188.584C58.237 188.104 58.513 187.792 58.963 187.792C59.341 187.792 59.587 188.032 59.587 188.53V190.18H60.319V188.356C60.319 187.588 59.935 187.126 59.191 187.126C58.789 187.126 58.429 187.3 58.243 187.6L58.183 187.216H57.505V190.18H58.237ZM62.0462 190.18V187.828H62.6222V187.216H62.0462V186.292H61.3142V187.216H60.7442V187.828H61.3142V190.18H62.0462ZM63.4432 186.622C63.6832 186.622 63.8812 186.424 63.8812 186.178C63.8812 185.932 63.6832 185.74 63.4432 185.74C63.1912 185.74 62.9932 185.932 62.9932 186.178C62.9932 186.424 63.1912 186.622 63.4432 186.622ZM63.0772 190.18H63.8092V187.216H63.0772V190.18ZM65.2975 190.18V188.584C65.2975 188.104 65.5735 187.792 66.0235 187.792C66.4015 187.792 66.6475 188.032 66.6475 188.53V190.18H67.3795V188.356C67.3795 187.588 66.9955 187.126 66.2515 187.126C65.8495 187.126 65.4895 187.3 65.3035 187.6L65.2435 187.216H64.5655V190.18H65.2975ZM70.1087 187.216V188.77C70.1087 189.334 69.8867 189.604 69.4247 189.604C69.0167 189.604 68.7947 189.376 68.7947 188.812V187.216H68.0627V189.07C68.0627 189.796 68.4647 190.258 69.1487 190.258C69.5447 190.258 69.9287 190.066 70.1087 189.784L70.1627 190.18H70.8407V187.216H70.1087ZM72.8642 190.258C73.6382 190.258 74.1782 189.868 74.3042 189.22H73.6262C73.5422 189.502 73.2782 189.658 72.8762 189.658C72.3902 189.658 72.1142 189.394 72.0602 188.872L74.2922 188.866V188.644C74.2922 187.72 73.7282 187.126 72.8402 187.126C71.9702 187.126 71.3642 187.768 71.3642 188.698C71.3642 189.616 71.9822 190.258 72.8642 190.258ZM72.8462 187.726C73.2842 187.726 73.5662 187.996 73.5662 188.404H72.0782C72.1502 187.96 72.4142 187.726 72.8462 187.726ZM77.1492 190.18H77.8632L78.2712 188.908C78.4212 188.422 78.4752 188.212 78.5052 188.074C78.5292 188.224 78.5952 188.506 78.7152 188.896L79.1232 190.18H79.8072L80.8332 187.216H80.0592L79.6632 188.488C79.6092 188.674 79.5132 189.028 79.4652 189.25C79.4292 189.052 79.3092 188.608 79.2732 188.488L78.8772 187.216H78.1332L77.7252 188.488C77.6292 188.782 77.5752 188.968 77.5212 189.256C77.4672 188.98 77.4072 188.722 77.3412 188.488L76.9512 187.216H76.1892L77.1492 190.18ZM81.6424 186.622C81.8824 186.622 82.0804 186.424 82.0804 186.178C82.0804 185.932 81.8824 185.74 81.6424 185.74C81.3904 185.74 81.1924 185.932 81.1924 186.178C81.1924 186.424 81.3904 186.622 81.6424 186.622ZM81.2764 190.18H82.0084V187.216H81.2764V190.18ZM83.7727 190.18V187.828H84.3487V187.216H83.7727V186.292H83.0407V187.216H82.4707V187.828H83.0407V190.18H83.7727ZM85.5358 190.18V188.56C85.5358 188.116 85.8058 187.792 86.2678 187.792C86.6398 187.792 86.8858 188.032 86.8858 188.53V190.18H87.6178V188.356C87.6178 187.588 87.2338 187.126 86.5018 187.126C86.0758 187.126 85.7278 187.312 85.5418 187.6V185.716H84.8038V190.18H85.5358ZM91.9822 186.442C92.5102 186.442 92.9542 186.682 93.0922 187.198H93.9022C93.7762 186.304 93.0022 185.722 92.0002 185.722C90.6802 185.722 89.8102 186.67 89.8102 188.002C89.8102 189.352 90.6682 190.246 91.8982 190.246C92.4922 190.246 92.9902 190.012 93.2302 189.676L93.2782 190.18H93.9262V187.714H91.8862V188.392H93.2122V188.41C93.2122 189.112 92.7502 189.532 91.9882 189.532C91.1782 189.532 90.6142 188.998 90.6142 188.02C90.6142 187.072 91.1122 186.442 91.9822 186.442ZM94.4735 188.692C94.4735 189.616 95.1395 190.252 96.0575 190.252C96.9755 190.252 97.6415 189.616 97.6415 188.692C97.6415 187.768 96.9755 187.132 96.0575 187.132C95.1395 187.132 94.4735 187.768 94.4735 188.692ZM95.2055 188.692C95.2055 188.152 95.5535 187.786 96.0575 187.786C96.5615 187.786 96.9095 188.152 96.9095 188.692C96.9095 189.232 96.5615 189.598 96.0575 189.598C95.5535 189.598 95.2055 189.232 95.2055 188.692ZM98.0478 188.692C98.0478 189.616 98.7138 190.252 99.6318 190.252C100.55 190.252 101.216 189.616 101.216 188.692C101.216 187.768 100.55 187.132 99.6318 187.132C98.7138 187.132 98.0478 187.768 98.0478 188.692ZM98.7798 188.692C98.7798 188.152 99.1278 187.786 99.6318 187.786C100.136 187.786 100.484 188.152 100.484 188.692C100.484 189.232 100.136 189.598 99.6318 189.598C99.1278 189.598 98.7798 189.232 98.7798 188.692ZM101.628 188.632C101.628 189.49 102.18 190.12 103.02 190.12C103.446 190.12 103.812 189.946 103.998 189.67V190.162C103.998 190.654 103.674 190.972 103.17 190.972C102.72 190.972 102.426 190.744 102.378 190.36H101.646C101.736 191.152 102.318 191.638 103.17 191.638C104.13 191.638 104.724 191.02 104.724 190.03V187.216H104.046L104.004 187.624C103.83 187.306 103.482 187.12 103.038 187.12C102.192 187.12 101.628 187.768 101.628 188.632ZM102.366 188.614C102.366 188.128 102.678 187.762 103.164 187.762C103.674 187.762 103.98 188.11 103.98 188.614C103.98 189.13 103.668 189.484 103.164 189.484C102.684 189.484 102.366 189.112 102.366 188.614ZM106.22 190.18V185.716H105.494V190.18H106.22ZM108.313 190.258C109.087 190.258 109.627 189.868 109.753 189.22H109.075C108.991 189.502 108.727 189.658 108.325 189.658C107.839 189.658 107.563 189.394 107.509 188.872L109.741 188.866V188.644C109.741 187.72 109.177 187.126 108.289 187.126C107.419 187.126 106.813 187.768 106.813 188.698C106.813 189.616 107.431 190.258 108.313 190.258ZM108.295 187.726C108.733 187.726 109.015 187.996 109.015 188.404H107.527C107.599 187.96 107.863 187.726 108.295 187.726Z" fill="#1E1E1E"/>
<rect x="15.2305" y="208.662" width="129.52" height="17.2683" rx="1.75" fill="#FFFEE8" stroke="#1E1E1E" stroke-width="0.5"/>
<rect x="14.25" y="207.516" width="129.52" height="17.2683" rx="1.75" fill="#FFFEE8" stroke="#1E1E1E" stroke-width="0.5"/>
<rect x="14.25" y="207.43" width="129.52" height="17.2683" rx="1.75" fill="#7EE7D6" stroke="#1E1E1E" stroke-width="0.5"/>
<circle cx="30.7412" cy="216.18" r="3.75" fill="white" stroke="#1E1E1E" stroke-width="0.5"/>
<path d="M32.0877 214.503H31.4729C31.3517 214.502 31.2316 214.526 31.1194 214.572C31.0073 214.618 30.9055 214.686 30.8197 214.772C30.734 214.857 30.6661 214.959 30.6199 215.071C30.5738 215.183 30.5503 215.304 30.5508 215.425V219.728" stroke="#1E1E1E" stroke-width="0.5" stroke-linecap="round" stroke-linejoin="round"/>
<path d="M29.3213 216.654H31.7804" stroke="#1E1E1E" stroke-width="0.5" stroke-linecap="round" stroke-linejoin="round"/>
<path d="M51.34 219.252C52.378 219.252 53.182 218.64 53.35 217.716H52.552C52.408 218.202 51.952 218.514 51.358 218.514C50.554 218.514 50.038 217.914 50.038 216.984C50.038 216.048 50.548 215.46 51.358 215.46C51.94 215.46 52.378 215.76 52.528 216.27H53.338C53.188 215.328 52.414 214.722 51.376 214.722C50.092 214.722 49.234 215.628 49.234 216.99C49.234 218.364 50.062 219.252 51.34 219.252ZM53.7567 217.692C53.7567 218.616 54.4227 219.252 55.3407 219.252C56.2587 219.252 56.9247 218.616 56.9247 217.692C56.9247 216.768 56.2587 216.132 55.3407 216.132C54.4227 216.132 53.7567 216.768 53.7567 217.692ZM54.4887 217.692C54.4887 217.152 54.8367 216.786 55.3407 216.786C55.8447 216.786 56.1927 217.152 56.1927 217.692C56.1927 218.232 55.8447 218.598 55.3407 218.598C54.8367 218.598 54.4887 218.232 54.4887 217.692ZM58.237 219.18V217.584C58.237 217.104 58.513 216.792 58.963 216.792C59.341 216.792 59.587 217.032 59.587 217.53V219.18H60.319V217.356C60.319 216.588 59.935 216.126 59.191 216.126C58.789 216.126 58.429 216.3 58.243 216.6L58.183 216.216H57.505V219.18H58.237ZM62.0462 219.18V216.828H62.6222V216.216H62.0462V215.292H61.3142V216.216H60.7442V216.828H61.3142V219.18H62.0462ZM63.4432 215.622C63.6832 215.622 63.8812 215.424 63.8812 215.178C63.8812 214.932 63.6832 214.74 63.4432 214.74C63.1912 214.74 62.9932 214.932 62.9932 215.178C62.9932 215.424 63.1912 215.622 63.4432 215.622ZM63.0772 219.18H63.8092V216.216H63.0772V219.18ZM65.2975 219.18V217.584C65.2975 217.104 65.5735 216.792 66.0235 216.792C66.4015 216.792 66.6475 217.032 66.6475 217.53V219.18H67.3795V217.356C67.3795 216.588 66.9955 216.126 66.2515 216.126C65.8495 216.126 65.4895 216.3 65.3035 216.6L65.2435 216.216H64.5655V219.18H65.2975ZM70.1087 216.216V217.77C70.1087 218.334 69.8867 218.604 69.4247 218.604C69.0167 218.604 68.7947 218.376 68.7947 217.812V216.216H68.0627V218.07C68.0627 218.796 68.4647 219.258 69.1487 219.258C69.5447 219.258 69.9287 219.066 70.1087 218.784L70.1627 219.18H70.8407V216.216H70.1087ZM72.8642 219.258C73.6382 219.258 74.1782 218.868 74.3042 218.22H73.6262C73.5422 218.502 73.2782 218.658 72.8762 218.658C72.3902 218.658 72.1142 218.394 72.0602 217.872L74.2922 217.866V217.644C74.2922 216.72 73.7282 216.126 72.8402 216.126C71.9702 216.126 71.3642 216.768 71.3642 217.698C71.3642 218.616 71.9822 219.258 72.8642 219.258ZM72.8462 216.726C73.2842 216.726 73.5662 216.996 73.5662 217.404H72.0782C72.1502 216.96 72.4142 216.726 72.8462 216.726ZM77.1492 219.18H77.8632L78.2712 217.908C78.4212 217.422 78.4752 217.212 78.5052 217.074C78.5292 217.224 78.5952 217.506 78.7152 217.896L79.1232 219.18H79.8072L80.8332 216.216H80.0592L79.6632 217.488C79.6092 217.674 79.5132 218.028 79.4652 218.25C79.4292 218.052 79.3092 217.608 79.2732 217.488L78.8772 216.216H78.1332L77.7252 217.488C77.6292 217.782 77.5752 217.968 77.5212 218.256C77.4672 217.98 77.4072 217.722 77.3412 217.488L76.9512 216.216H76.1892L77.1492 219.18ZM81.6424 215.622C81.8824 215.622 82.0804 215.424 82.0804 215.178C82.0804 214.932 81.8824 214.74 81.6424 214.74C81.3904 214.74 81.1924 214.932 81.1924 215.178C81.1924 215.424 81.3904 215.622 81.6424 215.622ZM81.2764 219.18H82.0084V216.216H81.2764V219.18ZM83.7727 219.18V216.828H84.3487V216.216H83.7727V215.292H83.0407V216.216H82.4707V216.828H83.0407V219.18H83.7727ZM85.5358 219.18V217.56C85.5358 217.116 85.8058 216.792 86.2678 216.792C86.6398 216.792 86.8858 217.032 86.8858 217.53V219.18H87.6178V217.356C87.6178 216.588 87.2338 216.126 86.5018 216.126C86.0758 216.126 85.7278 216.312 85.5418 216.6V214.716H84.8038V219.18H85.5358ZM92.4622 217.386V216.696H90.8302V215.502H92.7742V214.794H90.0622V219.18H90.8302V217.386H92.4622ZM94.0002 219.258C94.4622 219.258 94.8642 219.048 94.9902 218.742L95.0442 219.18H95.6862V217.38C95.6862 216.558 95.1942 216.126 94.3962 216.126C93.5922 216.126 93.0642 216.546 93.0642 217.188H93.6882C93.6882 216.876 93.9282 216.696 94.3602 216.696C94.7322 216.696 94.9722 216.858 94.9722 217.26V217.326L94.0842 217.392C93.3822 217.446 92.9862 217.788 92.9862 218.334C92.9862 218.892 93.3702 219.258 94.0002 219.258ZM94.2402 218.706C93.9102 218.706 93.7302 218.574 93.7302 218.304C93.7302 218.064 93.9042 217.914 94.3602 217.872L94.9782 217.824V217.98C94.9782 218.436 94.6902 218.706 94.2402 218.706ZM96.2313 217.692C96.2313 218.634 96.8193 219.258 97.7193 219.258C98.4933 219.258 99.0693 218.784 99.1593 218.094H98.4213C98.3433 218.418 98.0853 218.598 97.7193 218.598C97.2513 218.598 96.9633 218.25 96.9633 217.692C96.9633 217.134 97.2753 216.78 97.7433 216.78C98.0913 216.78 98.3373 216.954 98.4213 217.29H99.1533C99.0753 216.576 98.5233 216.126 97.7133 216.126C96.8373 216.126 96.2313 216.774 96.2313 217.692ZM101.03 219.258C101.804 219.258 102.344 218.868 102.47 218.22H101.792C101.708 218.502 101.444 218.658 101.042 218.658C100.556 218.658 100.28 218.394 100.226 217.872L102.458 217.866V217.644C102.458 216.72 101.894 216.126 101.006 216.126C100.136 216.126 99.5302 216.768 99.5302 217.698C99.5302 218.616 100.148 219.258 101.03 219.258ZM101.012 216.726C101.45 216.726 101.732 216.996 101.732 217.404H100.244C100.316 216.96 100.58 216.726 101.012 216.726ZM103.722 219.18L103.77 218.718C103.944 219.06 104.322 219.258 104.766 219.258C105.618 219.258 106.176 218.628 106.176 217.716C106.176 216.78 105.66 216.12 104.814 216.12C104.364 216.12 103.968 216.318 103.776 216.648V214.716H103.044V219.18H103.722ZM103.782 217.686C103.782 217.152 104.112 216.78 104.616 216.78C105.132 216.78 105.438 217.158 105.438 217.686C105.438 218.214 105.132 218.586 104.616 218.586C104.112 218.586 103.782 218.22 103.782 217.686ZM106.585 217.692C106.585 218.616 107.251 219.252 108.169 219.252C109.087 219.252 109.753 218.616 109.753 217.692C109.753 216.768 109.087 216.132 108.169 216.132C107.251 216.132 106.585 216.768 106.585 217.692ZM107.317 217.692C107.317 217.152 107.665 216.786 108.169 216.786C108.673 216.786 109.021 217.152 109.021 217.692C109.021 218.232 108.673 218.598 108.169 218.598C107.665 218.598 107.317 218.232 107.317 217.692ZM110.159 217.692C110.159 218.616 110.825 219.252 111.743 219.252C112.661 219.252 113.327 218.616 113.327 217.692C113.327 216.768 112.661 216.132 111.743 216.132C110.825 216.132 110.159 216.768 110.159 217.692ZM110.891 217.692C110.891 217.152 111.239 216.786 111.743 216.786C112.247 216.786 112.595 217.152 112.595 217.692C112.595 218.232 112.247 218.598 111.743 218.598C111.239 218.598 110.891 218.232 110.891 217.692ZM114.645 219.18V218.382L115.077 217.932L115.851 219.18H116.691L115.587 217.392L116.715 216.216H115.797L114.645 217.458V214.716H113.919V219.18H114.645Z" fill="#1E1E1E"/>
<path d="M26.938 255.18C28.222 255.18 29.086 254.304 29.086 253.014C29.086 251.718 28.21 250.842 26.914 250.842H25.504V255.18H26.938ZM26.872 251.382C27.862 251.382 28.474 252.006 28.474 253.014C28.474 254.01 27.862 254.634 26.896 254.634H26.092V251.382H26.872ZM29.5461 253.71C29.5461 254.616 30.1941 255.252 31.0761 255.252C31.9521 255.252 32.6001 254.616 32.6001 253.71C32.6001 252.804 31.9521 252.168 31.0761 252.168C30.1941 252.168 29.5461 252.804 29.5461 253.71ZM30.1161 253.71C30.1161 253.098 30.5061 252.672 31.0761 252.672C31.6401 252.672 32.0361 253.098 32.0361 253.71C32.0361 254.322 31.6401 254.748 31.0761 254.748C30.5061 254.748 30.1161 254.322 30.1161 253.71ZM33.7884 255.18V253.626C33.7884 253.056 34.0944 252.678 34.6224 252.678C35.0544 252.678 35.3304 252.918 35.3304 253.512V255.18H35.8944V253.386C35.8944 252.636 35.5404 252.162 34.7664 252.162C34.3524 252.162 33.9804 252.36 33.7944 252.696L33.7344 252.246H33.2244V255.18H33.7884ZM37.3504 251.28C37.3504 250.956 37.1584 250.758 36.9184 250.758C36.6784 250.758 36.5224 250.926 36.5224 251.154C36.5224 251.388 36.6784 251.52 36.8584 251.52C36.9304 251.52 36.9844 251.508 37.0264 251.484C37.0264 251.676 36.8584 251.832 36.6244 251.874V252.126C37.0444 252.072 37.3504 251.718 37.3504 251.28ZM38.9567 255.18V252.72H39.5327V252.246H38.9567V251.328H38.3927V252.246H37.8167V252.72H38.3927V255.18H38.9567ZM42.2435 255.174V253.578C42.2435 253.074 42.5375 252.678 43.0835 252.678C43.5035 252.678 43.7855 252.918 43.7855 253.512V255.18H44.3495V253.386C44.3495 252.636 43.9895 252.162 43.2395 252.162C42.7835 252.162 42.4295 252.378 42.2435 252.696V250.764H41.6795V255.174H42.2435ZM45.9887 255.252C46.4627 255.252 46.8647 255.042 47.0147 254.706L47.0747 255.18H47.5547V253.338C47.5547 252.546 47.0627 252.162 46.3367 252.162C45.5807 252.162 45.0767 252.564 45.0767 253.176H45.5687C45.5687 252.822 45.8387 252.612 46.3127 252.612C46.7087 252.612 47.0027 252.786 47.0027 253.278V253.362L46.0787 253.434C45.3887 253.488 44.9867 253.824 44.9867 254.364C44.9867 254.898 45.3587 255.252 45.9887 255.252ZM46.1507 254.814C45.7847 254.814 45.5567 254.658 45.5567 254.346C45.5567 254.058 45.7607 253.866 46.2587 253.818L47.0087 253.758V253.914C47.0087 254.466 46.6847 254.814 46.1507 254.814ZM49.0405 255.18H49.5985L50.8225 252.246H50.2345L49.5805 253.884C49.4785 254.142 49.3825 254.394 49.3345 254.586C49.2865 254.406 49.2025 254.16 49.1005 253.884L48.4585 252.246H47.8585L49.0405 255.18ZM52.4025 255.252C53.1285 255.252 53.6205 254.898 53.7645 254.268H53.2365C53.1405 254.604 52.8525 254.784 52.4145 254.784C51.8565 254.784 51.5325 254.442 51.4905 253.824L53.7585 253.818V253.608C53.7585 252.738 53.2125 252.162 52.3785 252.162C51.5265 252.162 50.9445 252.798 50.9445 253.716C50.9445 254.628 51.5385 255.252 52.4025 255.252ZM52.3785 252.636C52.8765 252.636 53.1945 252.96 53.1945 253.446H51.5025C51.5745 252.93 51.8865 252.636 52.3785 252.636ZM56.8871 255.252C57.3611 255.252 57.7631 255.042 57.9131 254.706L57.9731 255.18H58.4531V253.338C58.4531 252.546 57.9611 252.162 57.2351 252.162C56.4791 252.162 55.9751 252.564 55.9751 253.176H56.4671C56.4671 252.822 56.7371 252.612 57.2111 252.612C57.6071 252.612 57.9011 252.786 57.9011 253.278V253.362L56.9771 253.434C56.2871 253.488 55.8851 253.824 55.8851 254.364C55.8851 254.898 56.2571 255.252 56.8871 255.252ZM57.0491 254.814C56.6831 254.814 56.4551 254.658 56.4551 254.346C56.4551 254.058 56.6591 253.866 57.1571 253.818L57.9071 253.758V253.914C57.9071 254.466 57.5831 254.814 57.0491 254.814ZM59.7982 255.18V253.626C59.7982 253.056 60.1042 252.678 60.6322 252.678C61.0642 252.678 61.3402 252.918 61.3402 253.512V255.18H61.9042V253.386C61.9042 252.636 61.5502 252.162 60.7762 252.162C60.3622 252.162 59.9902 252.36 59.8042 252.696L59.7442 252.246H59.2342V255.18H59.7982ZM65.184 255.252C65.658 255.252 66.06 255.042 66.21 254.706L66.27 255.18H66.75V253.338C66.75 252.546 66.258 252.162 65.532 252.162C64.776 252.162 64.272 252.564 64.272 253.176H64.764C64.764 252.822 65.034 252.612 65.508 252.612C65.904 252.612 66.198 252.786 66.198 253.278V253.362L65.274 253.434C64.584 253.488 64.182 253.824 64.182 254.364C64.182 254.898 64.554 255.252 65.184 255.252ZM65.346 254.814C64.98 254.814 64.752 254.658 64.752 254.346C64.752 254.058 64.956 253.866 65.454 253.818L66.204 253.758V253.914C66.204 254.466 65.88 254.814 65.346 254.814ZM67.339 253.716C67.339 254.64 67.909 255.252 68.773 255.252C69.481 255.252 70.027 254.826 70.141 254.19H69.577C69.475 254.538 69.175 254.748 68.773 254.748C68.239 254.748 67.897 254.34 67.897 253.71C67.897 253.074 68.263 252.666 68.797 252.666C69.175 252.666 69.475 252.864 69.571 253.236H70.135C70.033 252.582 69.517 252.162 68.779 252.162C67.921 252.162 67.339 252.798 67.339 253.716ZM70.5441 253.716C70.5441 254.64 71.1141 255.252 71.9781 255.252C72.6861 255.252 73.2321 254.826 73.3461 254.19H72.7821C72.6801 254.538 72.3801 254.748 71.9781 254.748C71.4441 254.748 71.1021 254.34 71.1021 253.71C71.1021 253.074 71.4681 252.666 72.0021 252.666C72.3801 252.666 72.6801 252.864 72.7761 253.236H73.3401C73.2381 252.582 72.7221 252.162 71.9841 252.162C71.1261 252.162 70.5441 252.798 70.5441 253.716ZM73.7492 253.71C73.7492 254.616 74.3972 255.252 75.2792 255.252C76.1552 255.252 76.8032 254.616 76.8032 253.71C76.8032 252.804 76.1552 252.168 75.2792 252.168C74.3972 252.168 73.7492 252.804 73.7492 253.71ZM74.3192 253.71C74.3192 253.098 74.7092 252.672 75.2792 252.672C75.8432 252.672 76.2392 253.098 76.2392 253.71C76.2392 254.322 75.8432 254.748 75.2792 254.748C74.7092 254.748 74.3192 254.322 74.3192 253.71ZM79.3852 252.246V253.794C79.3852 254.424 79.1032 254.754 78.5872 254.754C78.1552 254.754 77.8852 254.514 77.8852 253.884V252.246H77.3212V254.07C77.3212 254.79 77.7052 255.252 78.3892 255.252C78.8212 255.252 79.2112 255.042 79.3792 254.736L79.4392 255.18H79.9432V252.246H79.3852ZM81.3255 255.18V253.626C81.3255 253.056 81.6315 252.678 82.1595 252.678C82.5915 252.678 82.8675 252.918 82.8675 253.512V255.18H83.4315V253.386C83.4315 252.636 83.0775 252.162 82.3035 252.162C81.8895 252.162 81.5175 252.36 81.3315 252.696L81.2715 252.246H80.7615V255.18H81.3255ZM85.0407 255.18V252.72H85.6167V252.246H85.0407V251.328H84.4767V252.246H83.9007V252.72H84.4767V255.18H85.0407ZM87.4248 254.13V253.98C87.4248 253.674 87.6408 253.482 87.9588 253.254C88.3068 253.002 88.7148 252.696 88.7148 252.066C88.7148 251.304 88.1868 250.764 87.3348 250.764C86.5248 250.764 85.9128 251.358 85.9128 252.156H86.4948C86.4948 251.664 86.8488 251.292 87.3228 251.292C87.8148 251.292 88.1208 251.634 88.1208 252.096C88.1208 252.492 87.8508 252.714 87.5568 252.942C87.2328 253.194 86.9028 253.47 86.9028 253.98V254.13H87.4248ZM87.1908 255.264C87.4188 255.264 87.6168 255.066 87.6168 254.838C87.6168 254.61 87.4188 254.412 87.1908 254.412C86.9508 254.412 86.7588 254.604 86.7588 254.838C86.7588 255.072 86.9508 255.264 87.1908 255.264Z" fill="#1E1E1E"/>
<path d="M92.8947 255.252C93.9327 255.252 94.7367 254.64 94.9047 253.716H94.1067C93.9627 254.202 93.5067 254.514 92.9127 254.514C92.1087 254.514 91.5927 253.914 91.5927 252.984C91.5927 252.048 92.1027 251.46 92.9127 251.46C93.4947 251.46 93.9327 251.76 94.0827 252.27H94.8927C94.7427 251.328 93.9687 250.722 92.9307 250.722C91.6467 250.722 90.7887 251.628 90.7887 252.99C90.7887 254.364 91.6167 255.252 92.8947 255.252ZM97.3454 252.204C97.2254 252.174 97.1234 252.162 97.0214 252.162C96.6254 252.162 96.3434 252.36 96.2174 252.654L96.1754 252.222H95.4854V255.18H96.2174V253.74C96.2174 253.164 96.5474 252.882 97.0754 252.882H97.3454V252.204ZM99.0673 255.258C99.8413 255.258 100.381 254.868 100.507 254.22H99.8293C99.7453 254.502 99.4813 254.658 99.0793 254.658C98.5933 254.658 98.3173 254.394 98.2633 253.872L100.495 253.866V253.644C100.495 252.72 99.9313 252.126 99.0433 252.126C98.1733 252.126 97.5673 252.768 97.5673 253.698C97.5673 254.616 98.1853 255.258 99.0673 255.258ZM99.0493 252.726C99.4873 252.726 99.7693 252.996 99.7693 253.404H98.2813C98.3533 252.96 98.6173 252.726 99.0493 252.726ZM101.934 255.258C102.396 255.258 102.798 255.048 102.924 254.742L102.978 255.18H103.62V253.38C103.62 252.558 103.128 252.126 102.33 252.126C101.526 252.126 100.998 252.546 100.998 253.188H101.622C101.622 252.876 101.862 252.696 102.294 252.696C102.666 252.696 102.906 252.858 102.906 253.26V253.326L102.018 253.392C101.316 253.446 100.92 253.788 100.92 254.334C100.92 254.892 101.304 255.258 101.934 255.258ZM102.174 254.706C101.844 254.706 101.664 254.574 101.664 254.304C101.664 254.064 101.838 253.914 102.294 253.872L102.912 253.824V253.98C102.912 254.436 102.624 254.706 102.174 254.706ZM105.306 255.18V252.828H105.882V252.216H105.306V251.292H104.574V252.216H104.004V252.828H104.574V255.18H105.306ZM107.634 255.258C108.408 255.258 108.948 254.868 109.074 254.22H108.396C108.312 254.502 108.048 254.658 107.646 254.658C107.16 254.658 106.884 254.394 106.83 253.872L109.062 253.866V253.644C109.062 252.72 108.498 252.126 107.61 252.126C106.74 252.126 106.134 252.768 106.134 253.698C106.134 254.616 106.752 255.258 107.634 255.258ZM107.616 252.726C108.054 252.726 108.336 252.996 108.336 253.404H106.848C106.92 252.96 107.184 252.726 107.616 252.726ZM111.751 255.18L112.105 254.166H113.743L114.097 255.18H114.907L113.323 250.794H112.537L110.953 255.18H111.751ZM112.831 252.102C112.873 251.982 112.909 251.85 112.927 251.766C112.939 251.856 112.981 251.988 113.017 252.102L113.521 253.518H112.333L112.831 252.102ZM115.04 253.692C115.04 254.634 115.628 255.258 116.528 255.258C117.302 255.258 117.878 254.784 117.968 254.094H117.23C117.152 254.418 116.894 254.598 116.528 254.598C116.06 254.598 115.772 254.25 115.772 253.692C115.772 253.134 116.084 252.78 116.552 252.78C116.9 252.78 117.146 252.954 117.23 253.29H117.962C117.884 252.576 117.332 252.126 116.522 252.126C115.646 252.126 115.04 252.774 115.04 253.692ZM118.339 253.692C118.339 254.634 118.927 255.258 119.827 255.258C120.601 255.258 121.177 254.784 121.267 254.094H120.529C120.451 254.418 120.193 254.598 119.827 254.598C119.359 254.598 119.071 254.25 119.071 253.692C119.071 253.134 119.383 252.78 119.851 252.78C120.199 252.78 120.445 252.954 120.529 253.29H121.261C121.183 252.576 120.631 252.126 119.821 252.126C118.945 252.126 118.339 252.774 118.339 253.692ZM121.638 253.692C121.638 254.616 122.304 255.252 123.222 255.252C124.14 255.252 124.806 254.616 124.806 253.692C124.806 252.768 124.14 252.132 123.222 252.132C122.304 252.132 121.638 252.768 121.638 253.692ZM122.37 253.692C122.37 253.152 122.718 252.786 123.222 252.786C123.726 252.786 124.074 253.152 124.074 253.692C124.074 254.232 123.726 254.598 123.222 254.598C122.718 254.598 122.37 254.232 122.37 253.692ZM127.326 252.216V253.77C127.326 254.334 127.104 254.604 126.642 254.604C126.234 254.604 126.012 254.376 126.012 253.812V252.216H125.28V254.07C125.28 254.796 125.682 255.258 126.366 255.258C126.762 255.258 127.146 255.066 127.326 254.784L127.38 255.18H128.058V252.216H127.326ZM129.546 255.18V253.584C129.546 253.104 129.822 252.792 130.272 252.792C130.65 252.792 130.896 253.032 130.896 253.53V255.18H131.628V253.356C131.628 252.588 131.244 252.126 130.5 252.126C130.098 252.126 129.738 252.3 129.552 252.6L129.492 252.216H128.814V255.18H129.546ZM133.355 255.18V252.828H133.931V252.216H133.355V251.292H132.623V252.216H132.053V252.828H132.623V255.18H133.355Z" fill="#FFD92C"/>
<path d="M21.129 273.18H22.845C23.703 273.18 24.225 272.742 24.225 272.022C24.225 271.506 23.979 271.158 23.499 271.002C23.931 270.822 24.147 270.486 24.147 269.988C24.147 269.274 23.631 268.842 22.785 268.842H21.129V273.18ZM22.749 269.364C23.259 269.364 23.547 269.61 23.547 270.042C23.547 270.492 23.271 270.756 22.785 270.756H21.717V269.364H22.749ZM22.833 271.266C23.331 271.266 23.619 271.518 23.619 271.95C23.619 272.4 23.337 272.658 22.833 272.658H21.717V271.266H22.833ZM24.5244 274.494C24.6744 274.53 24.8304 274.554 25.0164 274.554C25.4664 274.554 25.7604 274.344 25.9584 273.84L27.3444 270.246H26.7624L25.8924 272.61L25.0404 270.246H24.4464L25.6284 273.336L25.5264 273.618C25.3884 273.99 25.1724 274.032 24.9024 274.032H24.5244V274.494ZM31.3313 273.246C32.3093 273.246 33.0833 272.67 33.2693 271.806H32.6453C32.4833 272.34 31.9793 272.682 31.3433 272.682C30.4673 272.682 29.8913 272.022 29.8913 271.008C29.8913 269.994 30.4673 269.334 31.3433 269.334C31.9733 269.334 32.4593 269.676 32.6213 270.24H33.2513C33.0893 269.352 32.3393 268.77 31.3613 268.77C30.1193 268.77 29.2733 269.676 29.2733 271.014C29.2733 272.358 30.0953 273.246 31.3313 273.246ZM33.7023 271.71C33.7023 272.616 34.3503 273.252 35.2323 273.252C36.1083 273.252 36.7563 272.616 36.7563 271.71C36.7563 270.804 36.1083 270.168 35.2323 270.168C34.3503 270.168 33.7023 270.804 33.7023 271.71ZM34.2723 271.71C34.2723 271.098 34.6623 270.672 35.2323 270.672C35.7963 270.672 36.1923 271.098 36.1923 271.71C36.1923 272.322 35.7963 272.748 35.2323 272.748C34.6623 272.748 34.2723 272.322 34.2723 271.71ZM37.9447 273.18V271.626C37.9447 271.056 38.2507 270.678 38.7787 270.678C39.2107 270.678 39.4867 270.918 39.4867 271.512V273.18H40.0507V271.386C40.0507 270.636 39.6967 270.162 38.9227 270.162C38.5087 270.162 38.1367 270.36 37.9507 270.696L37.8907 270.246H37.3807V273.18H37.9447ZM41.6598 273.18V270.72H42.2358V270.246H41.6598V269.328H41.0958V270.246H40.5198V270.72H41.0958V273.18H41.6598ZM43.018 269.55C43.222 269.55 43.39 269.382 43.39 269.178C43.39 268.968 43.222 268.806 43.018 268.806C42.814 268.806 42.646 268.968 42.646 269.178C42.646 269.382 42.814 269.55 43.018 269.55ZM42.742 273.18H43.306V270.246H42.742V273.18ZM44.6888 273.18V271.626C44.6888 271.056 44.9948 270.678 45.5228 270.678C45.9548 270.678 46.2308 270.918 46.2308 271.512V273.18H46.7948V271.386C46.7948 270.636 46.4408 270.162 45.6668 270.162C45.2528 270.162 44.8808 270.36 44.6948 270.696L44.6348 270.246H44.1248V273.18H44.6888ZM47.852 269.55C48.056 269.55 48.224 269.382 48.224 269.178C48.224 268.968 48.056 268.806 47.852 268.806C47.648 268.806 47.48 268.968 47.48 269.178C47.48 269.382 47.648 269.55 47.852 269.55ZM47.576 273.18H48.14V270.246H47.576V273.18ZM50.8051 270.246V271.794C50.8051 272.424 50.5231 272.754 50.0071 272.754C49.5751 272.754 49.3051 272.514 49.3051 271.884V270.246H48.7411V272.07C48.7411 272.79 49.1251 273.252 49.8091 273.252C50.2411 273.252 50.6311 273.042 50.7991 272.736L50.8591 273.18H51.3631V270.246H50.8051ZM52.7454 273.18V271.626C52.7454 271.056 53.0514 270.678 53.5794 270.678C54.0114 270.678 54.2874 270.918 54.2874 271.512V273.18H54.8514V271.386C54.8514 270.636 54.4974 270.162 53.7234 270.162C53.3094 270.162 52.9374 270.36 52.7514 270.696L52.6914 270.246H52.1814V273.18H52.7454ZM55.9086 269.55C56.1126 269.55 56.2806 269.382 56.2806 269.178C56.2806 268.968 56.1126 268.806 55.9086 268.806C55.7046 268.806 55.5366 268.968 55.5366 269.178C55.5366 269.382 55.7046 269.55 55.9086 269.55ZM55.6326 273.18H56.1966V270.246H55.6326V273.18ZM57.5794 273.18V271.626C57.5794 271.056 57.8854 270.678 58.4134 270.678C58.8454 270.678 59.1214 270.918 59.1214 271.512V273.18H59.6854V271.386C59.6854 270.636 59.3314 270.162 58.5574 270.162C58.1434 270.162 57.7714 270.36 57.5854 270.696L57.5254 270.246H57.0154V273.18H57.5794ZM60.2806 271.638C60.2806 272.46 60.8086 273.102 61.6426 273.102C62.1046 273.102 62.4886 272.898 62.6806 272.556V273.144C62.6806 273.702 62.3206 274.062 61.7686 274.062C61.2766 274.062 60.9526 273.81 60.8806 273.378H60.3166C60.4246 274.122 60.9706 274.572 61.7686 274.572C62.6686 274.572 63.2386 273.984 63.2386 273.06V270.246H62.7346L62.6926 270.744C62.5066 270.378 62.1406 270.162 61.6666 270.162C60.8146 270.162 60.2806 270.81 60.2806 271.638ZM60.8446 271.626C60.8446 271.086 61.1806 270.654 61.7446 270.654C62.3206 270.654 62.6566 271.062 62.6566 271.626C62.6566 272.202 62.3086 272.61 61.7386 272.61C61.1866 272.61 60.8446 272.178 60.8446 271.626ZM64.8985 272.946C64.8985 272.616 64.6945 272.406 64.4425 272.406C64.2025 272.406 64.0405 272.58 64.0405 272.82C64.0405 273.042 64.2085 273.186 64.4065 273.186C64.4785 273.186 64.5265 273.174 64.5685 273.15C64.5685 273.336 64.3945 273.498 64.1485 273.54V273.792C64.5745 273.738 64.8985 273.378 64.8985 272.946ZM67.0694 274.494C67.2194 274.53 67.3754 274.554 67.5614 274.554C68.0114 274.554 68.3054 274.344 68.5034 273.84L69.8894 270.246H69.3074L68.4374 272.61L67.5854 270.246H66.9914L68.1734 273.336L68.0714 273.618C67.9334 273.99 67.7174 274.032 67.4474 274.032H67.0694V274.494ZM70.0363 271.71C70.0363 272.616 70.6843 273.252 71.5663 273.252C72.4423 273.252 73.0903 272.616 73.0903 271.71C73.0903 270.804 72.4423 270.168 71.5663 270.168C70.6843 270.168 70.0363 270.804 70.0363 271.71ZM70.6063 271.71C70.6063 271.098 70.9963 270.672 71.5663 270.672C72.1303 270.672 72.5263 271.098 72.5263 271.71C72.5263 272.322 72.1303 272.748 71.5663 272.748C70.9963 272.748 70.6063 272.322 70.6063 271.71ZM75.6723 270.246V271.794C75.6723 272.424 75.3903 272.754 74.8743 272.754C74.4423 272.754 74.1723 272.514 74.1723 271.884V270.246H73.6083V272.07C73.6083 272.79 73.9923 273.252 74.6763 273.252C75.1083 273.252 75.4983 273.042 75.6663 272.736L75.7263 273.18H76.2303V270.246H75.6723ZM79.5473 273.252C80.0213 273.252 80.4233 273.042 80.5733 272.706L80.6333 273.18H81.1133V271.338C81.1133 270.546 80.6213 270.162 79.8953 270.162C79.1393 270.162 78.6353 270.564 78.6353 271.176H79.1273C79.1273 270.822 79.3973 270.612 79.8713 270.612C80.2673 270.612 80.5613 270.786 80.5613 271.278V271.362L79.6373 271.434C78.9473 271.488 78.5453 271.824 78.5453 272.364C78.5453 272.898 78.9173 273.252 79.5473 273.252ZM79.7093 272.814C79.3433 272.814 79.1153 272.658 79.1153 272.346C79.1153 272.058 79.3193 271.866 79.8173 271.818L80.5673 271.758V271.914C80.5673 272.466 80.2433 272.814 79.7093 272.814ZM81.7023 271.716C81.7023 272.64 82.2723 273.252 83.1363 273.252C83.8443 273.252 84.3903 272.826 84.5043 272.19H83.9403C83.8383 272.538 83.5383 272.748 83.1363 272.748C82.6023 272.748 82.2603 272.34 82.2603 271.71C82.2603 271.074 82.6263 270.666 83.1603 270.666C83.5383 270.666 83.8383 270.864 83.9343 271.236H84.4983C84.3963 270.582 83.8803 270.162 83.1423 270.162C82.2843 270.162 81.7023 270.798 81.7023 271.716ZM84.9074 271.716C84.9074 272.64 85.4774 273.252 86.3414 273.252C87.0494 273.252 87.5954 272.826 87.7094 272.19H87.1454C87.0434 272.538 86.7434 272.748 86.3414 272.748C85.8074 272.748 85.4654 272.34 85.4654 271.71C85.4654 271.074 85.8314 270.666 86.3654 270.666C86.7434 270.666 87.0434 270.864 87.1394 271.236H87.7034C87.6014 270.582 87.0854 270.162 86.3474 270.162C85.4894 270.162 84.9074 270.798 84.9074 271.716ZM89.5705 273.252C90.2965 273.252 90.7885 272.898 90.9325 272.268H90.4045C90.3085 272.604 90.0205 272.784 89.5825 272.784C89.0245 272.784 88.7005 272.442 88.6585 271.824L90.9265 271.818V271.608C90.9265 270.738 90.3805 270.162 89.5465 270.162C88.6945 270.162 88.1125 270.798 88.1125 271.716C88.1125 272.628 88.7065 273.252 89.5705 273.252ZM89.5465 270.636C90.0445 270.636 90.3625 270.96 90.3625 271.446H88.6705C88.7425 270.93 89.0545 270.636 89.5465 270.636ZM91.5564 274.494H92.1204V272.7C92.3124 273.06 92.7024 273.258 93.1704 273.258C94.0404 273.258 94.5324 272.586 94.5324 271.692C94.5324 270.792 94.0104 270.162 93.1704 270.162C92.7024 270.162 92.3064 270.372 92.1084 270.774L92.0664 270.246H91.5564V274.494ZM92.1264 271.716C92.1264 271.104 92.4744 270.678 93.0504 270.678C93.6264 270.678 93.9684 271.11 93.9684 271.716C93.9684 272.316 93.6264 272.748 93.0504 272.748C92.4744 272.748 92.1264 272.316 92.1264 271.716ZM95.9528 273.18V270.72H96.5288V270.246H95.9528V269.328H95.3888V270.246H94.8128V270.72H95.3888V273.18H95.9528ZM98.4836 271.71C98.4836 272.616 99.1316 273.252 100.014 273.252C100.89 273.252 101.538 272.616 101.538 271.71C101.538 270.804 100.89 270.168 100.014 270.168C99.1316 270.168 98.4836 270.804 98.4836 271.71ZM99.0536 271.71C99.0536 271.098 99.4436 270.672 100.014 270.672C100.578 270.672 100.974 271.098 100.974 271.71C100.974 272.322 100.578 272.748 100.014 272.748C99.4436 272.748 99.0536 272.322 99.0536 271.71ZM104.12 270.246V271.794C104.12 272.424 103.838 272.754 103.322 272.754C102.89 272.754 102.62 272.514 102.62 271.884V270.246H102.056V272.07C102.056 272.79 102.44 273.252 103.124 273.252C103.556 273.252 103.946 273.042 104.114 272.736L104.174 273.18H104.678V270.246H104.12ZM107.176 270.222C107.062 270.198 106.978 270.186 106.876 270.186C106.474 270.186 106.18 270.39 106.06 270.696L106.024 270.252H105.496V273.18H106.06V271.626C106.06 271.062 106.39 270.738 106.924 270.738H107.176V270.222ZM109.022 269.382H110.33V273.18H110.918V269.382H112.22V268.842H109.022V269.382ZM113.506 273.252C114.232 273.252 114.724 272.898 114.868 272.268H114.34C114.244 272.604 113.956 272.784 113.518 272.784C112.96 272.784 112.636 272.442 112.594 271.824L114.862 271.818V271.608C114.862 270.738 114.316 270.162 113.482 270.162C112.63 270.162 112.048 270.798 112.048 271.716C112.048 272.628 112.642 273.252 113.506 273.252ZM113.482 270.636C113.98 270.636 114.298 270.96 114.298 271.446H112.606C112.678 270.93 112.99 270.636 113.482 270.636ZM117.172 270.222C117.058 270.198 116.974 270.186 116.872 270.186C116.47 270.186 116.176 270.39 116.056 270.696L116.02 270.252H115.492V273.18H116.056V271.626C116.056 271.062 116.386 270.738 116.92 270.738H117.172V270.222ZM118.265 273.18V271.44C118.265 270.972 118.547 270.678 118.973 270.678C119.369 270.678 119.621 270.93 119.621 271.392V273.18H120.179V271.44C120.179 270.972 120.461 270.672 120.887 270.672C121.283 270.672 121.541 270.936 121.541 271.398V273.18H122.093V271.26C122.093 270.582 121.685 270.162 121.013 270.162C120.557 270.162 120.203 270.39 120.065 270.756C119.915 270.39 119.591 270.162 119.135 270.162C118.721 270.162 118.409 270.354 118.259 270.63L118.205 270.246H117.701V273.18H118.265ZM122.6 272.328C122.6 272.886 123.038 273.252 123.728 273.252C124.424 273.252 124.904 272.898 124.904 272.34C124.904 271.902 124.658 271.674 124.16 271.554L123.644 271.428C123.356 271.356 123.212 271.224 123.212 271.026C123.212 270.756 123.41 270.6 123.764 270.6C124.106 270.6 124.304 270.786 124.316 271.08H124.856C124.844 270.522 124.424 270.162 123.782 270.162C123.134 270.162 122.678 270.504 122.678 271.044C122.678 271.476 122.924 271.734 123.446 271.86L123.962 271.98C124.268 272.058 124.364 272.178 124.364 272.376C124.364 272.646 124.136 272.808 123.74 272.808C123.368 272.808 123.14 272.628 123.14 272.328H122.6ZM128.028 273.252C128.502 273.252 128.904 273.042 129.054 272.706L129.114 273.18H129.594V271.338C129.594 270.546 129.102 270.162 128.376 270.162C127.62 270.162 127.116 270.564 127.116 271.176H127.608C127.608 270.822 127.878 270.612 128.352 270.612C128.748 270.612 129.042 270.786 129.042 271.278V271.362L128.118 271.434C127.428 271.488 127.026 271.824 127.026 272.364C127.026 272.898 127.398 273.252 128.028 273.252ZM128.19 272.814C127.824 272.814 127.596 272.658 127.596 272.346C127.596 272.058 127.8 271.866 128.298 271.818L129.048 271.758V271.914C129.048 272.466 128.724 272.814 128.19 272.814ZM130.939 273.18V271.626C130.939 271.056 131.245 270.678 131.773 270.678C132.205 270.678 132.481 270.918 132.481 271.512V273.18H133.045V271.386C133.045 270.636 132.691 270.162 131.917 270.162C131.503 270.162 131.131 270.36 130.945 270.696L130.885 270.246H130.375V273.18H130.939ZM135.002 273.252C135.47 273.252 135.866 273.048 136.058 272.646L136.106 273.18H136.61V268.764H136.052V270.72C135.854 270.36 135.476 270.162 135.026 270.162C134.156 270.162 133.634 270.822 133.634 271.722C133.634 272.616 134.15 273.252 135.002 273.252ZM135.116 272.742C134.54 272.742 134.204 272.31 134.204 271.704C134.204 271.104 134.54 270.672 135.116 270.672C135.692 270.672 136.046 271.104 136.046 271.704C136.046 272.316 135.692 272.742 135.116 272.742ZM45.3909 281.246C46.3689 281.246 47.1429 280.67 47.3289 279.806H46.7049C46.5429 280.34 46.0389 280.682 45.4029 280.682C44.5269 280.682 43.9509 280.022 43.9509 279.008C43.9509 277.994 44.5269 277.334 45.4029 277.334C46.0329 277.334 46.5189 277.676 46.6809 278.24H47.3109C47.1489 277.352 46.3989 276.77 45.4209 276.77C44.1789 276.77 43.3329 277.676 43.3329 279.014C43.3329 280.358 44.1549 281.246 45.3909 281.246ZM47.7619 279.71C47.7619 280.616 48.4099 281.252 49.2919 281.252C50.1679 281.252 50.8159 280.616 50.8159 279.71C50.8159 278.804 50.1679 278.168 49.2919 278.168C48.4099 278.168 47.7619 278.804 47.7619 279.71ZM48.3319 279.71C48.3319 279.098 48.7219 278.672 49.2919 278.672C49.8559 278.672 50.2519 279.098 50.2519 279.71C50.2519 280.322 49.8559 280.748 49.2919 280.748C48.7219 280.748 48.3319 280.322 48.3319 279.71ZM52.0042 281.18V279.626C52.0042 279.056 52.3102 278.678 52.8382 278.678C53.2702 278.678 53.5462 278.918 53.5462 279.512V281.18H54.1102V279.386C54.1102 278.636 53.7562 278.162 52.9822 278.162C52.5682 278.162 52.1962 278.36 52.0102 278.696L51.9502 278.246H51.4402V281.18H52.0042ZM56.0674 281.252C56.5354 281.252 56.9314 281.048 57.1234 280.646L57.1714 281.18H57.6754V276.764H57.1174V278.72C56.9194 278.36 56.5414 278.162 56.0914 278.162C55.2214 278.162 54.6994 278.822 54.6994 279.722C54.6994 280.616 55.2154 281.252 56.0674 281.252ZM56.1814 280.742C55.6054 280.742 55.2694 280.31 55.2694 279.704C55.2694 279.104 55.6054 278.672 56.1814 278.672C56.7574 278.672 57.1114 279.104 57.1114 279.704C57.1114 280.316 56.7574 280.742 56.1814 280.742ZM58.7651 277.55C58.9691 277.55 59.1371 277.382 59.1371 277.178C59.1371 276.968 58.9691 276.806 58.7651 276.806C58.5611 276.806 58.3931 276.968 58.3931 277.178C58.3931 277.382 58.5611 277.55 58.7651 277.55ZM58.4891 281.18H59.0531V278.246H58.4891V281.18ZM60.6999 281.18V278.72H61.2759V278.246H60.6999V277.328H60.1359V278.246H59.5599V278.72H60.1359V281.18H60.6999ZM62.058 277.55C62.262 277.55 62.43 277.382 62.43 277.178C62.43 276.968 62.262 276.806 62.058 276.806C61.854 276.806 61.686 276.968 61.686 277.178C61.686 277.382 61.854 277.55 62.058 277.55ZM61.782 281.18H62.346V278.246H61.782V281.18ZM62.9728 279.71C62.9728 280.616 63.6208 281.252 64.5028 281.252C65.3788 281.252 66.0268 280.616 66.0268 279.71C66.0268 278.804 65.3788 278.168 64.5028 278.168C63.6208 278.168 62.9728 278.804 62.9728 279.71ZM63.5428 279.71C63.5428 279.098 63.9328 278.672 64.5028 278.672C65.0668 278.672 65.4628 279.098 65.4628 279.71C65.4628 280.322 65.0668 280.748 64.5028 280.748C63.9328 280.748 63.5428 280.322 63.5428 279.71ZM67.2152 281.18V279.626C67.2152 279.056 67.5212 278.678 68.0492 278.678C68.4812 278.678 68.7572 278.918 68.7572 279.512V281.18H69.3212V279.386C69.3212 278.636 68.9672 278.162 68.1932 278.162C67.7792 278.162 67.4072 278.36 67.2212 278.696L67.1612 278.246H66.6512V281.18H67.2152ZM69.8272 280.328C69.8272 280.886 70.2652 281.252 70.9552 281.252C71.6512 281.252 72.1312 280.898 72.1312 280.34C72.1312 279.902 71.8852 279.674 71.3872 279.554L70.8712 279.428C70.5832 279.356 70.4392 279.224 70.4392 279.026C70.4392 278.756 70.6372 278.6 70.9912 278.6C71.3332 278.6 71.5312 278.786 71.5432 279.08H72.0832C72.0712 278.522 71.6512 278.162 71.0092 278.162C70.3612 278.162 69.9052 278.504 69.9052 279.044C69.9052 279.476 70.1512 279.734 70.6732 279.86L71.1892 279.98C71.4952 280.058 71.5912 280.178 71.5912 280.376C71.5912 280.646 71.3632 280.808 70.9672 280.808C70.5952 280.808 70.3672 280.628 70.3672 280.328H69.8272ZM73.6026 280.946C73.6026 280.616 73.3986 280.406 73.1466 280.406C72.9066 280.406 72.7446 280.58 72.7446 280.82C72.7446 281.042 72.9126 281.186 73.1106 281.186C73.1826 281.186 73.2306 281.174 73.2726 281.15C73.2726 281.336 73.0986 281.498 72.8526 281.54V281.792C73.2786 281.738 73.6026 281.378 73.6026 280.946ZM77.8375 279.632C78.6835 279.632 79.2355 279.044 79.2355 278.234C79.2355 277.4 78.6895 276.842 77.8375 276.842H76.1515V281.18H76.7395V279.632H77.8375ZM77.7355 277.37C78.2875 277.37 78.6175 277.682 78.6175 278.228C78.6175 278.762 78.2935 279.104 77.7115 279.104H76.7395V277.37H77.7355ZM81.4855 278.222C81.3715 278.198 81.2875 278.186 81.1855 278.186C80.7835 278.186 80.4895 278.39 80.3695 278.696L80.3335 278.252H79.8055V281.18H80.3695V279.626C80.3695 279.062 80.6995 278.738 81.2335 278.738H81.4855V278.222ZM82.2904 277.55C82.4944 277.55 82.6624 277.382 82.6624 277.178C82.6624 276.968 82.4944 276.806 82.2904 276.806C82.0864 276.806 81.9184 276.968 81.9184 277.178C81.9184 277.382 82.0864 277.55 82.2904 277.55ZM82.0144 281.18H82.5784V278.246H82.0144V281.18ZM84.2193 281.18H84.7773L86.0013 278.246H85.4133L84.7593 279.884C84.6573 280.142 84.5613 280.394 84.5133 280.586C84.4653 280.406 84.3813 280.16 84.2793 279.884L83.6373 278.246H83.0373L84.2193 281.18ZM87.1732 281.252C87.6472 281.252 88.0492 281.042 88.1992 280.706L88.2592 281.18H88.7392V279.338C88.7392 278.546 88.2472 278.162 87.5212 278.162C86.7652 278.162 86.2612 278.564 86.2612 279.176H86.7532C86.7532 278.822 87.0232 278.612 87.4972 278.612C87.8932 278.612 88.1872 278.786 88.1872 279.278V279.362L87.2632 279.434C86.5732 279.488 86.1712 279.824 86.1712 280.364C86.1712 280.898 86.5432 281.252 87.1732 281.252ZM87.3352 280.814C86.9692 280.814 86.7412 280.658 86.7412 280.346C86.7412 280.058 86.9452 279.866 87.4432 279.818L88.1932 279.758V279.914C88.1932 280.466 87.8692 280.814 87.3352 280.814ZM89.3283 279.716C89.3283 280.64 89.8983 281.252 90.7623 281.252C91.4703 281.252 92.0163 280.826 92.1303 280.19H91.5663C91.4643 280.538 91.1643 280.748 90.7623 280.748C90.2283 280.748 89.8863 280.34 89.8863 279.71C89.8863 279.074 90.2523 278.666 90.7863 278.666C91.1643 278.666 91.4643 278.864 91.5603 279.236H92.1243C92.0223 278.582 91.5063 278.162 90.7683 278.162C89.9103 278.162 89.3283 278.798 89.3283 279.716ZM92.3848 282.494C92.5348 282.53 92.6908 282.554 92.8768 282.554C93.3268 282.554 93.6208 282.344 93.8188 281.84L95.2048 278.246H94.6228L93.7528 280.61L92.9008 278.246H92.3068L93.4888 281.336L93.3868 281.618C93.2488 281.99 93.0328 282.032 92.7628 282.032H92.3848V282.494ZM99.0777 279.632C99.9237 279.632 100.476 279.044 100.476 278.234C100.476 277.4 99.9297 276.842 99.0777 276.842H97.3917V281.18H97.9797V279.632H99.0777ZM98.9757 277.37C99.5277 277.37 99.8577 277.682 99.8577 278.228C99.8577 278.762 99.5337 279.104 98.9517 279.104H97.9797V277.37H98.9757ZM100.719 279.71C100.719 280.616 101.367 281.252 102.249 281.252C103.125 281.252 103.773 280.616 103.773 279.71C103.773 278.804 103.125 278.168 102.249 278.168C101.367 278.168 100.719 278.804 100.719 279.71ZM101.289 279.71C101.289 279.098 101.679 278.672 102.249 278.672C102.813 278.672 103.209 279.098 103.209 279.71C103.209 280.322 102.813 280.748 102.249 280.748C101.679 280.748 101.289 280.322 101.289 279.71ZM104.973 281.18V276.764H104.409V281.18H104.973ZM106.08 277.55C106.284 277.55 106.452 277.382 106.452 277.178C106.452 276.968 106.284 276.806 106.08 276.806C105.876 276.806 105.708 276.968 105.708 277.178C105.708 277.382 105.876 277.55 106.08 277.55ZM105.804 281.18H106.368V278.246H105.804V281.18ZM106.994 279.716C106.994 280.64 107.564 281.252 108.428 281.252C109.136 281.252 109.682 280.826 109.796 280.19H109.232C109.13 280.538 108.83 280.748 108.428 280.748C107.894 280.748 107.552 280.34 107.552 279.71C107.552 279.074 107.918 278.666 108.452 278.666C108.83 278.666 109.13 278.864 109.226 279.236H109.79C109.688 278.582 109.172 278.162 108.434 278.162C107.576 278.162 106.994 278.798 106.994 279.716ZM110.051 282.494C110.201 282.53 110.357 282.554 110.543 282.554C110.993 282.554 111.287 282.344 111.485 281.84L112.871 278.246H112.289L111.419 280.61L110.567 278.246H109.973L111.155 281.336L111.053 281.618C110.915 281.99 110.699 282.032 110.429 282.032H110.051V282.494Z" fill="#1E1E1E"/>
<path d="M108.938 274.59H137.018V275.07H108.938V274.59ZM43.0869 282.59H72.3472V283.07H43.0869V282.59ZM75.6475 282.59H112.913V283.07H75.6475V282.59Z" fill="#1E1E1E"/>
</svg>
