<svg width="29" height="31" viewBox="0 0 29 31" fill="none" xmlns="http://www.w3.org/2000/svg">
<path d="M25.3299 13.7692L6.33262 2.3339C6.05265 2.16651 5.73566 2.07949 5.41352 2.08158C5.09138 2.08367 4.77545 2.17479 4.49746 2.3458C4.22509 2.51098 3.99897 2.74864 3.84186 3.03483C3.68475 3.32102 3.60221 3.64565 3.60254 3.97602V26.8467C3.60553 27.3496 3.79781 27.8308 4.1374 28.1853C4.47698 28.5397 4.93629 28.7387 5.41504 28.7387C5.73601 28.7375 6.05154 28.6516 6.33262 28.4888L25.3299 17.0535C25.6113 16.8931 25.8463 16.6559 26.0101 16.3668C26.1739 16.0778 26.2603 15.7477 26.2603 15.4113C26.2603 15.075 26.1739 14.7449 26.0101 14.4559C25.8463 14.1668 25.6113 13.9296 25.3299 13.7692ZM16.3127 16.756L18.4537 19.005L8.46231 25.0023L16.3127 16.756ZM8.46231 5.80853L18.4537 11.8177L16.3127 14.0667L8.46231 5.80853ZM20.0736 18.0173L17.5928 15.4113L20.0736 12.8054L24.4236 15.4113L20.0736 18.0173Z" fill="#1E1E1E"/>
</svg>
